<?xml version="1.0" encoding="utf-8"?>
<!DOCTYPE svg PUBLIC "-//W3C//DTD SVG 1.1//EN" "http://www.w3.org/Graphics/SVG/1.1/DTD/svg11.dtd">
<svg version="1.1" xmlns="http://www.w3.org/2000/svg" xmlns:xlink="http://www.w3.org/1999/xlink" x="0px" y="0px" viewBox="0 0 400 400"
style="enable-background:new 0 0 400 400;" xml:space="preserve">
<style type="text/css">
.st0{fill:#FFFFFF;}
.st1{fill:#154373;}
</style>
<g>
<rect y="0" class="st0" width="400" height="400"/>
<g>
<rect x="116.6" class="st1" width="166.7" height="291.7"/>
<path class="st0" d="M202.9,216H200v-8h2.9V216z M216,180.6h-2.9v-8h2.9V180.6z M162.3,166.7c-0.2,0-1.7,0-1.7,0.3
c0,0.3,0.7,0.2,1.7,0.3c2.3,0.4,3.2,1.6,4.8,1.6c1.5,0,3-1,2.4-3.1c-0.1-0.3-0.3-0.3-0.3,0c-0.2,0.9-1.4,1.5-2.7,1.5
C165,167.2,164.7,166.7,162.3,166.7z M146.4,174.7c0.3,0.3,3,3.9-1.2,5.3c-0.2,0.1-0.3,0.2,0,0.4c3.1,1.3,4.6-1.1,4.6-1.1
c1.6,3.6-0.8,5.5-0.8,5.5c0.3,0.6,1.8,1.7,4.1,2.2c0.8-0.5,2-1.3,2.5-2.7c0,0,0.6,1.6,0,3c6.3,0.6,8.6-4.5,13.5-3.6
c0.2,0,0.2-0.1,0.2-0.2c0-3.1-1.9-8.8-8-10c-6-1.2-4.4-3.6-4.4-3.6c2.5-0.1,4,1,4,1c0.5-0.8-0.2-1.6-0.2-1.6
c0.2-0.3,0.4-1.3,0.4-1.3c-2.8,0-3.6-0.6-3.6-0.6c-0.5-1.7,0.8-4.1,5-1.5c1.1-0.9,1-2.4,1-2.4c0.3-0.2,0.5-0.6,0.5-0.9
c0-0.7-3.4-2.6-4.3-2.8c-0.2-1-1.5-2.5-5.5-2c-1.9,0.2-3.3-0.3-2.6-1.4c0.1-0.2-0.2-0.2-0.4,0c-0.5,0.5-1,1.7,0.6,2.5
c1.8,0.9,1.9,2.8,2,3c0,0.4-0.5,0.4-0.5,0c-0.8-3.1-5.1-3.8-7.6-2.1c0.2,1.7,1.9,2.8,2.9,2.8c0.6,0,1.3-0.6,1.3-1.3
c0-0.4,0.2-0.3,0.3,0c0.4,1.1-1.2,3.4-3.6,2c-2.5,2.5-1.5,5.5-1.3,6.6c0.5,2-0.5,4-2.3,3.1c-0.1,0-0.2-0.1-0.2,0.2
C142.8,174.4,144.4,175.8,146.4,174.7z M159.9,162.3c-1.1,1.3-3,1-3.5-1.1C158.8,161.1,159.8,161.3,159.9,162.3z
 M233.4,167.2c-1.3,0-2.4-0.5-2.7-1.5c0-0.2-0.3-0.3-0.3,0c-0.6,2.1,0.9,3.1,2.4,3.1c1.6,0,2.5-1.2,4.8-1.6
c1-0.2,1.7,0,1.7-0.3c0-0.3-1.5-0.3-1.7-0.3C235.3,166.7,235,167.2,233.4,167.2z M257.2,173.1c0-0.2-0.1-0.2-0.2-0.2
c-1.8,0.9-2.8-1.1-2.3-3.1c0.3-1.1,1.3-4.2-1.3-6.6c-2.4,1.4-4.1-0.9-3.6-2c0.1-0.3,0.3-0.3,0.3,0c0,0.8,0.8,1.3,1.3,1.3
c1,0,2.8-1.1,2.9-2.8c-2.5-1.6-6.7-1-7.6,2.1c-0.1,0.4-0.6,0.3-0.5,0c0-0.3,0.1-2.1,2-3c1.7-0.8,1.1-2,0.6-2.5
c-0.2-0.2-0.5-0.2-0.4,0c0.6,1.1-0.7,1.6-2.6,1.4c-4-0.5-5.3,0.9-5.5,2c-0.9,0.2-4.3,2.1-4.3,2.8c0,0.2,0.2,0.7,0.5,0.9
c0,0-0.1,1.4,1,2.4c4.2-2.6,5.4-0.2,5,1.5c0,0-0.8,0.6-3.6,0.6c0,0,0.2,1,0.4,1.3c0,0-0.6,0.8-0.2,1.6c0,0,1.5-1.1,4-1
c0,0,1.6,2.5-4.4,3.6s-8,6.9-8,10c0,0.2,0.1,0.2,0.2,0.2c4.9-0.9,7.1,4.2,13.5,3.6c-0.6-1.5,0-3,0-3c0.5,1.3,1.7,2.2,2.5,2.7
c2.2-0.5,3.7-1.6,4.1-2.2c0,0-2.4-2-0.8-5.5c0,0,1.5,2.4,4.6,1.1c0.3-0.1,0.2-0.3,0-0.4c-4.2-1.4-1.5-4.9-1.2-5.3
C255.6,175.8,257.2,174.4,257.2,173.1z M243.5,161.2c-0.5,2.1-2.3,2.4-3.5,1.1C240.2,161.3,241.2,161.1,243.5,161.2z
 M198.9,125.6c0,0.5,0.2,1,0.4,1.3c0.4,0.5,0.3,0.8,0.2,1c-0.2,0.2-0.5,0.2-1-0.2c-0.3-0.2-0.7-0.4-1.3-0.4
c-0.9,0-1.4,0.6-1.4,1.1c0,0.5,0.5,1.1,1.4,1.1c0.5,0,1-0.2,1.3-0.4c0.5-0.4,0.8-0.3,1-0.2c0.2,0.2-0.1,2-0.3,3.4
c-1.5,0.3-2.2,1.5-2.2,2.2c0,1.8,1.9,2.9,3.1,3.5c1.1-0.6,3.1-1.7,3.1-3.5c0-0.7-0.7-1.9-2.2-2.2c-0.2-1.4-0.5-3.3-0.3-3.4
c0.2-0.2,0.5-0.2,1,0.2c0.3,0.2,0.7,0.4,1.3,0.4c0.9,0,1.4-0.6,1.4-1.1c0-0.5-0.5-1.1-1.4-1.1c-0.5,0-1,0.2-1.3,0.4
c-0.5,0.4-0.8,0.3-1,0.2c-0.2-0.2-0.2-0.5,0.2-1c0.2-0.3,0.4-0.7,0.4-1.3c0-0.9-0.6-1.4-1.1-1.4
C199.5,124.2,198.9,124.7,198.9,125.6z M200,139.1c-1.2,0-2.2,1-2.2,2.2c0,1.2,1,2.2,2.2,2.2c1.2,0,2.2-1,2.2-2.2
C202.2,140.1,201.2,139.1,200,139.1z M200,160.5c8.9,0,13.9,1.7,13.9,1.7c0-4.5,0-7,2.6-6.6c-1.4-3.8,4.7-5.3,4.7-10.2
c0-3.2-2.3-3.6-3-3.6c-2,0-1.7,1.3-3.4,1.3c-0.2,0-0.4,0-0.4,0.1c0,0.6,0.5,1.5,1.3,1.5c1.1,0,1.1-1.1,1.9-1.1
c0.3,0,0.8,0.3,0.8,1.4c0,2.1-1.4,4.4-3,6.2c-0.4-0.5-0.9-0.8-1.5-0.8c-0.9,0-1.8,1-1.8,2.2c0,0.5,0.1,0.8,0.2,1.2
c-0.5,0.3-1,0.5-1.4,0.5c-0.7,0-1.8-0.3-1.8-1.9c0-3.6,4.8-6.7,4.8-11.2c0-2.2-1.4-4.3-4.4-4.3c-3.2,0-2.6,3-5.4,3
c-0.1,0-0.2,0-0.2,0.2c0,0.2,0.5,1.8,1.9,1.8c1.6,0,2-2.7,3.3-2.7c0.5,0,1.3,0.3,1.3,2.1c0,1.4-0.7,3.7-1.7,5.9
c-0.4-0.4-0.9-0.6-1.4-0.6c-1.2,0-2,1.2-2,2.5c0,0.9,0.3,1.7,0.9,2.3c-0.7,0.9-1.4,1.6-2.4,1.6c-1.9,0-2.8-1.1-2.8-2.3
c0-1.3,2.3-1.7,2.3-3.8c0-1.4-0.9-2.2-1.7-2.2c-0.9,0-1.4,0.6-1.5,0.6c-0.1,0-0.6-0.6-1.5-0.6c-0.9,0-1.7,0.8-1.7,2.2
c0,2,2.3,2.5,2.3,3.8c0,1.2-0.8,2.3-2.8,2.3c-1,0-1.7-0.7-2.4-1.6c0.6-0.6,0.9-1.4,0.9-2.3c0-1.4-0.9-2.5-2-2.5
c-0.6,0-1.1,0.3-1.4,0.6c-1-2.2-1.7-4.5-1.7-5.9c0-1.8,0.8-2.1,1.3-2.1c1.4,0,1.8,2.7,3.3,2.7c1.4,0,1.9-1.6,1.9-1.8
c0-0.1-0.1-0.2-0.2-0.2c-2.8,0-2.2-3-5.4-3c-3,0-4.4,2.2-4.4,4.3c0,4.5,4.8,7.7,4.8,11.2c0,1.6-1.1,1.9-1.8,1.9
c-0.4,0-0.8-0.2-1.4-0.5c0.2-0.4,0.2-0.7,0.2-1.2c0-1.3-0.8-2.2-1.8-2.2c-0.6,0-1.1,0.3-1.5,0.8c-1.6-1.8-3-4.1-3-6.2
c0-1.1,0.5-1.4,0.8-1.4c0.8,0,0.8,1.1,1.9,1.1c0.8,0,1.3-1,1.3-1.5c0-0.2-0.2-0.1-0.4-0.1c-1.7,0-1.4-1.3-3.4-1.3
c-0.7,0-3,0.4-3,3.6c0,4.9,6.1,6.4,4.7,10.2c2.6-0.4,2.5,2.1,2.6,6.6C186.1,162.2,191.1,160.5,200,160.5z M183.7,167.1
c-2.4,0.5-4.2,1-4.9,1.3c0-1.1,0.5-2,1.4-2.3c0.1,0,0.2-0.2,0-0.3c-2.2-1.4-3.3,1.3-3.3,1.4c-0.8-0.1-1.9,0.2-1.9,1.2
c0,3.1-7,4.8-8.7,5c2.9,1.1,4.1,4.7,4.1,4.7c2.1-2.1,4.5-3.9,5.1-3.9c0.6,0,0.8,0.7,0.8,1.1c0,0.2,0.2,0.2,0.2,0.1
c1.1-1.6,0.6-2,0.5-2.5c-0.1-0.4,0-1.8,1.6-1.6v20.6l-0.8,0.2c-0.4,0.1-3.4-2.5-6.9-4.9c-3.4-2.4-5.3-0.9-9.2,1.2
c-5.2,2.8-10.3,0.3-10.3,0.3c-4.4,3.2-5.9,12.4-5.9,12.4c-0.9,0.4-2.3,0.8-3.8,0.8c-3.4,0-4-2-4-3.3c0-5.2,6.6-7.5,6.6-12.6
c0-1.3-0.6-6.3-6.9-6.3c-0.8,0-5.6,0-5.6,0c-2.3,0-3-1.7-3.3-2.3c-0.1-0.2-0.3-0.1-0.3,0.1c0.2,0.4-0.3,1.1-0.3,2.4
c0,2.1,1.2,3.3,3.5,3.3c1.1,0,2-0.3,2.3-0.5c0.2-0.1,0.3,0.1,0.2,0.2c-1,1.2-1.1,3.3-0.7,3.9c0.1,0.1,0.2,0.1,0.2,0
c0.6-2.2,2.6-4.3,5.4-4.3c3.4,0,3.4,2.9,3.4,3.6c0,4.2-7.4,7.3-7.4,13c0,5.9,6.2,7.1,9.8,6.2c-0.2,5.9-6.9,7.8-7.1,3.7
c0-0.2-0.2-0.3-0.3,0c-0.8,2.1-0.5,3.9,2.1,4.5c0.2,0,0.1,0.2-0.1,0.3c-2.5,1.7-1.1,8.2-1,10.1c0.2,2.7-2.5,2.4-2.8,2.3
c-0.1,0-0.2,0,0,0.2c1.9,2.3,4.3,0.2,4.3,0.2c1.8,0.6,0.7,2.1-0.5,2.9c-0.2,0.1-0.2,0.3,0,0.3c0.3,0,3.1,0.3,3.6-2
c1.3,1.5,3.1,0.9,3.4,0.8c0.5-0.3,3.1-1.2,3.4,1.7c0,0.2,0.2,0.1,0.2,0c2-2.5-0.2-4-1.3-4.2c0.1-0.2,1.7-1.4,3.1,0.4
c0.1,0.1,0.2,0.2,0.2-0.1c0.2-3.1-2.4-3.4-4.1-2.1c-0.1-0.3-0.6-2.1,1.9-2c0.1,0,0.2-0.1,0-0.2c-1.9-2-3.6-0.2-3.9,0.3
c-0.9,1-3,0.6-3.2,0.6c0.7-10.9,10.3-7.1,11.6-12.4c0.1-0.3,0.2-0.2,0.2-0.1c0.4,1.3,3.6,1.5,4.2-1.1c0-0.2,0-0.3-0.1-0.2
c-2.8,2.8-9.1-5.9-0.5-13c7.3-6,13.9-2.7,16.4-0.7c0.1,0.9-0.4,1.2-0.7,1.3c-0.1,0-0.2,0.2,0,0.2c0.7,0.3,1.7,0.2,2.2-0.5
c1.6,1.1,0.2,2.5-0.4,2.9c-0.2,0.1-0.1,0.2,0,0.2c1.4,0.3,2.6-1.2,2.7-2l0.2,0.2v6.2c0,8.9,10.2,10.1,21.4,17.6
c11.2-7.5,21.4-8.8,21.4-17.6v-6.2l0.2-0.2c0.1,0.8,1.3,2.3,2.7,2c0.2,0,0.2-0.1,0-0.2c-0.6-0.4-2-1.8-0.4-2.9
c0.5,0.6,1.4,0.7,2.2,0.5c0.2-0.1,0.2-0.2,0-0.2c-0.3-0.1-0.9-0.4-0.7-1.3c2.5-2,9.1-5.3,16.4,0.7c8.6,7.1,2.3,15.8-0.5,13
c-0.1-0.1-0.2,0-0.1,0.2c0.6,2.6,3.9,2.4,4.2,1.1c0-0.1,0.2-0.2,0.2,0.1c1.3,5.3,11,1.4,11.6,12.4c-0.2,0-2.3,0.4-3.2-0.6
c-0.4-0.5-2-2.3-3.9-0.3c-0.1,0.1,0,0.2,0,0.2c2.5-0.1,2,1.7,1.9,2c-1.7-1.4-4.2-1.1-4.1,2.1c0,0.3,0.1,0.2,0.2,0.1
c1.4-1.8,3-0.5,3.1-0.4c-1.2,0.2-3.3,1.7-1.3,4.2c0.1,0.1,0.2,0.3,0.2,0c0.3-3,2.9-2,3.4-1.7c0.4,0.2,2.2,0.7,3.4-0.8
c0.5,2.2,3.3,2,3.6,2c0.2,0,0.2-0.2,0-0.3c-1.2-0.8-2.3-2.3-0.5-2.9c0,0,2.4,2.2,4.3-0.2c0.2-0.2,0.1-0.3,0-0.2
c-0.2,0.1-3,0.4-2.8-2.3c0.1-1.9,1.5-8.4-1.1-10c-0.2-0.1-0.3-0.2-0.1-0.3c2.6-0.6,3-2.4,2.1-4.5c-0.1-0.3-0.3-0.2-0.3,0
c-0.2,4.2-6.9,2.2-7.1-3.7c3.6,0.9,9.8-0.3,9.8-6.2c0-5.8-7.4-8.9-7.4-13c0-0.7,0-3.6,3.4-3.6c2.8,0,4.8,2.1,5.4,4.3
c0,0.1,0.2,0.2,0.2,0c0.4-0.5,0.3-2.7-0.7-3.9c-0.1-0.1,0-0.3,0.2-0.2c0.3,0.2,1.3,0.5,2.3,0.5c2.3,0,3.5-1.3,3.5-3.3
c0-1.3-0.5-2-0.3-2.4c0.1-0.2-0.2-0.3-0.3-0.1c-0.3,0.6-0.9,2.3-3.3,2.3c0,0-4.8,0-5.6,0c-6.3,0-6.9,5.1-6.9,6.3
c0,5.2,6.6,7.4,6.6,12.6c0,1.2-0.6,3.3-4,3.3c-1.4,0-2.8-0.4-3.8-0.8c0,0-1.5-9.2-5.9-12.4c0,0-5.2,2.5-10.3-0.3
c-3.9-2.1-5.8-3.6-9.2-1.2c-3.4,2.4-6.5,5-6.8,4.9l-0.8-0.2v-20.6c1.6-0.2,1.7,1.3,1.6,1.6c-0.1,0.5-0.6,0.9,0.5,2.5
c0.1,0.1,0.2,0.1,0.2-0.1c0-0.4,0.3-1.1,0.8-1.1c0.5,0,3,1.9,5.1,3.9c0,0,1.2-3.6,4.1-4.7c-1.6-0.3-8.7-2-8.7-5
c0-1-1.2-1.3-1.9-1.2c0-0.1-1.2-2.8-3.3-1.4c-0.1,0.1-0.1,0.2,0,0.3c0.9,0.2,1.4,1.2,1.4,2.3c-2-0.6-10.8-3.1-21.2-3.1
c-5,0-9.7,0.6-13.4,1.3v7.2h-2.8V167.1L183.7,167.1 M164.5,240.3c-0.8-0.3-1.3-0.8-1.3-1.8V234c-1.3-0.5-4.7-1.8-11.7-1.8
c-5.8,0-7.6,1.3-7.7,1.7l-1.5,8.4c0,0,2.3-2.1,10.7-1.6c10.1,0.6,20.5,6.6,20.5,0.3v-3.7
C165.7,237.4,164.5,239.9,164.5,240.3z M226.4,237.4v3.7c0,6.3,10.4,0.4,20.5-0.3c8.3-0.5,10.7,1.6,10.7,1.6l-1.5-8.4
c-0.1-0.5-1.9-1.7-7.7-1.7c-6.9,0-10.4,1.3-11.7,1.8v4.4c0,1-0.5,1.5-1.3,1.8C235.5,239.9,234.3,237.4,226.4,237.4z
 M200,233.6c16.2,0,32.7,0.8,34.8,3.3c0.2,0.2,0.2,0,0.2-0.2v-8.6c0-2.5-17-4-35-4s-35,1.4-35,4v8.6c0,0.2,0.1,0.3,0.2,0.2
C167.3,234.4,183.8,233.6,200,233.6z M185.6,193.1l-1.6-0.4l-0.2,0.2l-1.9-0.8c0,0,1.4,0,1.7,0c0.2,0,0.2-0.1,0.1-0.2
c-0.8-0.8-1.4-1.4-1.4-1.4s0.8,0.3,1.9,0.7c0.1,0,0.2,0,0.1-0.1c-0.5-0.8-1.3-1.8-1.3-1.8s1.5,1,1.9,1.3
c0.1,0.1,0.2,0,0.2-0.1c-0.4-1-0.9-2.2-0.9-2.2l1.7,1.6c0.1,0.1,0.2,0,0.2-0.1c-0.2-0.8-0.5-2.2-0.5-2.2l1.3,1.8
c0.1,0.1,0.2,0.1,0.2,0c0-0.3,0-2,0-2s0.5,1.2,0.8,1.8c0,0.1,0.2,0.1,0.2,0c0.1-0.2,0.6-1.5,0.6-1.5l0.1,2l-0.3,0l-0.3,2.5
c2.5-0.6,5.5-4.8,7.8-4.8c2.8,0,3.8,3.3,8.9,1.6c1.3,1.9,1.7,3.6,2.2,5.9c2,1.9,4.8,1.3,4.8-0.7c0-2.7-2.9-3.2-2.9-5.9
c0-1.3,0.9-3,3.3-3c1.3,0,3.1,0.5,4.2,0.5c1.3,0,1.5-0.9,1.7-1.3c0.1-0.3,0.5-0.2,0.4,0c0,0.3,0.2,0.6,0.2,1.2
c0,1.7-2.6,2-2.9,1.8c-0.1-0.1-0.2,0-0.1,0.1c0.4,0.3,0.3,1.4-0.2,2c0,0.1-0.1,0.1-0.2,0c-0.3-1.3-1.7-2.8-3.1-2.8
c-0.5,0-1.4,0.3-1.4,1.4c0,1.6,3.2,3,3.2,6.3c0,3.4-3.4,4.2-6.8,3.4c0.1,3.2,4.9,5.2,5,2.8c0-0.2,0.1-0.1,0.2,0
c0.7,1,0.4,1.7-0.5,2.1c0.8,0.4,1,2.1,1.3,3.1c0.4,1.5,2,0.7,2,0.6c0.1,0,0.1,0,0.1,0.1c-0.6,1.6-2.2,1-2.2,1
c-0.8,0.6,0.2,1.1,0.9,1.4c0.1,0,0.1,0.1,0,0.2c-0.6,0.2-1.8,0.6-2.3-0.4c-0.4,1.1-1.3,1-1.7,1c-0.6,0-1,0.6-0.9,1.5
c0,0.1,0,0.1-0.1,0c-1.5-1-0.6-2.1,0-2.4c-0.1-0.1-1.1-0.5-1.6,0.7c0,0.1-0.1,0.1-0.1,0c-0.6-1.7,0.8-2.2,1.8-1.8
c-0.1-0.2-0.6-1.1-1.9-0.8c-0.1,0-0.1,0-0.1-0.1c0.2-0.5,0.9-1.3,2.1-0.5c0.6,0.4,1.7-0.2,1.8-0.2c-2.2-4.3-6.3-0.7-7.3-4.1
c0-0.1-0.1-0.1-0.2,0c-0.2,0.7-2,0.8-2.4-0.6c0-0.1,0-0.1,0.1,0c0.3,0.3,0.8,0.5,1.6-0.6c0.5-0.7,0.6-1.7,0.6-2.3
c0-2.6-2.6-7-6.7-7c-2.6,0-5.3,1-7.4,2.5l1.9,0.5c-0.2,1.9-2,3.1-3.8,2.6l0.3-2.2c-0.3,0.1-1.1,0.3-1.4,0.9c0,0-0.1,0-0.1,0
c-0.3-1.3,0.7-1.9,1-2c0,0,0,0,0,0c-0.9,0-1.4,0.6-1.6,0.9c0,0-0.1,0-0.1,0C185.3,194.2,185.1,193.5,185.6,193.1z M191.2,208
c-0.7,0.9-1.4,0-2.3,0c-0.9,0-1.1,0.8-1.1,1.1c0,0,0,0.1-0.1,0c-1-1.4,0.1-2.2,0.8-2.3c-0.1-0.1-1.1-0.8-1.7,0.2
c0,0.1-0.1,0-0.1,0c0-1.7,1.3-1.9,2.2-1.1c0.2-0.6-0.3-1.1-1-1.1c-0.1,0-0.1-0.1-0.1-0.1c0.3-0.3,0.6-0.5,0.9-0.5
c0.9,0,1.1,1.2,1.7,1.2c0.9,0,2.3-1.3,2.4-1.4c0-0.1-0.9-2.5-0.8-4c0-0.1,0-0.1-0.1,0c-0.5,0.3-1.6,0.3-1.6-1.2
c0-0.1,0-0.1,0.1,0c0.5,0.7,1.3-0.1,1.7-0.6c0.5-0.5,2.8-3.9,6-3.9c0.7,0,1.6,0.4,2.3,0.9c-1.1,1.3,0,2.6,0.8,2.5
c0.1,0,0.1,0.1,0,0.1c-4.2,1.6-6.1,2.2-6.1,5.7c0,1.8,0.6,2.8,1.7,2.6c0.1,0,0.1,0,0,0.1c-0.4,0.5-0.8,0.6-1.2,0.6
c-0.9,0-1-0.5-1.5-0.5c-0.5,0-2,0.9-2,1.7c0,0.3,0.2,0.7,0.7,1.1c0,0,0,0,0,0.1C192.7,209.1,191.5,209.1,191.2,208z
 M202.3,173.8c-1.3-0.1-2.2,0.2-2.1,0.6C200.8,175.2,201.6,175.1,202.3,173.8z M197.4,177.1c0.9-0.2,1.9-0.1,2-0.1
c0.2,0,0.2,0.3,0,0.3c-1.9,0.3-2,1.1-3.3,1.1c-0.8,0-1.7-0.8-1.4-2c0-0.2,0.2-0.2,0.2,0C195.2,176.9,195.9,177.5,197.4,177.1
z M172.3,219.9c1.3,1.6,2.5,0.1,4.2,0.1c0.8,0,1.8,0.3,2,1.9c0,0.1,0.1,0.1,0.2,0c1.8-2.5-0.3-3.9-1.4-4.1
c0.3-0.2,2-1.3,3.2,0.3c0.1,0.1,0.2,0.1,0.2-0.1c0-3.1-2.4-3.4-4.1-2c-0.3-1.3,0.6-2,1.8-2c0.2,0,0.2-0.1,0.1-0.2
c-2.1-2.3-3.7,0.6-4.1,1c-0.8,1.1-3.9-1-5.1-2.2c0,0,2.7-2.8,2.7-5.4c0-0.2,0-0.4,0-0.5c0-0.1,0-0.1,0.1-0.1
c0.3,0.2,0.6,0.3,1,0.3c0.6,0,1.8-0.2,1.8-2.3c0-0.2-0.1-0.2-0.2-0.1c-0.3,0.5-0.7,0.6-0.9,0.6c-2.2,0-6.7-7.2-12-7.2
c-1.4,0-4,1-5.3,2.4c0.6,0.4,0.8,1.2,0.7,1.7c-0.1,0.9-0.8,1.4-1.6,1.6c-0.1,0-0.2,0.1,0,0.2c2.7,1,7.6,2.9,8.7,3.8
c1.3,1.1,1.1,3.3,0.3,6.3c-0.7,2.8-2.3,2.5-2.9,2.3c-0.1,0-0.1,0-0.1,0.1c0.7,0.9,1.6,1.2,2.3,1.2c1.4,0,1.9-0.9,2.7-0.9
c1.2,0,3.8,1.7,3.8,3.1c0,0.8-0.6,1.4-1.3,1.9c0,0,0,0.1,0,0.1C169.5,221.8,171.9,222,172.3,219.9z M231.1,221.8
c0.1,0,0.1-0.1,0-0.1c-0.8-0.5-1.3-1.2-1.3-1.9c0-1.3,2.5-3.1,3.8-3.1c0.7,0,1.3,0.9,2.7,0.9c0.7,0,1.6-0.3,2.3-1.2
c0-0.1,0-0.1-0.1-0.1c-0.6,0.1-2.2,0.5-2.9-2.3c-0.8-3-1-5.1,0.3-6.3c1.1-0.9,6-2.8,8.7-3.8c0.2-0.1,0.1-0.2,0-0.2
c-0.8-0.2-1.5-0.6-1.6-1.6c-0.1-0.6,0-1.4,0.7-1.7c-1.3-1.4-3.9-2.4-5.3-2.4c-5.3,0-9.8,7.2-12,7.2c-0.3,0-0.6-0.1-0.9-0.6
c-0.1-0.1-0.2-0.1-0.2,0.1c0,2.2,1.1,2.3,1.8,2.3c0.3,0,0.7-0.1,1-0.3c0.1,0,0.1,0,0.1,0.1s0,0.3,0,0.5
c0,2.6,2.7,5.4,2.7,5.4c-1.2,1.3-4.2,3.4-5.1,2.2c-0.4-0.5-1.9-3.3-4.1-1c-0.1,0.1,0,0.2,0.1,0.2c1.2,0,2.1,0.8,1.8,2
c-1.7-1.4-4.1-1.1-4.1,2c0,0.1,0.1,0.2,0.2,0.1c1.1-1.6,2.9-0.5,3.2-0.3c-1.2,0.2-3.3,1.6-1.4,4.1c0.1,0.1,0.2,0.1,0.2,0
c0.2-1.6,1.2-1.9,2-1.9c1.7,0,2.9,1.6,4.2-0.1C228.1,222,230.5,221.8,231.1,221.8z M188.1,180.2c-0.2,0.2-0.7,0-0.9-0.1
c0,0-0.1,0,0,0c0.2,0.3,0.7,1.2,1.5,1.2c0.4,0,0.9-0.2,1-0.5c0,0,3.1,1,4.7,1.4c-0.6,0.8-1,1.8-1.1,2.8
c-1.3-0.8-6.3-3.4-6.3-3.4l-1.6,2.1c-0.3,0.3-1.5-0.6-1.3-0.9l1.2-1.6c-0.4-0.4-1.3-0.2-1.6-0.1c0,0-0.1,0,0-0.1
c0.2-0.3,0.7-1.3,2.2-0.9c0-0.9-1.3-0.6-1.7-0.5c0,0,0,0,0,0c0.4-0.4,1.4-1.3,2.7-0.5l0.5-0.7l-1.1-1.1l0.7-0.9l0.8,1
l5.8-7.9c0.2-0.2,1.3-0.5,1.7-0.6c0,0.5,0.1,1.6,0,1.8l-5.7,8l1.2,0.4l-0.6,0.9l-1.4-0.6L188.1,180.2z M208.3,178.9
c0,0.7,0.5,1.8,1.4,1.5c0,0,0.1,0,0.1,0c-0.2,0.8-1.6,1.6-2.2,0.6c-0.6,1.3-0.5,2.4,0.8,3.1c0.1,0,0.1,0.1,0,0.2
c-0.8,0.5-1.9,0.4-2.5-0.6c-1,0.8-0.9,2.4-0.3,3c0,0-2.9,1.7-5.5,0.5c-1.7-0.8-3.1-1.9-5.3-1.7c0.3-3.1,1.9-3.9,4.7-4.4
c2.3-0.4,2.6-1.4,2.2-2.2c-0.8-0.2-2.2,0.5-2.2,0.5c-0.3-0.4,0.1-0.9,0.1-0.9c-0.2-0.2-0.2-0.8-0.2-0.8
c1.6,0,1.9-0.3,1.9-0.3c0.3-1.7-1.4-1.9-2.7-0.9c-0.6-0.5-0.5-1.3-0.5-1.3c-0.2-0.1-0.3-0.4-0.3-0.5c0-0.4,1.9-1.5,2.4-1.6
c0.1-0.6,0.8-1.3,2.8-1.1c0.2-0.5-0.2-2.5-0.4-3c-0.1-0.2,0-0.3,0.2-0.2c0.7,0.5,1.4,2.1,1.9,2.1c0,0,2.3-1.2,2.4-1.1
c0.1,0.1,0.4,2.6,0.4,2.6c0.3,0.4,2,0,2.8,0.3c0.2,0.1,0.2,0.2,0,0.3c-0.6,0.1-2.4,0.9-2.7,1.4
C208.8,176,208.3,178.3,208.3,178.9z"/>
</g>
</g>
</svg>
