<?xml version="1.0" encoding="UTF-8" standalone="no"?>
<!-- Generator: Adobe Illustrator 22.1.0, SVG Export Plug-In . SVG Version: 6.00 Build 0)  -->

<svg
   version="1.1"
   id="Calque_1"
   x="0px"
   y="0px"
   width="1074.302"
   height="300.64529"
   viewBox="0 0 1074.302 300.64529"
   enable-background="new 0 0 1088 512"
   xml:space="preserve"
   sodipodi:docname="OSPO_Alliance_Logo_wide_banner.svg"
   inkscape:version="1.2.2 (b0a84865, 2022-12-01)"
   xmlns:inkscape="http://www.inkscape.org/namespaces/inkscape"
   xmlns:sodipodi="http://sodipodi.sourceforge.net/DTD/sodipodi-0.dtd"
   xmlns="http://www.w3.org/2000/svg"
   xmlns:svg="http://www.w3.org/2000/svg"><defs
   id="defs39" /><sodipodi:namedview
   id="namedview37"
   pagecolor="#ffffff"
   bordercolor="#000000"
   borderopacity="0.25"
   inkscape:showpageshadow="2"
   inkscape:pageopacity="0.0"
   inkscape:pagecheckerboard="0"
   inkscape:deskcolor="#d1d1d1"
   showgrid="false"
   inkscape:zoom="1.2527574"
   inkscape:cx="533.62289"
   inkscape:cy="152.8628"
   inkscape:window-width="1519"
   inkscape:window-height="937"
   inkscape:window-x="184"
   inkscape:window-y="44"
   inkscape:window-maximized="0"
   inkscape:current-layer="Calque_1" />
<g
   id="g34"
   transform="matrix(1.3420287,0,0,1.3420287,-194.39957,-191.43503)">
	<path
   fill="#262261"
   d="m 926.621,194.451 h -36.772 v -31.773 c 0,-10.334 -8.406,-18.741 -18.741,-18.741 H 737.233 c -10.334,0 -18.741,8.407 -18.741,18.741 v 133.875 c 0,10.334 8.406,18.741 18.741,18.741 h 36.771 v 31.774 c 0,10.334 8.406,18.741 18.741,18.741 H 926.62 c 10.334,0 18.741,-8.406 18.741,-18.741 V 213.192 c 10e-4,-10.334 -8.406,-18.741 -18.74,-18.741 z M 737.233,302.8 c -3.445,0 -6.247,-2.802 -6.247,-6.247 V 162.678 c 0,-3.445 2.802,-6.247 6.247,-6.247 h 133.875 c 3.444,0 6.247,2.802 6.247,6.247 v 31.773 h -84.61 c -10.334,0 -18.741,8.406 -18.741,18.741 V 302.8 Z m 140.122,-95.855 v 89.608 c 0,3.445 -2.803,6.247 -6.247,6.247 h -84.61 v -89.608 c 0,-3.445 2.803,-6.247 6.247,-6.247 z m 55.513,140.123 c 0,3.444 -2.803,6.247 -6.247,6.247 H 792.746 c -3.444,0 -6.247,-2.803 -6.247,-6.247 v -31.774 h 84.61 c 10.334,0 18.741,-8.406 18.741,-18.741 v -89.608 h 36.772 c 3.444,0 6.247,2.802 6.247,6.247 v 133.876 z"
   id="path2" />
	<path
   fill="#ee4036"
   d="m 871.534,303.321 c 3.482,0 6.315,-2.833 6.315,-6.315 v -90.582 h -85.53 c -3.482,0 -6.315,2.833 -6.315,6.315 v 90.582 z"
   id="path4" />
	<g
   id="g14">
		<path
   fill="#262261"
   d="m 145.741,194.576 c 0,-29.838 23.24,-51.93 54.944,-51.93 31.561,0 54.944,21.949 54.944,51.93 0,29.983 -23.384,51.932 -54.944,51.932 -31.703,10e-4 -54.944,-22.092 -54.944,-51.932 z m 86.361,0 c 0,-19.078 -13.484,-32.134 -31.416,-32.134 -17.932,0 -31.418,13.056 -31.418,32.134 0,19.08 13.486,32.134 31.418,32.134 17.932,0 31.416,-13.054 31.416,-32.134 z"
   id="path6" />
		<path
   fill="#262261"
   d="m 301.088,234.888 7.89,-17.502 c 8.463,6.169 21.088,10.474 33.138,10.474 13.772,0 19.366,-4.591 19.366,-10.76 0,-18.794 -58.387,-5.883 -58.387,-43.18 0,-17.072 13.772,-31.273 42.319,-31.273 12.625,0 25.536,3.012 34.86,8.893 l -7.172,17.647 c -9.326,-5.308 -18.937,-7.891 -27.831,-7.891 -13.772,0 -19.08,5.165 -19.08,11.478 0,18.506 58.388,5.738 58.388,42.606 0,16.784 -13.916,31.13 -42.607,31.13 -15.923,-0.001 -31.99,-4.735 -40.884,-11.622 z"
   id="path8" />
		<path
   fill="#262261"
   d="m 523.431,180.804 c 0,22.381 -16.785,36.296 -43.611,36.296 h -20.227 v 27.687 h -23.24 V 144.368 h 43.468 c 26.825,0 43.61,13.915 43.61,36.436 z m -23.528,0 c 0,-11.046 -7.172,-17.502 -21.374,-17.502 h -18.936 v 34.86 h 18.936 c 14.202,0.001 21.374,-6.455 21.374,-17.358 z"
   id="path10" />
		<path
   fill="#262261"
   d="m 570.898,194.576 c 0,-29.838 23.24,-51.93 54.944,-51.93 31.561,0 54.944,21.949 54.944,51.93 0,29.983 -23.383,51.932 -54.944,51.932 -31.703,10e-4 -54.944,-22.092 -54.944,-51.932 z m 86.361,0 c 0,-19.078 -13.484,-32.134 -31.416,-32.134 -17.932,0 -31.418,13.056 -31.418,32.134 0,19.08 13.486,32.134 31.418,32.134 17.932,0 31.416,-13.054 31.416,-32.134 z"
   id="path12" />
	</g>
	<g
   id="g32">
		<path
   fill="#ee4036"
   d="m 201.38,349.089 h -35.776 l -7.052,16.559 h -13.697 l 32.197,-71.55 h 13.084 l 32.301,71.55 h -13.901 z m -4.396,-10.425 -13.493,-31.278 -13.389,31.278 z"
   id="path16" />
		<path
   fill="#ee4036"
   d="m 231.542,294.098 h 13.288 v 60.307 h 37.411 v 11.243 h -50.699 z"
   id="path18" />
		<path
   fill="#ee4036"
   d="m 292.777,294.098 h 13.288 v 60.307 h 37.411 v 11.243 h -50.699 z"
   id="path20" />
		<path
   fill="#ee4036"
   d="m 354.011,294.098 h 13.288 v 71.55 h -13.288 z"
   id="path22" />
		<path
   fill="#ee4036"
   d="m 433.027,349.089 h -35.776 l -7.052,16.559 h -13.697 l 32.197,-71.55 h 13.084 l 32.301,71.55 h -13.901 z m -4.396,-10.425 -13.493,-31.278 -13.389,31.278 z"
   id="path24" />
		<path
   fill="#ee4036"
   d="m 526.768,294.098 v 71.55 H 515.83 l -39.456,-48.449 v 48.449 h -13.186 v -71.55 h 10.938 l 39.456,48.449 v -48.449 z"
   id="path26" />
		<path
   fill="#ee4036"
   d="m 540.883,329.873 c 0,-21.364 16.355,-36.799 38.332,-36.799 11.652,0 21.669,4.191 28.313,11.961 l -8.586,8.074 c -5.214,-5.622 -11.653,-8.382 -19.115,-8.382 -14.821,0 -25.554,10.427 -25.554,25.146 0,14.719 10.733,25.146 25.554,25.146 7.462,0 13.901,-2.76 19.115,-8.486 l 8.586,8.177 c -6.644,7.768 -16.662,11.959 -28.416,11.959 -21.874,0 -38.229,-15.434 -38.229,-36.796 z"
   id="path28" />
		<path
   fill="#ee4036"
   d="m 673.978,354.506 v 11.142 h -53.664 v -71.55 h 52.232 v 11.14 h -38.944 v 18.604 h 34.549 v 10.938 h -34.549 v 19.727 h 40.376 z"
   id="path30" />
	</g>
</g>
</svg>
