<svg xmlns="http://www.w3.org/2000/svg" xmlns:xlink="http://www.w3.org/1999/xlink" viewBox="0 0 64 64"><defs><style>.cls-1{isolation:isolate;}.cls-2{fill:url(#linear-gradient);}.cls-3{fill:url(#linear-gradient-2);}.cls-4{fill:url(#linear-gradient-3);}.cls-5{fill:url(#linear-gradient-4);}.cls-6{fill:url(#linear-gradient-5);}.cls-7{fill:url(#linear-gradient-6);}.cls-8{fill:url(#linear-gradient-7);}.cls-9{fill:url(#linear-gradient-8);}.cls-10{fill:url(#linear-gradient-9);}.cls-11{fill:url(#linear-gradient-10);}.cls-12{fill:url(#linear-gradient-11);}.cls-13{fill:url(#linear-gradient-12);}.cls-14{fill:url(#linear-gradient-13);}.cls-15{fill:url(#linear-gradient-14);}.cls-16{fill:url(#linear-gradient-15);}.cls-17{fill:url(#linear-gradient-16);}.cls-18{fill:url(#linear-gradient-17);}.cls-19{fill:url(#linear-gradient-18);}.cls-20{fill:url(#linear-gradient-19);}.cls-21{fill:url(#linear-gradient-20);}.cls-22{fill:url(#linear-gradient-21);}.cls-23{fill:url(#linear-gradient-22);}.cls-24{fill:url(#linear-gradient-23);}.cls-25{fill:url(#linear-gradient-24);}.cls-26{fill:url(#linear-gradient-25);}.cls-27{fill:url(#linear-gradient-26);}.cls-28{fill:url(#linear-gradient-27);}.cls-29{fill:url(#linear-gradient-28);}.cls-30{fill:url(#linear-gradient-29);}.cls-31{fill:url(#linear-gradient-30);}.cls-32{fill:url(#linear-gradient-31);}.cls-33{fill:url(#linear-gradient-32);}.cls-34{fill:url(#linear-gradient-33);}.cls-35{fill:url(#linear-gradient-34);}.cls-36{fill:url(#linear-gradient-35);}.cls-37{fill:url(#linear-gradient-36);}.cls-38{fill:url(#linear-gradient-37);}.cls-39{fill:url(#linear-gradient-38);}.cls-40{fill:url(#linear-gradient-39);}.cls-41{fill:url(#linear-gradient-40);}.cls-42{fill:url(#linear-gradient-41);}.cls-43{fill:url(#linear-gradient-42);}.cls-44{fill:url(#linear-gradient-43);}.cls-45{fill:url(#linear-gradient-44);}.cls-46{fill:url(#linear-gradient-45);}.cls-47{fill:url(#linear-gradient-46);}.cls-48{fill:url(#linear-gradient-47);}.cls-49{fill:url(#linear-gradient-48);}.cls-50{fill:url(#linear-gradient-49);}.cls-51{fill:url(#linear-gradient-50);}.cls-52{fill:url(#linear-gradient-51);}.cls-53{fill:url(#linear-gradient-52);}.cls-54{fill:url(#linear-gradient-53);}.cls-55{fill:url(#linear-gradient-54);}.cls-56{fill:url(#linear-gradient-55);}.cls-57{fill:url(#linear-gradient-56);}.cls-58{fill:url(#linear-gradient-57);}.cls-59{fill:url(#linear-gradient-58);}.cls-60{fill:url(#linear-gradient-59);}.cls-61{opacity:0.49;fill:url(#linear-gradient-60);}.cls-61,.cls-64{mix-blend-mode:color-burn;}.cls-62{fill:#f9aa8f;}.cls-63{fill:url(#linear-gradient-61);}.cls-64{stroke:#000;stroke-miterlimit:10;fill:url(#linear-gradient-62);}.cls-65{fill:#063247;}.cls-66{fill:url(#linear-gradient-63);}.cls-67{fill:url(#linear-gradient-64);}.cls-68{fill:#f16c52;}.cls-69{fill:url(#linear-gradient-65);}.cls-70{fill:url(#linear-gradient-66);}.cls-71{fill:#00a887;}.cls-72{fill:url(#linear-gradient-67);}.cls-73{fill:#d37b6a;}.cls-74{fill:url(#linear-gradient-68);}.cls-75{fill:url(#linear-gradient-69);}.cls-76{fill:#f27c1c;}.cls-77{fill:#44180d;}.cls-78{fill:url(#linear-gradient-70);}.cls-79{fill:url(#linear-gradient-71);}.cls-80{fill:url(#linear-gradient-72);}.cls-81{fill:url(#linear-gradient-73);}.cls-82{fill:url(#linear-gradient-74);}.cls-83{fill:#fff;}</style><linearGradient id="linear-gradient" x1="31.65" y1="100.67" x2="31.65" y2="70.99" gradientUnits="userSpaceOnUse"><stop offset="0" stop-color="#caf1d8"/><stop offset="0.51" stop-color="#7defa4"/><stop offset="1" stop-color="#2fbca4"/></linearGradient><linearGradient id="linear-gradient-2" x1="14.18" y1="49.06" x2="14.18" y2="-11.24" xlink:href="#linear-gradient"/><linearGradient id="linear-gradient-3" x1="1519.25" y1="33.76" x2="1519.25" y2="-11.25" gradientTransform="translate(-1504)" xlink:href="#linear-gradient"/><linearGradient id="linear-gradient-4" x1="1515.77" y1="33.76" x2="1515.77" y2="-11.25" gradientTransform="translate(-1504)" xlink:href="#linear-gradient"/><linearGradient id="linear-gradient-5" x1="1525.74" y1="33.76" x2="1525.74" y2="-11.25" gradientTransform="translate(-1504)" xlink:href="#linear-gradient"/><linearGradient id="linear-gradient-6" x1="1515.11" y1="33.76" x2="1515.11" y2="-11.25" gradientTransform="translate(-1504)" xlink:href="#linear-gradient"/><linearGradient id="linear-gradient-7" x1="14.18" y1="43.46" x2="14.18" y2="24.7" xlink:href="#linear-gradient"/><linearGradient id="linear-gradient-8" x1="1513.65" y1="39.36" x2="1513.65" y2="22.21" gradientTransform="translate(-1504)" xlink:href="#linear-gradient"/><linearGradient id="linear-gradient-9" x1="42.93" y1="49.06" x2="42.93" y2="-11.24" xlink:href="#linear-gradient"/><linearGradient id="linear-gradient-10" x1="52.25" y1="35.41" x2="52.25" y2="-3.72" xlink:href="#linear-gradient"/><linearGradient id="linear-gradient-11" x1="1538.58" y1="40.44" x2="1538.58" y2="-14.96" gradientTransform="translate(-1504)" xlink:href="#linear-gradient"/><linearGradient id="linear-gradient-12" x1="1536.47" y1="40.44" x2="1536.47" y2="-14.96" gradientTransform="translate(-1504)" xlink:href="#linear-gradient"/><linearGradient id="linear-gradient-13" x1="1542.48" y1="40.44" x2="1542.48" y2="-14.96" gradientTransform="translate(-1504)" xlink:href="#linear-gradient"/><linearGradient id="linear-gradient-14" x1="1550.59" y1="40.44" x2="1550.59" y2="-14.96" gradientTransform="translate(-1504)" xlink:href="#linear-gradient"/><linearGradient id="linear-gradient-15" x1="1551.8" y1="40.44" x2="1551.8" y2="-14.96" gradientTransform="translate(-1504)" xlink:href="#linear-gradient"/><linearGradient id="linear-gradient-16" x1="1533.85" y1="40.44" x2="1533.85" y2="-14.96" gradientTransform="translate(-1504)" xlink:href="#linear-gradient"/><linearGradient id="linear-gradient-17" x1="53.11" y1="38.94" x2="53.11" y2="20.63" xlink:href="#linear-gradient"/><linearGradient id="linear-gradient-18" x1="42.64" y1="45.94" x2="42.64" y2="15.07" xlink:href="#linear-gradient"/><linearGradient id="linear-gradient-19" x1="2618.44" y1="41.59" x2="2618.44" y2="13.52" gradientTransform="matrix(1, 0, 0, -1, -2565.04, 55.45)" xlink:href="#linear-gradient"/><linearGradient id="linear-gradient-20" x1="2619.61" y1="41.59" x2="2619.61" y2="13.52" gradientTransform="matrix(1, 0, 0, -1, -2567.39, 55.45)" xlink:href="#linear-gradient"/><linearGradient id="linear-gradient-21" x1="2620.79" y1="41.59" x2="2620.79" y2="13.52" gradientTransform="matrix(1, 0, 0, -1, -2569.74, 55.45)" xlink:href="#linear-gradient"/><linearGradient id="linear-gradient-22" x1="2621.96" y1="41.59" x2="2621.96" y2="13.52" gradientTransform="matrix(1, 0, 0, -1, -2572.09, 55.45)" xlink:href="#linear-gradient"/><linearGradient id="linear-gradient-23" x1="2623.14" y1="41.59" x2="2623.14" y2="13.52" gradientTransform="matrix(1, 0, 0, -1, -2574.44, 55.45)" xlink:href="#linear-gradient"/><linearGradient id="linear-gradient-24" x1="2618.44" y1="41.59" x2="2618.44" y2="13.52" gradientTransform="matrix(1, 0, 0, -1, -2565.04, 57.92)" xlink:href="#linear-gradient"/><linearGradient id="linear-gradient-25" x1="2619.61" y1="41.59" x2="2619.61" y2="13.52" gradientTransform="matrix(1, 0, 0, -1, -2567.39, 57.92)" xlink:href="#linear-gradient"/><linearGradient id="linear-gradient-26" x1="2620.79" y1="41.59" x2="2620.79" y2="13.52" gradientTransform="matrix(1, 0, 0, -1, -2569.74, 57.92)" xlink:href="#linear-gradient"/><linearGradient id="linear-gradient-27" x1="2621.96" y1="41.59" x2="2621.96" y2="13.52" gradientTransform="matrix(1, 0, 0, -1, -2572.09, 57.92)" xlink:href="#linear-gradient"/><linearGradient id="linear-gradient-28" x1="2623.14" y1="41.59" x2="2623.14" y2="13.52" gradientTransform="matrix(1, 0, 0, -1, -2574.44, 57.92)" xlink:href="#linear-gradient"/><linearGradient id="linear-gradient-29" x1="2618.44" y1="41.59" x2="2618.44" y2="13.52" gradientTransform="matrix(1, 0, 0, -1, -2565.04, 60.39)" xlink:href="#linear-gradient"/><linearGradient id="linear-gradient-30" x1="2619.61" y1="41.59" x2="2619.61" y2="13.52" gradientTransform="matrix(1, 0, 0, -1, -2567.39, 60.39)" xlink:href="#linear-gradient"/><linearGradient id="linear-gradient-31" x1="2620.79" y1="41.59" x2="2620.79" y2="13.52" gradientTransform="matrix(1, 0, 0, -1, -2569.74, 60.39)" xlink:href="#linear-gradient"/><linearGradient id="linear-gradient-32" x1="2621.96" y1="41.59" x2="2621.96" y2="13.52" gradientTransform="matrix(1, 0, 0, -1, -2572.09, 60.39)" xlink:href="#linear-gradient"/><linearGradient id="linear-gradient-33" x1="2623.14" y1="41.59" x2="2623.14" y2="13.52" gradientTransform="matrix(1, 0, 0, -1, -2574.44, 60.39)" xlink:href="#linear-gradient"/><linearGradient id="linear-gradient-34" x1="2618.44" y1="41.59" x2="2618.44" y2="13.52" gradientTransform="matrix(1, 0, 0, -1, -2565.04, 62.87)" xlink:href="#linear-gradient"/><linearGradient id="linear-gradient-35" x1="2619.61" y1="41.59" x2="2619.61" y2="13.52" gradientTransform="matrix(1, 0, 0, -1, -2567.39, 62.87)" xlink:href="#linear-gradient"/><linearGradient id="linear-gradient-36" x1="2620.79" y1="41.59" x2="2620.79" y2="13.52" gradientTransform="matrix(1, 0, 0, -1, -2569.74, 62.87)" xlink:href="#linear-gradient"/><linearGradient id="linear-gradient-37" x1="2621.96" y1="41.59" x2="2621.96" y2="13.52" gradientTransform="matrix(1, 0, 0, -1, -2572.09, 62.87)" xlink:href="#linear-gradient"/><linearGradient id="linear-gradient-38" x1="2623.14" y1="41.59" x2="2623.14" y2="13.52" gradientTransform="matrix(1, 0, 0, -1, -2574.44, 62.87)" xlink:href="#linear-gradient"/><linearGradient id="linear-gradient-39" x1="2618.44" y1="41.59" x2="2618.44" y2="13.52" gradientTransform="matrix(1, 0, 0, -1, -2565.04, 65.34)" xlink:href="#linear-gradient"/><linearGradient id="linear-gradient-40" x1="2619.61" y1="41.59" x2="2619.61" y2="13.52" gradientTransform="matrix(1, 0, 0, -1, -2567.39, 65.34)" xlink:href="#linear-gradient"/><linearGradient id="linear-gradient-41" x1="2620.79" y1="41.59" x2="2620.79" y2="13.52" gradientTransform="matrix(1, 0, 0, -1, -2569.74, 65.34)" xlink:href="#linear-gradient"/><linearGradient id="linear-gradient-42" x1="2621.96" y1="41.59" x2="2621.96" y2="13.52" gradientTransform="matrix(1, 0, 0, -1, -2572.09, 65.34)" xlink:href="#linear-gradient"/><linearGradient id="linear-gradient-43" x1="2623.14" y1="41.59" x2="2623.14" y2="13.52" gradientTransform="matrix(1, 0, 0, -1, -2574.44, 65.34)" xlink:href="#linear-gradient"/><linearGradient id="linear-gradient-44" x1="2618.44" y1="41.59" x2="2618.44" y2="13.52" gradientTransform="matrix(1, 0, 0, -1, -2565.04, 67.81)" xlink:href="#linear-gradient"/><linearGradient id="linear-gradient-45" x1="2619.61" y1="41.59" x2="2619.61" y2="13.52" gradientTransform="matrix(1, 0, 0, -1, -2567.39, 67.81)" xlink:href="#linear-gradient"/><linearGradient id="linear-gradient-46" x1="2620.79" y1="41.59" x2="2620.79" y2="13.52" gradientTransform="matrix(1, 0, 0, -1, -2569.74, 67.81)" xlink:href="#linear-gradient"/><linearGradient id="linear-gradient-47" x1="2621.96" y1="41.59" x2="2621.96" y2="13.52" gradientTransform="matrix(1, 0, 0, -1, -2572.09, 67.81)" xlink:href="#linear-gradient"/><linearGradient id="linear-gradient-48" x1="2623.14" y1="41.59" x2="2623.14" y2="13.52" gradientTransform="matrix(1, 0, 0, -1, -2574.44, 67.81)" xlink:href="#linear-gradient"/><linearGradient id="linear-gradient-49" x1="2618.44" y1="41.59" x2="2618.44" y2="13.52" gradientTransform="matrix(1, 0, 0, -1, -2565.04, 70.29)" xlink:href="#linear-gradient"/><linearGradient id="linear-gradient-50" x1="2619.61" y1="41.59" x2="2619.61" y2="13.52" gradientTransform="matrix(1, 0, 0, -1, -2567.39, 70.29)" xlink:href="#linear-gradient"/><linearGradient id="linear-gradient-51" x1="2620.79" y1="41.59" x2="2620.79" y2="13.52" gradientTransform="matrix(1, 0, 0, -1, -2569.74, 70.29)" xlink:href="#linear-gradient"/><linearGradient id="linear-gradient-52" x1="2621.96" y1="41.59" x2="2621.96" y2="13.52" gradientTransform="matrix(1, 0, 0, -1, -2572.09, 70.29)" xlink:href="#linear-gradient"/><linearGradient id="linear-gradient-53" x1="2623.14" y1="41.59" x2="2623.14" y2="13.52" gradientTransform="matrix(1, 0, 0, -1, -2574.44, 70.29)" xlink:href="#linear-gradient"/><linearGradient id="linear-gradient-54" x1="2618.44" y1="41.59" x2="2618.44" y2="13.52" gradientTransform="matrix(1, 0, 0, -1, -2565.04, 72.76)" xlink:href="#linear-gradient"/><linearGradient id="linear-gradient-55" x1="2619.61" y1="41.59" x2="2619.61" y2="13.52" gradientTransform="matrix(1, 0, 0, -1, -2567.39, 72.76)" xlink:href="#linear-gradient"/><linearGradient id="linear-gradient-56" x1="2620.79" y1="41.59" x2="2620.79" y2="13.52" gradientTransform="matrix(1, 0, 0, -1, -2569.74, 72.76)" xlink:href="#linear-gradient"/><linearGradient id="linear-gradient-57" x1="2621.96" y1="41.59" x2="2621.96" y2="13.52" gradientTransform="matrix(1, 0, 0, -1, -2572.09, 72.76)" xlink:href="#linear-gradient"/><linearGradient id="linear-gradient-58" x1="2623.14" y1="41.59" x2="2623.14" y2="13.52" gradientTransform="matrix(1, 0, 0, -1, -2574.44, 72.76)" xlink:href="#linear-gradient"/><linearGradient id="linear-gradient-59" x1="2630.55" y1="39.36" x2="2630.55" y2="22.21" gradientTransform="matrix(-1, 0, 0, 1, 2671.83, 0)" xlink:href="#linear-gradient"/><linearGradient id="linear-gradient-60" x1="2611.63" y1="28.38" x2="2611.63" y2="28.06" gradientTransform="matrix(-1, 0, 0, 1, 2671.83, 0)" xlink:href="#linear-gradient"/><linearGradient id="linear-gradient-61" x1="28.86" y1="47.08" x2="30.03" y2="41.15" gradientUnits="userSpaceOnUse"><stop offset="0" stop-color="#f9aa8f"/><stop offset="1" stop-color="#f78e6b"/></linearGradient><linearGradient id="linear-gradient-62" x1="26.82" y1="45.88" x2="26.58" y2="42.83" gradientUnits="userSpaceOnUse"><stop offset="0" stop-color="#fff" stop-opacity="0"/><stop offset="1"/></linearGradient><linearGradient id="linear-gradient-63" x1="12.39" y1="43.31" x2="27.59" y2="43.31" gradientUnits="userSpaceOnUse"><stop offset="0" stop-color="#063247"/><stop offset="0.23" stop-color="#052d40"/><stop offset="1" stop-color="#041f2b"/></linearGradient><linearGradient id="linear-gradient-64" x1="39.98" y1="33.62" x2="61.22" y2="37.16" xlink:href="#linear-gradient-63"/><linearGradient id="linear-gradient-65" x1="54.87" y1="21.6" x2="45.92" y2="2.75" xlink:href="#linear-gradient-61"/><linearGradient id="linear-gradient-66" x1="43.92" y1="20.64" x2="50.59" y2="0.37" xlink:href="#linear-gradient-61"/><linearGradient id="linear-gradient-67" x1="45.69" y1="32.99" x2="74.91" y2="36.6" xlink:href="#linear-gradient-63"/><linearGradient id="linear-gradient-68" x1="6.87" y1="15.34" x2="25.5" y2="18.45" xlink:href="#linear-gradient-61"/><linearGradient id="linear-gradient-69" x1="3.09" y1="33.21" x2="30.85" y2="36.64" xlink:href="#linear-gradient-63"/><linearGradient id="linear-gradient-70" x1="31.11" y1="46.67" x2="32.05" y2="36.25" xlink:href="#linear-gradient-61"/><linearGradient id="linear-gradient-71" x1="11.33" y1="68.5" x2="11.33" y2="35.2" gradientUnits="userSpaceOnUse"><stop offset="0" stop-color="#f16c52"/><stop offset="0.03" stop-color="#f16850"/><stop offset="0.23" stop-color="#ef5140"/><stop offset="0.45" stop-color="#ed4036"/><stop offset="0.7" stop-color="#ec362f"/><stop offset="1" stop-color="#ec332d"/></linearGradient><linearGradient id="linear-gradient-72" x1="6.47" y1="13.5" x2="16.72" y2="15.21" gradientUnits="userSpaceOnUse"><stop offset="0" stop-color="#da4f11"/><stop offset="0.58" stop-color="#ea6c18"/><stop offset="1" stop-color="#f27c1c"/></linearGradient><linearGradient id="linear-gradient-73" x1="31.65" y1="22.75" x2="31.65" y2="-2.5" xlink:href="#linear-gradient-71"/><linearGradient id="linear-gradient-74" x1="32.73" y1="23.88" x2="32.73" y2="6.69" xlink:href="#linear-gradient-71"/></defs><title>agreement</title><g class="cls-1"><g id="Layer_1" data-name="Layer 1"><circle class="cls-2" cx="31.65" cy="32" r="28"/><path class="cls-3" d="M22.93,16H8.69a28,28,0,0,0-4,23.65h20V17.75A1.78,1.78,0,0,0,22.93,16Z"/><path class="cls-4" d="M6.64,25.78A18,18,0,0,0,12,26c2-.41,3,.44,4.32-.14a2.34,2.34,0,0,1,2.84.74c.37.55,1.37,0,2.12.49a6.24,6.24,0,0,0,2.61.45S18.18,29.35,6.64,25.78Z"/><path class="cls-5" d="M7,21.68a8.22,8.22,0,0,0,3,.16c1.13-.28,1.65.31,2.43-.09a1.12,1.12,0,0,1,1.55.51c.18.38.77,0,1.16.34a2.83,2.83,0,0,0,1.44.31S13.26,24.13,7,21.68Z"/><path class="cls-6" d="M24.51,23.67s-3.78.62-5.54-.15A4.43,4.43,0,0,0,20.49,23a1.61,1.61,0,0,1,1.78,0c.39.38.58-.29,1,.07A4.73,4.73,0,0,0,24.51,23.67Z"/><path class="cls-7" d="M12.26,19.08a6.85,6.85,0,0,1-2.3-.55,2.39,2.39,0,0,0,.7,0,.81.81,0,0,1,.75.15c.12.16.28,0,.42.12A1.92,1.92,0,0,0,12.26,19.08Z"/><path class="cls-8" d="M20.17,27H16.81A3.08,3.08,0,0,0,13.74,30v1.83H10.39a.61.61,0,0,0-.61.61v3H5.56V34.32A.55.55,0,0,0,5,33.77H3.8V29a28.3,28.3,0,0,0-.16,3A28,28,0,0,0,4.7,39.62h20V34.89H20.17Z"/><path class="cls-9" d="M10.39,31.88a.61.61,0,0,0-.61.61v3H5.56v.15a2.68,2.68,0,0,0,2.68,2.73h1.82V37.23h3.68V31.88Z"/><path class="cls-10" d="M59.65,32a27.86,27.86,0,0,0-5-16H28a1.78,1.78,0,0,0-1.78,1.78V39.62H58.59A28,28,0,0,0,59.65,32Z"/><path class="cls-11" d="M56.95,20c-.3-.64-.64-1.26-1-1.88a2.38,2.38,0,0,0-.49.52C54.55,20,51.36,22,47.56,23.31,47.56,23.31,51.63,22.15,56.95,20Z"/><path class="cls-12" d="M43.19,25.78a18,18,0,0,1-5.33.22c-2-.41-3,.44-4.32-.14a2.34,2.34,0,0,0-2.84.74c-.37.55-1.37,0-2.12.49a6.24,6.24,0,0,1-2.61.45S31.65,29.35,43.19,25.78Z"/><path class="cls-13" d="M37.25,22.48a8.22,8.22,0,0,1-3,.16c-1.13-.28-1.65.31-2.43-.09a1.12,1.12,0,0,0-1.55.51c-.18.38-.77,0-1.16.34a2.83,2.83,0,0,1-1.44.31S31,24.93,37.25,22.48Z"/><path class="cls-14" d="M35.78,19.32s3.83-.13,5.4-1.23a4.43,4.43,0,0,1-1.59-.21,1.61,1.61,0,0,0-1.75.31c-.31.45-.62-.17-1,.27A4.73,4.73,0,0,1,35.78,19.32Z"/><path class="cls-15" d="M48.18,18.63a9.37,9.37,0,0,1-3.2.53,3.27,3.27,0,0,0,.86-.42,1.11,1.11,0,0,1,1-.21c.23.14.32-.21.59-.08A2.62,2.62,0,0,0,48.18,18.63Z"/><path class="cls-16" d="M49.39,25a9.37,9.37,0,0,1-3.2.53,3.27,3.27,0,0,0,.86-.42,1.11,1.11,0,0,1,1-.21c.23.14.32-.21.59-.08A2.62,2.62,0,0,0,49.39,25Z"/><path class="cls-17" d="M28.67,17.81A6.85,6.85,0,0,0,31,17.69a2.39,2.39,0,0,1-.68-.17.81.81,0,0,0-.77,0c-.15.14-.26-.1-.43,0A1.92,1.92,0,0,1,28.67,17.81Z"/><path class="cls-18" d="M59.65,32a28.17,28.17,0,0,0-.38-4.61,1.73,1.73,0,0,0-1.66,1.72v2.66H56.37v4H46.93l-.35,3.84h12A28,28,0,0,0,59.65,32Z"/><path class="cls-19" d="M59.06,37.72H55.13V27.06a.53.53,0,0,0-.53-.53H47.67a.53.53,0,0,0-.53.53v6.71h-1.2a.55.55,0,0,0-.55.55v1.15H41.15v-3a.61.61,0,0,0-.61-.61H37.2v-6.7a6.38,6.38,0,0,0-6.38-6.38h-.05V34.89H26.22v4.73H58.59C58.76,39,58.93,38.36,59.06,37.72Z"/><rect class="cls-20" x="53.06" y="27.38" width="0.68" height="0.68" rx="0.05" ry="0.05" transform="translate(106.79 55.45) rotate(-180)"/><rect class="cls-21" x="51.88" y="27.38" width="0.68" height="0.68" rx="0.05" ry="0.05" transform="translate(104.44 55.45) rotate(-180)"/><rect class="cls-22" x="50.71" y="27.38" width="0.68" height="0.68" rx="0.05" ry="0.05" transform="translate(102.09 55.45) rotate(-180)"/><rect class="cls-23" x="49.53" y="27.38" width="0.68" height="0.68" rx="0.05" ry="0.05" transform="translate(99.75 55.45) rotate(-180)"/><rect class="cls-24" x="48.36" y="27.38" width="0.68" height="0.68" rx="0.05" ry="0.05" transform="translate(97.4 55.45) rotate(-180)"/><rect class="cls-25" x="53.06" y="28.62" width="0.68" height="0.68" rx="0.05" ry="0.05" transform="translate(106.79 57.92) rotate(-180)"/><rect class="cls-26" x="51.88" y="28.62" width="0.68" height="0.68" rx="0.05" ry="0.05" transform="translate(104.44 57.92) rotate(-180)"/><rect class="cls-27" x="50.71" y="28.62" width="0.68" height="0.68" rx="0.05" ry="0.05" transform="translate(102.09 57.92) rotate(-180)"/><rect class="cls-28" x="49.53" y="28.62" width="0.68" height="0.68" rx="0.05" ry="0.05" transform="translate(99.75 57.92) rotate(-180)"/><rect class="cls-29" x="48.36" y="28.62" width="0.68" height="0.68" rx="0.05" ry="0.05" transform="translate(97.4 57.92) rotate(-180)"/><rect class="cls-30" x="53.06" y="29.86" width="0.68" height="0.68" rx="0.05" ry="0.05" transform="translate(106.79 60.39) rotate(-180)"/><rect class="cls-31" x="51.88" y="29.86" width="0.68" height="0.68" rx="0.05" ry="0.05" transform="translate(104.44 60.39) rotate(-180)"/><rect class="cls-32" x="50.71" y="29.86" width="0.68" height="0.68" rx="0.05" ry="0.05" transform="translate(102.09 60.39) rotate(-180)"/><rect class="cls-33" x="49.53" y="29.86" width="0.68" height="0.68" rx="0.05" ry="0.05" transform="translate(99.75 60.39) rotate(-180)"/><rect class="cls-34" x="48.36" y="29.86" width="0.68" height="0.68" rx="0.05" ry="0.05" transform="translate(97.4 60.39) rotate(-180)"/><rect class="cls-35" x="53.06" y="31.09" width="0.68" height="0.68" rx="0.05" ry="0.05" transform="translate(106.79 62.87) rotate(-180)"/><rect class="cls-36" x="51.88" y="31.09" width="0.68" height="0.68" rx="0.05" ry="0.05" transform="translate(104.44 62.87) rotate(-180)"/><rect class="cls-37" x="50.71" y="31.09" width="0.68" height="0.68" rx="0.05" ry="0.05" transform="translate(102.09 62.87) rotate(-180)"/><rect class="cls-38" x="49.53" y="31.09" width="0.68" height="0.68" rx="0.05" ry="0.05" transform="translate(99.75 62.87) rotate(-180)"/><rect class="cls-39" x="48.36" y="31.09" width="0.68" height="0.68" rx="0.05" ry="0.05" transform="translate(97.4 62.87) rotate(-180)"/><rect class="cls-40" x="53.06" y="32.33" width="0.68" height="0.68" rx="0.05" ry="0.05" transform="translate(106.79 65.34) rotate(-180)"/><rect class="cls-41" x="51.88" y="32.33" width="0.68" height="0.68" rx="0.05" ry="0.05" transform="translate(104.44 65.34) rotate(-180)"/><rect class="cls-42" x="50.71" y="32.33" width="0.68" height="0.68" rx="0.05" ry="0.05" transform="translate(102.09 65.34) rotate(-180)"/><rect class="cls-43" x="49.53" y="32.33" width="0.68" height="0.68" rx="0.05" ry="0.05" transform="translate(99.75 65.34) rotate(-180)"/><rect class="cls-44" x="48.36" y="32.33" width="0.68" height="0.68" rx="0.05" ry="0.05" transform="translate(97.4 65.34) rotate(-180)"/><rect class="cls-45" x="53.06" y="33.57" width="0.68" height="0.68" rx="0.05" ry="0.05" transform="translate(106.79 67.81) rotate(-180)"/><rect class="cls-46" x="51.88" y="33.57" width="0.68" height="0.68" rx="0.05" ry="0.05" transform="translate(104.44 67.81) rotate(-180)"/><rect class="cls-47" x="50.71" y="33.57" width="0.68" height="0.68" rx="0.05" ry="0.05" transform="translate(102.09 67.81) rotate(-180)"/><rect class="cls-48" x="49.53" y="33.57" width="0.68" height="0.68" rx="0.05" ry="0.05" transform="translate(99.75 67.81) rotate(-180)"/><rect class="cls-49" x="48.36" y="33.57" width="0.68" height="0.68" rx="0.05" ry="0.05" transform="translate(97.4 67.81) rotate(-180)"/><rect class="cls-50" x="53.06" y="34.8" width="0.68" height="0.68" rx="0.05" ry="0.05" transform="translate(106.79 70.29) rotate(-180)"/><rect class="cls-51" x="51.88" y="34.8" width="0.68" height="0.68" rx="0.05" ry="0.05" transform="translate(104.44 70.29) rotate(-180)"/><rect class="cls-52" x="50.71" y="34.8" width="0.68" height="0.68" rx="0.05" ry="0.05" transform="translate(102.09 70.29) rotate(-180)"/><rect class="cls-53" x="49.53" y="34.8" width="0.68" height="0.68" rx="0.05" ry="0.05" transform="translate(99.75 70.29) rotate(-180)"/><rect class="cls-54" x="48.36" y="34.8" width="0.68" height="0.68" rx="0.05" ry="0.05" transform="translate(97.4 70.29) rotate(-180)"/><rect class="cls-55" x="53.06" y="36.04" width="0.68" height="0.68" rx="0.05" ry="0.05" transform="translate(106.79 72.76) rotate(-180)"/><rect class="cls-56" x="51.88" y="36.04" width="0.68" height="0.68" rx="0.05" ry="0.05" transform="translate(104.44 72.76) rotate(-180)"/><rect class="cls-57" x="50.71" y="36.04" width="0.68" height="0.68" rx="0.05" ry="0.05" transform="translate(102.09 72.76) rotate(-180)"/><rect class="cls-58" x="49.53" y="36.04" width="0.68" height="0.68" rx="0.05" ry="0.05" transform="translate(99.75 72.76) rotate(-180)"/><rect class="cls-59" x="48.36" y="36.04" width="0.68" height="0.68" rx="0.05" ry="0.05" transform="translate(97.4 72.76) rotate(-180)"/><path class="cls-60" d="M40.54,31.88a.61.61,0,0,1,.61.61v3h4.22v.15a2.68,2.68,0,0,1-2.68,2.73H40.88V37.23H37.2V31.88Z"/><path class="cls-61" d="M60.34,28.21s0,.07-.11.12h-.07a.23.23,0,0,1-.12-.07A.9.9,0,0,1,60.34,28.21Z"/><path class="cls-62" d="M27.59,45.45s3.84-.32,5.19-1.09S27,42.77,27,42.77l-.89.22"/><path class="cls-63" d="M27.59,45.45s3.84-.32,5.19-1.09S27,42.77,27,42.77l-.89.22"/><line class="cls-64" x1="27.03" y1="42.77" x2="26.14" y2="42.99"/><path class="cls-65" d="M12.39,40.37l2.4,5.74s9,.58,12.81-.66L26.69,43"/><path class="cls-66" d="M12.39,40.37l2.4,5.74s9,.58,12.81-.66L26.69,43"/><path class="cls-65" d="M54.45,22.94s-7.15-3.12-7.81,5.73c-1,13.33-10.87,13.5-13.3,13.08V44.2s20.68,3,22.49-16C55.84,28.15,56.18,22.6,54.45,22.94Z"/><path class="cls-67" d="M37,44.36c3.24-.07,8-.72,12-3.47l-.67-17.11a7.78,7.78,0,0,0-1.72,4.89c-.49,6.64-3.19,10-6.08,11.68h0C41.25,44,37.12,44.36,37,44.36Z"/><path class="cls-68" d="M14.79,46.11H7.46a28.13,28.13,0,0,0,8,8.74A85.43,85.43,0,0,0,14.79,46.11Z"/><path class="cls-62" d="M54.5,16.16,54.33,16A5.61,5.61,0,0,1,53,11.65L53.45,7s-2-2.49-7,0c-1.15.58-2.47,3.71-2.51,5.49,0,.48.17.68.4.75a.79.79,0,0,1,.52.61c.07.36.16.8.21,1.11.13.81.28,1.52.71,1.61a7.19,7.19,0,0,0,2.54-.24,1.1,1.1,0,0,1,1.33.86c.23,1.28-1.12,3.14-1.12,3.14a30.83,30.83,0,0,1,4-1.62C53.35,18.59,55.26,17,54.5,16.16Z"/><path class="cls-69" d="M48.43,16.34a5,5,0,0,0,2.13-1.42c1.48-1.43,1.24,1.74.1,2.89-.54.55-.29,1.09.13,1.52a10.27,10.27,0,0,1,1.67-.59c.88-.15,2.8-1.78,2-2.58L54.33,16A5.61,5.61,0,0,1,53,11.65l.23-2.18L52.1,8.21h-2l-.85,1,.57,4.17-1.56,3Z"/><path class="cls-70" d="M49.38,12.11l-.28-2-.66-1.15-1.51-.85L46,7.57H45.8a7,7,0,0,0-.93,1.51.84.84,0,0,0,.5.49c.4.1-.64,1.48-.71,2.85,0,.66-.15.86-.27.9a.76.76,0,0,1,.37.37,2.74,2.74,0,0,0,.52-.08v-.36s.19-3.51,2-2.14.22,3.42-.78,2.8-.2,2.2-.13,2.18l1.81-.71.62-.78Z"/><path class="cls-71" d="M53.87,46.38l-7.51.12s-.7,3.89-1.22,10A28.13,28.13,0,0,0,53.88,49C53.88,48.14,53.89,47.26,53.87,46.38Z"/><path class="cls-65" d="M53.64,15.69a12.85,12.85,0,0,0-6.48,7.74c-.77,2.84-.42,7.6-.62,13.05-.1,2.67,0,5-.55,9.89a67.38,67.38,0,0,0-.71,7.1,2.84,2.84,0,0,0,1.17,2.28A28,28,0,0,0,59.65,32c0-.33,0-.65,0-1-.8-6.07-2.39-12-5.48-15.25A.43.43,0,0,0,53.64,15.69Z"/><path class="cls-72" d="M53.64,15.69a12.85,12.85,0,0,0-6.48,7.74,10.78,10.78,0,0,0-.23,1.13,6,6,0,0,1,5.77,5.68c.65,5.61,3,11.62.12,16.15C50.53,50,50.6,50.65,51.21,52a27.91,27.91,0,0,0,8.44-20c0-.33,0-.65,0-1-.8-6.07-2.39-12-5.48-15.25A.43.43,0,0,0,53.64,15.69Z"/><path id="_Path_" data-name="&lt;Path&gt;" class="cls-73" d="M10,13S9.31,10.8,8.3,11.17c-1.33.49-.52,2-.29,2.68S9.85,14.64,10,13Z"/><path class="cls-62" d="M7.3,18.17v.1a4.25,4.25,0,0,1-1.55,3.38c-.08.06-.14.14-.21.21q-.2.52-.38,1l8,6.12-1.32-7.88a.71.71,0,0,1,.75-1,4.24,4.24,0,0,0,1.31,0c.41-.08.56-.77.68-1.54.05-.33.15-.84.23-1.2a.93.93,0,0,1,.48-.62.81.81,0,0,0,.47-.89c0-1.68-.33-5.35-1.4-6A28.13,28.13,0,0,0,7.3,18.17Z"/><path class="cls-74" d="M15,13.24a.86.86,0,0,0,.54-.45c-.21-1.34-.57-2.56-1.17-2.86-.24-.12-.47-.22-.7-.31l-1,.07L6.57,11.13l.63,6h0l.12,1.14a4.25,4.25,0,0,1-1.4,3.25l.34.58s2.92-.76,3.34-1.65c.3-.65,2.36-.48,3.46-.34a2.38,2.38,0,0,1-1.56-1.28c-.68-1.43.83-4.61,2.26-4.35s.94,3.79.94,3.79h0c.05-.28.11-.58.17-.82a.93.93,0,0,1,.48-.62.85.85,0,0,0,.35-.31h0s-.93.23-.71-.37S14.54,13.37,15,13.24Z"/><path class="cls-65" d="M12.18,23.24,6.7,20.4a.77.77,0,0,0-.51-.06A28,28,0,0,0,7.46,46.11h7.32s2.53-12.46-1.63-21.87A2.09,2.09,0,0,0,12.18,23.24Z"/><path class="cls-75" d="M15.28,42.59,11,24.2,5.64,21.62a28,28,0,0,0,1.55,24,3.49,3.49,0,0,0,1.5-1c1.15-1.46-3.49-.68-2.51-2.6S15.28,42.59,15.28,42.59Z"/><path class="cls-76" d="M15.37,11l.28.63c.13.29.07.93-2.43,1.26-2.29.31-2.73,1.18-2.78,1.69A.43.43,0,0,1,10,15h0a.42.42,0,0,1-.4-.29,1.45,1.45,0,0,0-.85-.92c-.86-.35-1.38,1.56-.3,2.36s-1.15,2.13-1.15,2.13L6.38,11A1.13,1.13,0,0,1,7,9.8C8.92,9,13.77,7.24,15.37,11Z"/><path class="cls-65" d="M6.77,22.94s6.53-.58,8.26,8.12c2.15,10.83,10.41,11.11,12.84,10.69V44.2s-20.68,3-22.49-16C5.38,28.15,5,22.6,6.77,22.94Z"/><path class="cls-77" d="M44.4,13.31s.33,2.32-.33,3.07,3,.57,4.33,0,2.07-3.27,1.78-5.17,1.87-1.93,1.59,0S53,13,53,13a23.92,23.92,0,0,1,.73-5.33c.7-2.55-6.9-3.46-8.43-1.51s1.07,3.69,3.12,4.39a1.14,1.14,0,0,1,.74.82,2.9,2.9,0,0,1-.76,2.6C46.87,15.76,46.59,12.61,44.4,13.31Z"/><path class="cls-62" d="M27.87,41.75s2.15-1.28,2.78-.69,3.05,1.67,3.19,2.29-1.18,1.42-2.5,1.25a32,32,0,0,0-3.47-.41C27.42,44.25,27.59,41.91,27.87,41.75Z"/><path class="cls-78" d="M28.88,44.26h0c.72.09,1.66.23,2.47.34,1.32.17,2.64-.62,2.5-1.25-.08-.37-1-.89-1.79-1.38l-1.73-.53-.75,1S30.72,44.15,28.88,44.26Z"/><path class="cls-62" d="M33.35,41.75s-1.07-1.09-1.92-.62-2,.71-1.86.92,1.75,0,1.75,0,1.08,1.45,2,.74Z"/><path class="cls-65" d="M55.26,17a1.39,1.39,0,0,0-2.07-.09s-4.5,4.83.69,16.33a42,42,0,0,1,3.27,10.34A28,28,0,0,0,55.26,17Z"/><path class="cls-79" d="M7.46,46.11a28.11,28.11,0,0,0,4.75,6,3.82,3.82,0,0,1,3-2.17c-.11-1.49-.25-2.81-.41-3.88Z"/><path class="cls-80" d="M9.82,13c1-.24,2.19-1.51-1.2-2.1-3.13-.54-.49-1.51-.06-1.65A15.56,15.56,0,0,0,7,9.8,1.13,1.13,0,0,0,6.38,11l.93,7.29s2.23-1.33,1.15-2.13-.56-2.71.3-2.36a1.45,1.45,0,0,1,.85.92.42.42,0,0,0,.83-.1,1.54,1.54,0,0,1,1-1.2h0C10.61,13.71,8.87,13.21,9.82,13Z"/><circle class="cls-81" cx="31.65" cy="18.71" r="7.58"/><path class="cls-82" d="M26.22,24a7.58,7.58,0,0,0,12.49-8H28a1.78,1.78,0,0,0-1.78,1.78Z"/><path class="cls-83" d="M29.56,21.25,28,19.67a.55.55,0,0,1,0-.78l.78-.78a.55.55,0,0,1,.78,0l.84.84a.24.24,0,0,0,.35,0l3-3a.55.55,0,0,1,.78,0l.78.78a.55.55,0,0,1,0,.78l-3.76,3.76A1.41,1.41,0,0,1,29.56,21.25Z"/></g></g></svg>