<svg xmlns="http://www.w3.org/2000/svg" xmlns:xlink="http://www.w3.org/1999/xlink" viewBox="0 0 64 64"><defs><style>.cls-1{isolation:isolate;}.cls-2{fill:url(#linear-gradient);}.cls-3{fill:url(#linear-gradient-2);}.cls-4{fill:url(#linear-gradient-3);}.cls-5{fill:url(#linear-gradient-4);}.cls-6{fill:url(#linear-gradient-5);}.cls-7{fill:url(#linear-gradient-6);}.cls-8{fill:url(#linear-gradient-7);}.cls-9{fill:url(#linear-gradient-8);}.cls-10{fill:url(#linear-gradient-9);}.cls-11{fill:url(#linear-gradient-10);}.cls-12{fill:url(#linear-gradient-11);}.cls-13{fill:url(#linear-gradient-12);}.cls-14{fill:url(#linear-gradient-13);}.cls-15{fill:url(#linear-gradient-14);}.cls-16{fill:url(#linear-gradient-15);}.cls-17{fill:url(#linear-gradient-16);}.cls-18{fill:url(#linear-gradient-17);}.cls-19{fill:url(#linear-gradient-18);}.cls-20{fill:url(#linear-gradient-19);}.cls-21{fill:url(#linear-gradient-20);}.cls-22{fill:url(#linear-gradient-21);}.cls-23{fill:url(#linear-gradient-22);}.cls-24{fill:url(#linear-gradient-23);}.cls-25{fill:url(#linear-gradient-24);}.cls-26{fill:url(#linear-gradient-60);}.cls-27,.cls-40,.cls-42{opacity:0.49;}.cls-27,.cls-40{mix-blend-mode:color-burn;}.cls-27{fill:url(#linear-gradient-61);}.cls-28{fill:url(#linear-gradient-62);}.cls-29{fill:url(#linear-gradient-63);}.cls-30{fill:#0a3147;}.cls-31{fill:url(#linear-gradient-64);}.cls-32{fill:url(#linear-gradient-65);}.cls-33{fill:#00598a;}.cls-34{fill:url(#linear-gradient-66);}.cls-35{fill:url(#linear-gradient-67);}.cls-36{fill:url(#linear-gradient-68);}.cls-37{fill:#dfdfdf;}.cls-38{fill:#0a4166;}.cls-39{fill:#fff;}.cls-40{fill:url(#linear-gradient-69);}.cls-41{fill:url(#linear-gradient-70);}.cls-43{fill:url(#linear-gradient-71);}.cls-44{fill:url(#linear-gradient-72);}.cls-45{fill:#f9aa8f;}.cls-46{fill:#2f5c63;}.cls-47{fill:url(#linear-gradient-73);}.cls-48{fill:#071c2a;}.cls-49{fill:url(#linear-gradient-74);}.cls-50{fill:url(#linear-gradient-75);}.cls-51{fill:url(#linear-gradient-76);}.cls-52{fill:url(#linear-gradient-77);}.cls-53{fill:url(#linear-gradient-78);}</style><linearGradient id="linear-gradient" x1="32.24" y1="97.25" x2="32.24" y2="9.14" gradientUnits="userSpaceOnUse"><stop offset="0.02" stop-color="#97efe7"/><stop offset="0.52" stop-color="#3db6d3"/><stop offset="1" stop-color="#3d6fd3"/></linearGradient><linearGradient id="linear-gradient-2" x1="49.71" y1="49.06" x2="49.71" y2="-11.24" xlink:href="#linear-gradient"/><linearGradient id="linear-gradient-3" x1="573.36" y1="33.76" x2="573.36" y2="-11.25" gradientTransform="matrix(-1, 0, 0, 1, 622, 0)" xlink:href="#linear-gradient"/><linearGradient id="linear-gradient-4" x1="569.88" y1="33.76" x2="569.88" y2="-11.25" gradientTransform="matrix(-1, 0, 0, 1, 622, 0)" xlink:href="#linear-gradient"/><linearGradient id="linear-gradient-5" x1="579.85" y1="33.76" x2="579.85" y2="-11.25" gradientTransform="matrix(-1, 0, 0, 1, 622, 0)" xlink:href="#linear-gradient"/><linearGradient id="linear-gradient-6" x1="569.22" y1="33.76" x2="569.22" y2="-11.25" gradientTransform="matrix(-1, 0, 0, 1, 622, 0)" xlink:href="#linear-gradient"/><linearGradient id="linear-gradient-7" x1="49.71" y1="43.46" x2="49.71" y2="24.7" xlink:href="#linear-gradient"/><linearGradient id="linear-gradient-8" x1="567.76" y1="39.36" x2="567.76" y2="22.21" gradientTransform="matrix(-1, 0, 0, 1, 622, 0)" xlink:href="#linear-gradient"/><linearGradient id="linear-gradient-9" x1="20.96" y1="49.06" x2="20.96" y2="-11.24" xlink:href="#linear-gradient"/><linearGradient id="linear-gradient-10" x1="11.64" y1="35.4" x2="11.64" y2="-3.69" xlink:href="#linear-gradient"/><linearGradient id="linear-gradient-11" x1="8.37" y1="32.49" x2="8.37" y2="5.75" xlink:href="#linear-gradient"/><linearGradient id="linear-gradient-12" x1="592.69" y1="40.44" x2="592.69" y2="-14.96" gradientTransform="matrix(-1, 0, 0, 1, 622, 0)" xlink:href="#linear-gradient"/><linearGradient id="linear-gradient-13" x1="590.58" y1="40.44" x2="590.58" y2="-14.96" gradientTransform="matrix(-1, 0, 0, 1, 622, 0)" xlink:href="#linear-gradient"/><linearGradient id="linear-gradient-14" x1="596.59" y1="40.44" x2="596.59" y2="-14.96" gradientTransform="matrix(-1, 0, 0, 1, 622, 0)" xlink:href="#linear-gradient"/><linearGradient id="linear-gradient-15" x1="604.7" y1="40.44" x2="604.7" y2="-14.96" gradientTransform="matrix(-1, 0, 0, 1, 622, 0)" xlink:href="#linear-gradient"/><linearGradient id="linear-gradient-16" x1="605.91" y1="40.44" x2="605.91" y2="-14.96" gradientTransform="matrix(-1, 0, 0, 1, 622, 0)" xlink:href="#linear-gradient"/><linearGradient id="linear-gradient-17" x1="587.96" y1="40.44" x2="587.96" y2="-14.96" gradientTransform="matrix(-1, 0, 0, 1, 622, 0)" xlink:href="#linear-gradient"/><linearGradient id="linear-gradient-18" x1="10.78" y1="38.94" x2="10.78" y2="20.63" xlink:href="#linear-gradient"/><linearGradient id="linear-gradient-19" x1="21.25" y1="45.94" x2="21.25" y2="15.07" xlink:href="#linear-gradient"/><linearGradient id="linear-gradient-20" x1="3756.33" y1="41.59" x2="3756.33" y2="13.52" gradientTransform="translate(-3745.83)" xlink:href="#linear-gradient"/><linearGradient id="linear-gradient-21" x1="3757.5" y1="41.59" x2="3757.5" y2="13.52" gradientTransform="translate(-3745.83)" xlink:href="#linear-gradient"/><linearGradient id="linear-gradient-22" x1="3758.68" y1="41.59" x2="3758.68" y2="13.52" gradientTransform="translate(-3745.83)" xlink:href="#linear-gradient"/><linearGradient id="linear-gradient-23" x1="3759.85" y1="41.59" x2="3759.85" y2="13.52" gradientTransform="translate(-3745.83)" xlink:href="#linear-gradient"/><linearGradient id="linear-gradient-24" x1="3761.03" y1="41.59" x2="3761.03" y2="13.52" gradientTransform="translate(-3745.83)" xlink:href="#linear-gradient"/><linearGradient id="linear-gradient-60" x1="3768.44" y1="39.36" x2="3768.44" y2="22.21" gradientTransform="translate(-3745.83)" xlink:href="#linear-gradient"/><linearGradient id="linear-gradient-61" x1="3749.52" y1="28.38" x2="3749.52" y2="28.06" gradientTransform="translate(-3745.83)" xlink:href="#linear-gradient"/><linearGradient id="linear-gradient-62" x1="38.24" y1="9.84" x2="38.24" y2="-1.39" xlink:href="#linear-gradient"/><linearGradient id="linear-gradient-63" x1="38.24" y1="18.63" x2="38.24" y2="-4.89" xlink:href="#linear-gradient"/><linearGradient id="linear-gradient-64" x1="12.32" y1="40.46" x2="12.28" y2="40.44" gradientUnits="userSpaceOnUse"><stop offset="0" stop-color="#00598a"/><stop offset="1" stop-color="#074469"/></linearGradient><linearGradient id="linear-gradient-65" x1="24.91" y1="49.49" x2="19.35" y2="47.45" xlink:href="#linear-gradient-64"/><linearGradient id="linear-gradient-66" x1="17.53" y1="52.88" x2="15.51" y2="30.75" xlink:href="#linear-gradient-64"/><linearGradient id="linear-gradient-67" x1="36.09" y1="26.04" x2="15.99" y2="26.04" gradientUnits="userSpaceOnUse"><stop offset="0" stop-color="#2f5c63"/><stop offset="0.37" stop-color="#2e5a61"/><stop offset="0.58" stop-color="#2a5259"/><stop offset="0.75" stop-color="#24454b"/><stop offset="0.9" stop-color="#1b3337"/><stop offset="1" stop-color="#122124"/></linearGradient><linearGradient id="linear-gradient-68" x1="29.82" y1="26.04" x2="18.65" y2="26.04" gradientUnits="userSpaceOnUse"><stop offset="0" stop-color="#2f5c63"/><stop offset="1" stop-color="#26494f"/></linearGradient><linearGradient id="linear-gradient-69" x1="52.91" y1="36.14" x2="54.78" y2="25.38" gradientUnits="userSpaceOnUse"><stop offset="0" stop-color="#fff" stop-opacity="0"/><stop offset="1"/></linearGradient><linearGradient id="linear-gradient-70" x1="33.47" y1="60.23" x2="27.22" y2="26.11" gradientUnits="userSpaceOnUse"><stop offset="0.02" stop-color="#edd7ad"/><stop offset="0.52" stop-color="#ff9661"/><stop offset="1" stop-color="#e74a69"/></linearGradient><linearGradient id="linear-gradient-71" x1="8.72" y1="50.58" x2="12.06" y2="39.17" xlink:href="#linear-gradient-70"/><linearGradient id="linear-gradient-72" x1="33.88" y1="54.35" x2="34.76" y2="29.98" xlink:href="#linear-gradient-70"/><linearGradient id="linear-gradient-73" x1="32.08" y1="14.29" x2="15.58" y2="6.98" gradientUnits="userSpaceOnUse"><stop offset="0" stop-color="#f78e6b"/><stop offset="1" stop-color="#f9aa8f"/></linearGradient><linearGradient id="linear-gradient-74" x1="29.19" y1="12.47" x2="26.45" y2="11.26" xlink:href="#linear-gradient-73"/><linearGradient id="linear-gradient-75" x1="10.42" y1="40.11" x2="16.67" y2="16.57" xlink:href="#linear-gradient-68"/><linearGradient id="linear-gradient-76" x1="60.38" y1="71.98" x2="49.63" y2="49.23" xlink:href="#linear-gradient"/><linearGradient id="linear-gradient-77" x1="24.98" y1="24.52" x2="34.38" y2="33.92" xlink:href="#linear-gradient"/><linearGradient id="linear-gradient-78" x1="49.58" y1="69.75" x2="49.58" y2="23.57" xlink:href="#linear-gradient"/></defs><title>deadline</title><g class="cls-1"><g id="Layer_1" data-name="Layer 1"><circle class="cls-2" cx="32.24" cy="32" r="28"/><path class="cls-3" d="M60.24,32a27.86,27.86,0,0,0-5-16H41a1.78,1.78,0,0,0-1.78,1.78V39.62h20A28,28,0,0,0,60.24,32Z"/><path class="cls-4" d="M57.25,25.78a18,18,0,0,1-5.33.22c-2-.41-3,.44-4.32-.14a2.34,2.34,0,0,0-2.84.74c-.37.55-1.37,0-2.12.49a6.24,6.24,0,0,1-2.61.45S45.71,29.35,57.25,25.78Z"/><path class="cls-5" d="M56.9,21.68a8.22,8.22,0,0,1-3,.16c-1.13-.28-1.65.31-2.43-.09a1.12,1.12,0,0,0-1.55.51c-.18.38-.77,0-1.16.34a2.83,2.83,0,0,1-1.44.31S50.63,24.13,56.9,21.68Z"/><path class="cls-6" d="M39.38,23.67s3.78.62,5.54-.15A4.43,4.43,0,0,1,43.4,23a1.61,1.61,0,0,0-1.78,0c-.39.38-.58-.29-1,.07A4.73,4.73,0,0,1,39.38,23.67Z"/><path class="cls-7" d="M51.63,19.08a6.85,6.85,0,0,0,2.3-.55,2.39,2.39,0,0,1-.7,0,.81.81,0,0,0-.75.15c-.12.16-.28,0-.42.12A1.92,1.92,0,0,1,51.63,19.08Z"/><path class="cls-8" d="M60.09,29.2v4.57h-1.2a.55.55,0,0,0-.55.55v1.15H54.11v-3a.61.61,0,0,0-.61-.61H50.15V30A3.08,3.08,0,0,0,47.08,27H43.72v7.92H39.18v4.73h20A28,28,0,0,0,60.24,32C60.24,31.05,60.18,30.12,60.09,29.2Z"/><path class="cls-9" d="M53.5,31.88a.61.61,0,0,1,.61.61v3h4.22v.15a2.68,2.68,0,0,1-2.68,2.73H53.83V37.23H50.15V31.88Z"/><path class="cls-10" d="M35.89,16H9.29a28,28,0,0,0-4,23.65H37.67V17.75A1.78,1.78,0,0,0,35.89,16Z"/><path class="cls-11" d="M16.33,23.31c-3.8-1.27-7-3.31-7.91-4.66a2.39,2.39,0,0,0-.48-.52Q7.41,19,7,20C12.27,22.16,16.33,23.31,16.33,23.31Z"/><path class="cls-12" d="M11.33,25.07a9.17,9.17,0,0,1-4.41-1.6,2.66,2.66,0,0,0-1.15-.55c-.13.39-.26.78-.38,1.18A52.81,52.81,0,0,0,11.33,25.07Z"/><path class="cls-13" d="M20.7,25.78A18,18,0,0,0,26,26c2-.41,3,.44,4.32-.14a2.34,2.34,0,0,1,2.84.74c.37.55,1.37,0,2.12.49a6.24,6.24,0,0,0,2.61.45S32.24,29.35,20.7,25.78Z"/><path class="cls-14" d="M26.64,22.48a8.22,8.22,0,0,0,3,.16c1.13-.28,1.65.31,2.43-.09a1.12,1.12,0,0,1,1.55.51c.18.38.77,0,1.16.34a2.83,2.83,0,0,0,1.44.31S32.9,24.93,26.64,22.48Z"/><path class="cls-15" d="M28.11,19.32s-3.83-.13-5.4-1.23a4.43,4.43,0,0,0,1.59-.21,1.61,1.61,0,0,1,1.75.31c.31.45.62-.17,1,.27A4.73,4.73,0,0,0,28.11,19.32Z"/><path class="cls-16" d="M15.71,18.63a9.37,9.37,0,0,0,3.2.53,3.27,3.27,0,0,1-.86-.42,1.11,1.11,0,0,0-1-.21c-.23.14-.32-.21-.59-.08A2.62,2.62,0,0,1,15.71,18.63Z"/><path class="cls-17" d="M14.5,25a9.37,9.37,0,0,0,3.2.53,3.27,3.27,0,0,1-.86-.42,1.11,1.11,0,0,0-1-.21c-.23.14-.32-.21-.59-.08A2.62,2.62,0,0,1,14.5,25Z"/><path class="cls-18" d="M35.22,17.81a6.85,6.85,0,0,1-2.37-.11,2.39,2.39,0,0,0,.68-.17.81.81,0,0,1,.77,0c.15.14.26-.1.43,0A1.92,1.92,0,0,0,35.22,17.81Z"/><path class="cls-19" d="M7.52,35.78v-4H6.29V29.11a1.73,1.73,0,0,0-1.66-1.72A27.85,27.85,0,0,0,5.3,39.62h12L17,35.78Z"/><path class="cls-20" d="M33.13,18.8h-.05a6.38,6.38,0,0,0-6.38,6.38v6.7H23.35a.61.61,0,0,0-.61.61v3H18.52V34.32a.55.55,0,0,0-.55-.55h-1.2V27.06a.53.53,0,0,0-.53-.53H9.29a.53.53,0,0,0-.53.53V37.72H4.84q.2,1,.46,1.9H37.67V34.89H33.13Z"/><rect class="cls-21" x="10.16" y="27.38" width="0.68" height="0.68" rx="0.05" ry="0.05"/><rect class="cls-22" x="11.33" y="27.38" width="0.68" height="0.68" rx="0.05" ry="0.05"/><rect class="cls-23" x="12.5" y="27.38" width="0.68" height="0.68" rx="0.05" ry="0.05"/><rect class="cls-24" x="13.68" y="27.38" width="0.68" height="0.68" rx="0.05" ry="0.05"/><rect class="cls-25" x="14.85" y="27.38" width="0.68" height="0.68" rx="0.05" ry="0.05"/><rect class="cls-21" x="10.16" y="28.62" width="0.68" height="0.68" rx="0.05" ry="0.05"/><rect class="cls-22" x="11.33" y="28.62" width="0.68" height="0.68" rx="0.05" ry="0.05"/><rect class="cls-23" x="12.5" y="28.62" width="0.68" height="0.68" rx="0.05" ry="0.05"/><rect class="cls-24" x="13.68" y="28.62" width="0.68" height="0.68" rx="0.05" ry="0.05"/><rect class="cls-25" x="14.85" y="28.62" width="0.68" height="0.68" rx="0.05" ry="0.05"/><rect class="cls-21" x="10.16" y="29.86" width="0.68" height="0.68" rx="0.05" ry="0.05"/><rect class="cls-22" x="11.33" y="29.86" width="0.68" height="0.68" rx="0.05" ry="0.05"/><rect class="cls-23" x="12.5" y="29.86" width="0.68" height="0.68" rx="0.05" ry="0.05"/><rect class="cls-24" x="13.68" y="29.86" width="0.68" height="0.68" rx="0.05" ry="0.05"/><rect class="cls-25" x="14.85" y="29.86" width="0.68" height="0.68" rx="0.05" ry="0.05"/><rect class="cls-21" x="10.16" y="31.09" width="0.68" height="0.68" rx="0.05" ry="0.05"/><rect class="cls-22" x="11.33" y="31.09" width="0.68" height="0.68" rx="0.05" ry="0.05"/><rect class="cls-23" x="12.5" y="31.09" width="0.68" height="0.68" rx="0.05" ry="0.05"/><rect class="cls-24" x="13.68" y="31.09" width="0.68" height="0.68" rx="0.05" ry="0.05"/><rect class="cls-25" x="14.85" y="31.09" width="0.68" height="0.68" rx="0.05" ry="0.05"/><rect class="cls-21" x="10.16" y="32.33" width="0.68" height="0.68" rx="0.05" ry="0.05"/><rect class="cls-22" x="11.33" y="32.33" width="0.68" height="0.68" rx="0.05" ry="0.05"/><rect class="cls-23" x="12.5" y="32.33" width="0.68" height="0.68" rx="0.05" ry="0.05"/><rect class="cls-24" x="13.68" y="32.33" width="0.68" height="0.68" rx="0.05" ry="0.05"/><rect class="cls-25" x="14.85" y="32.33" width="0.68" height="0.68" rx="0.05" ry="0.05"/><rect class="cls-21" x="10.16" y="33.57" width="0.68" height="0.68" rx="0.05" ry="0.05"/><rect class="cls-22" x="11.33" y="33.57" width="0.68" height="0.68" rx="0.05" ry="0.05"/><rect class="cls-23" x="12.5" y="33.57" width="0.68" height="0.68" rx="0.05" ry="0.05"/><rect class="cls-24" x="13.68" y="33.57" width="0.68" height="0.68" rx="0.05" ry="0.05"/><rect class="cls-25" x="14.85" y="33.57" width="0.68" height="0.68" rx="0.05" ry="0.05"/><rect class="cls-21" x="10.16" y="34.8" width="0.68" height="0.68" rx="0.05" ry="0.05"/><rect class="cls-22" x="11.33" y="34.8" width="0.68" height="0.68" rx="0.05" ry="0.05"/><rect class="cls-23" x="12.5" y="34.8" width="0.68" height="0.68" rx="0.05" ry="0.05"/><rect class="cls-24" x="13.68" y="34.8" width="0.68" height="0.68" rx="0.05" ry="0.05"/><rect class="cls-25" x="14.85" y="34.8" width="0.68" height="0.68" rx="0.05" ry="0.05"/><rect class="cls-21" x="10.16" y="36.04" width="0.68" height="0.68" rx="0.05" ry="0.05"/><rect class="cls-22" x="11.33" y="36.04" width="0.68" height="0.68" rx="0.05" ry="0.05"/><rect class="cls-23" x="12.5" y="36.04" width="0.68" height="0.68" rx="0.05" ry="0.05"/><rect class="cls-24" x="13.68" y="36.04" width="0.68" height="0.68" rx="0.05" ry="0.05"/><rect class="cls-25" x="14.85" y="36.04" width="0.68" height="0.68" rx="0.05" ry="0.05"/><path class="cls-26" d="M23.35,31.88a.61.61,0,0,0-.61.61v3H18.52v.15a2.68,2.68,0,0,0,2.68,2.73H23V37.23h3.68V31.88Z"/><path class="cls-27" d="M3.55,28.21s0,.07.11.12h.07a.23.23,0,0,0,.12-.07A.9.9,0,0,0,3.55,28.21Z"/><path class="cls-28" d="M38,4.6v.13a1.45,1.45,0,0,1-1,1.38,4,4,0,1,0,2.43,0,1.43,1.43,0,0,1-1-1.37v0Z"/><circle class="cls-29" cx="38.24" cy="9.96" r="4.04"/><path class="cls-30" d="M26.14,42.38,23.39,20.21H18.85s-.83,21,6.23,23.07A.83.83,0,0,0,26.14,42.38Z"/><path class="cls-31" d="M12.2,40.46l.2,0A.32.32,0,0,0,12.2,40.46Z"/><path class="cls-32" d="M22.92,39.17,12.39,40.44c.67.07,3.27,1.32,11.12,13.71l.83,4.71a27.86,27.86,0,0,0,4.89,1,45.25,45.25,0,0,0,.31-7C29.23,49.3,22.92,39.17,22.92,39.17Z"/><path class="cls-33" d="M15.62,39a9.61,9.61,0,0,0,.07-2.38A9.44,9.44,0,0,0,14,36c-4.08,4.87-2.47,8.43-.91,10.28.57.81,1.81,3.11,2.5,8.24v0A28,28,0,0,0,21,57.65a16.9,16.9,0,0,0,.78-2.76c.58-3.45-.29-15.71-.29-15.71Zm0,15.35,0-.35h0Z"/><path class="cls-34" d="M21.7,42.53l-9.29-4.17a6.69,6.69,0,0,0,.71,7.9c.57.81,1.81,3.11,2.5,8.24l-.06.44a15.16,15.16,0,0,0,.55-3.85c0-4.23,5.6-8.57,5.6-8.57ZM15.64,54.39l0-.35h0Z"/><path class="cls-35" d="M22.9,18s4,8.16,15.14,12.57v1.31S22,39.34,22,27.25C22,24.24,22.9,23.86,22.9,18Z"/><path class="cls-36" d="M26.48,22.8h0A22.07,22.07,0,0,1,22.9,18c0,5.91-.92,6.29-.92,9.3,0,6.49,4.63,7.33,8.92,6.71-6.8-.23-3.74-5.65-2.82-7S26.48,22.8,26.48,22.8Z"/><path class="cls-37" d="M17.7,16.82s-6,11.58-6,23.31c0,0,4.28,5.66,14.28.83a.43.43,0,0,0,.24-.45l-2.83-20.3Z"/><path class="cls-38" d="M20,18.94V42.78a2.63,2.63,0,0,1-3.72,2.4c-3-1.37-6.83-4.69-6.83-12.73Z"/><path class="cls-39" d="M55.23,29.63l-1.18.75a1.6,1.6,0,0,1-.72.24l-3.69.32-2.72,2.9,6.82-1.73a1.6,1.6,0,0,1,.78,0l1.18.29a.44.44,0,0,0,.28,0l4.43-1.92a.11.11,0,0,0,0-.21l-4.84-.68A.44.44,0,0,0,55.23,29.63Z"/><path class="cls-40" d="M56.23,30.19l-1.56,1.37L52.09,32l-1.15-.84L48.68,32l-1.77,1.88,6.82-1.73a1.6,1.6,0,0,1,.78,0l1.18.29a.44.44,0,0,0,.28,0l4.32-1.87Z"/><path class="cls-41" d="M38.7,31.82S13.16,34,10.25,34.44c-4.24.63-6.08,6.82,1.56,6.73,5.26-.06,32.44-6.26,37.89-7.82a1.89,1.89,0,0,0,1.39-1.69c0-.51-.17-1-1-1C48.28,30.74,38.7,31.82,38.7,31.82Z"/><g class="cls-42"><path class="cls-43" d="M16.37,36c-.43-1.9,2.3-2.37,3.24-2.48-4.52.41-8.34.78-9.36.93-4.24.63-6.08,6.82,1.56,6.73a24.32,24.32,0,0,0,2.77-.27l2.32-1.5A17.6,17.6,0,0,0,16.37,36Z"/></g><path class="cls-44" d="M31.63,32.43c-4.91.84-5.19,6.28-5.19,6.28,4.49-.93,9.3-2,13.43-2.95,0,0-3.83.66-3.92-.72s6.74-3.34,6.74-3.34v-.32l-4,.44Z"/><path class="cls-45" d="M15.35,36l1.49,3a.54.54,0,0,1-.1.63L15,41.32a.33.33,0,0,1-.55-.31,3.89,3.89,0,0,1,.46-1.1,2,2,0,0,0,.28-1.42l-.1-.48Z"/><path class="cls-45" d="M38.06,30.52s.66.08,2.07-1.35a.27.27,0,0,1,.37,0l2.41,2.08s0,.63-.45.45L41,31.09a1,1,0,0,0-.94.08c-.57.36-1.56.89-2,.66Z"/><polygon class="cls-45" points="17.7 16.82 20.75 12.96 22.91 12.96 22.92 19.93 17.7 16.82"/><path class="cls-37" d="M22.92,19.93a5.42,5.42,0,0,1-2.28-2.27,2.84,2.84,0,0,0-2.42-1.5l-.68.84,2.31,1.75"/><path class="cls-46" d="M13.4,31.42,15.35,36l-.23,2c-2.38,1.38-4.31,1.47-5.83.73,0,0,0,0,0,0C5.75,36.94,3,33,4.43,31.42L17.7,16.82a2.31,2.31,0,0,1,1.8.62c2.25,2.44-4.14,11.35-5.74,13.5Z"/><path class="cls-45" d="M28.48,11.4l-.27-.33a1.63,1.63,0,0,1-.36-1.14l.23-3.45c-5.88,0-7.33,7.2-7.33,7.2l2.16,1.93c4.59,0,5-2.24,5-3.43a.69.69,0,0,0,.65-.47A.31.31,0,0,0,28.48,11.4Z"/><path class="cls-47" d="M26.73,7.09l-2,.35-.32.22-.33,7.91a7.3,7.3,0,0,0,1.53-.3c.1-.77-.42-4.4.75-4.87a3,3,0,0,0,1.61-1.94Z"/><path class="cls-37" d="M25.49,25.5c-2-3.69-1.91-3.8-2.1-5.13s-2.75,3.42-2.75,5.13,1.08,3.09,2.42,3.09S26.31,27,25.49,25.5Z"/><path class="cls-48" d="M29.14,7a.55.55,0,0,1-.05.83,12.31,12.31,0,0,1-3.4,1.44c-1.64.53,0,8.48-1.37,7.08-3.69-3.69-3.51-.4-6.62-3.51a6.71,6.71,0,0,0,1.46-3.63C19.16,4.73,23.1,1.29,29.14,7Z"/><path class="cls-49" d="M27.87,12.18a.66.66,0,0,0,.59-.34.51.51,0,0,1-.58,0c-.27-.19-.21.19,0,.36Z"/><path class="cls-50" d="M12.7,39a9.17,9.17,0,0,0,2.42-1l.23-2L13.4,31.42S11.59,35,7.86,34.13a2.42,2.42,0,0,0,2.53,2.35C12.93,36.65,14,38.6,12.7,39Z"/><circle class="cls-51" cx="49.58" cy="49.11" r="10.89"/><path class="cls-52" d="M58.21,42.49A10.88,10.88,0,1,0,43.07,57.83,28.09,28.09,0,0,0,58.21,42.49Z"/><path class="cls-53" d="M51,49.82a1,1,0,0,1,0-1.42l1.83-1.83a2.72,2.72,0,0,0,.8-2,2.25,2.25,0,0,0-2.27-2.17h-3.5a2.25,2.25,0,0,0-2.27,2.17,2.72,2.72,0,0,0,.8,2l1.83,1.83a1,1,0,0,1,0,1.42l-1.83,1.83a2.72,2.72,0,0,0-.8,2,2.25,2.25,0,0,0,2.27,2.17h3.5a2.25,2.25,0,0,0,2.27-2.17,2.72,2.72,0,0,0-.8-2ZM48,45.8a.49.49,0,0,1-.45.3.48.48,0,0,1-.34-.14l-.16-.16-.14-.16-.07-.08a1.47,1.47,0,0,1-.35-.89s0,0,0,0a1.28,1.28,0,0,1,1.29-1.25h3.53a1.29,1.29,0,0,1,1.3,1.26,1.78,1.78,0,0,1-.12.65H48.16a.14.14,0,0,0-.13.19A.45.45,0,0,1,48,45.8Zm.3,1.25a.48.48,0,0,1,.06-.72.5.5,0,0,1,.64.07l.52.52a.51.51,0,0,1,0,.74.48.48,0,0,1-.64,0Zm-1.67,5.89a0,0,0,0,1,0,0,1.78,1.78,0,0,1,.4-.6l1.63-1.63a1.28,1.28,0,0,1,1.82,0l1.63,1.63a1.78,1.78,0,0,1,.4.6,0,0,0,0,1,0,0Z"/></g></g></svg>