<svg xmlns="http://www.w3.org/2000/svg" xmlns:xlink="http://www.w3.org/1999/xlink" viewBox="0 0 64 64"><defs><style>.cls-1{isolation:isolate;}.cls-2{fill:url(#linear-gradient);}.cls-3{fill:#ccdef2;}.cls-4{fill:url(#linear-gradient-2);}.cls-5{fill:url(#linear-gradient-3);}.cls-6{fill:url(#linear-gradient-4);}.cls-7{fill:#f9aa8f;}.cls-23,.cls-50,.cls-8{opacity:0.49;mix-blend-mode:color-burn;}.cls-8{fill:url(#linear-gradient-5);}.cls-9{fill:url(#linear-gradient-6);}.cls-10{fill:url(#linear-gradient-7);}.cls-11{fill:#3d6fd3;}.cls-12{fill:#1b1c37;}.cls-13{fill:url(#linear-gradient-8);}.cls-14{fill:url(#linear-gradient-9);}.cls-15{fill:url(#linear-gradient-10);}.cls-16{fill:url(#linear-gradient-11);}.cls-17{fill:url(#linear-gradient-12);}.cls-18{fill:url(#linear-gradient-13);}.cls-19{fill:url(#linear-gradient-14);}.cls-20{fill:url(#linear-gradient-15);}.cls-21{fill:url(#linear-gradient-16);}.cls-22{fill:url(#linear-gradient-17);}.cls-23{fill:url(#linear-gradient-18);}.cls-24{fill:url(#linear-gradient-19);}.cls-25{fill:url(#linear-gradient-20);}.cls-26{fill:url(#linear-gradient-21);}.cls-27{fill:url(#linear-gradient-22);}.cls-28{fill:url(#linear-gradient-23);}.cls-29{fill:url(#linear-gradient-24);}.cls-30{fill:url(#linear-gradient-25);}.cls-31{fill:url(#linear-gradient-26);}.cls-32{fill:url(#linear-gradient-27);}.cls-33{fill:url(#linear-gradient-28);}.cls-34{fill:url(#linear-gradient-29);}.cls-35{fill:url(#linear-gradient-30);}.cls-36{fill:url(#linear-gradient-31);}.cls-37{fill:url(#linear-gradient-32);}.cls-38{fill:url(#linear-gradient-33);}.cls-39{fill:url(#linear-gradient-34);}.cls-40{fill:url(#linear-gradient-35);}.cls-41{fill:url(#linear-gradient-36);}.cls-42{fill:url(#linear-gradient-37);}.cls-43{fill:url(#linear-gradient-38);}.cls-44{fill:url(#linear-gradient-39);}.cls-45{fill:url(#linear-gradient-40);}.cls-46{fill:url(#linear-gradient-41);}.cls-47{fill:url(#linear-gradient-42);}.cls-48{fill:url(#linear-gradient-43);}.cls-49{fill:url(#linear-gradient-44);}.cls-50{fill:url(#linear-gradient-45);}.cls-51{fill:url(#linear-gradient-46);}.cls-52{fill:url(#linear-gradient-47);}.cls-53{fill:url(#linear-gradient-48);}.cls-54{fill:url(#linear-gradient-50);}.cls-55{fill:url(#linear-gradient-51);}.cls-56{fill:url(#linear-gradient-60);}.cls-57{fill:url(#linear-gradient-61);}.cls-58{fill:url(#linear-gradient-62);}.cls-59{fill:url(#linear-gradient-63);}.cls-60{fill:url(#linear-gradient-67);}.cls-61{fill:url(#linear-gradient-72);}.cls-62{fill:url(#linear-gradient-73);}.cls-63{fill:url(#linear-gradient-74);}.cls-64{fill:url(#linear-gradient-75);}.cls-65{fill:url(#linear-gradient-76);}.cls-66{fill:url(#linear-gradient-77);}.cls-67{fill:url(#linear-gradient-78);}.cls-68{fill:url(#linear-gradient-79);}.cls-69{fill:url(#linear-gradient-80);}.cls-70{fill:url(#linear-gradient-82);}.cls-71{fill:none;stroke:#fff;stroke-miterlimit:10;stroke-width:0.5px;}</style><linearGradient id="linear-gradient" x1="31.9" y1="97.25" x2="31.9" y2="9.14" gradientUnits="userSpaceOnUse"><stop offset="0.02" stop-color="#97efe7"/><stop offset="0.52" stop-color="#3db6d3"/><stop offset="1" stop-color="#3d6fd3"/></linearGradient><linearGradient id="linear-gradient-2" x1="23.38" y1="42.06" x2="23.38" y2="28.08" xlink:href="#linear-gradient"/><linearGradient id="linear-gradient-3" x1="45.41" y1="42.07" x2="45.41" y2="28.04" xlink:href="#linear-gradient"/><linearGradient id="linear-gradient-4" x1="30.68" y1="36.38" x2="30.68" y2="32.41" xlink:href="#linear-gradient"/><linearGradient id="linear-gradient-5" x1="14.7" y1="27.31" x2="14.7" y2="15.19" gradientUnits="userSpaceOnUse"><stop offset="0" stop-color="#fff" stop-opacity="0"/><stop offset="0.93"/></linearGradient><linearGradient id="linear-gradient-6" x1="26.8" y1="27.36" x2="21.96" y2="35.45" gradientUnits="userSpaceOnUse"><stop offset="0" stop-color="#f9d5c5"/><stop offset="1" stop-color="#f78e6b"/></linearGradient><linearGradient id="linear-gradient-7" x1="6.05" y1="31.76" x2="21.3" y2="31.76" gradientUnits="userSpaceOnUse"><stop offset="0" stop-color="#e8bd00"/><stop offset="0.51" stop-color="#e88300"/><stop offset="1" stop-color="#d0471e"/></linearGradient><linearGradient id="linear-gradient-8" x1="27.92" y1="43.48" x2="19.55" y2="53.06" gradientUnits="userSpaceOnUse"><stop offset="0" stop-color="#182ebd"/><stop offset="0.58" stop-color="#0d1226"/></linearGradient><linearGradient id="linear-gradient-9" x1="21.72" y1="18.34" x2="14.66" y2="25.09" xlink:href="#linear-gradient-7"/><linearGradient id="linear-gradient-10" x1="34.35" y1="19.85" x2="4.64" y2="42.28" xlink:href="#linear-gradient-7"/><linearGradient id="linear-gradient-11" x1="22.18" y1="54.5" x2="15.6" y2="40.66" xlink:href="#linear-gradient-7"/><linearGradient id="linear-gradient-12" x1="17.68" y1="19.18" x2="10.43" y2="14.68" gradientUnits="userSpaceOnUse"><stop offset="0.04" stop-color="#b0462a"/><stop offset="0.51" stop-color="#70332a"/><stop offset="0.99" stop-color="#4d2c2a"/></linearGradient><linearGradient id="linear-gradient-13" x1="15.22" y1="22.6" x2="13.79" y2="7.47" xlink:href="#linear-gradient-12"/><linearGradient id="linear-gradient-14" x1="21.34" y1="23.82" x2="17.8" y2="21.42" gradientUnits="userSpaceOnUse"><stop offset="0" stop-color="#3db6d3"/><stop offset="0.5" stop-color="#3d6fd3"/><stop offset="1" stop-color="#252784"/></linearGradient><linearGradient id="linear-gradient-15" x1="22.2" y1="22.55" x2="18.66" y2="20.15" gradientTransform="translate(34.93 -0.08) rotate(83.96)" xlink:href="#linear-gradient-14"/><linearGradient id="linear-gradient-16" x1="21.17" y1="24.07" x2="17.63" y2="21.68" xlink:href="#linear-gradient-14"/><linearGradient id="linear-gradient-17" x1="52.99" y1="48.73" x2="-3.34" y2="36.73" xlink:href="#linear-gradient-14"/><linearGradient id="linear-gradient-18" x1="19.47" y1="55.81" x2="19.47" y2="50.42" gradientUnits="userSpaceOnUse"><stop offset="0" stop-color="#fff" stop-opacity="0"/><stop offset="0.8"/></linearGradient><linearGradient id="linear-gradient-19" x1="73.45" y1="65.02" x2="23.95" y2="56.36" xlink:href="#linear-gradient-14"/><linearGradient id="linear-gradient-20" x1="76.05" y1="50.21" x2="26.55" y2="41.55" xlink:href="#linear-gradient-14"/><linearGradient id="linear-gradient-21" x1="50.27" y1="56.55" x2="49.82" y2="47.25" xlink:href="#linear-gradient-14"/><linearGradient id="linear-gradient-22" x1="37.76" y1="57.17" x2="56.9" y2="42.74" xlink:href="#linear-gradient-14"/><linearGradient id="linear-gradient-23" x1="45.83" y1="48.24" x2="50.58" y2="30.12" gradientUnits="userSpaceOnUse"><stop offset="0" stop-color="#fff"/><stop offset="0.84" stop-color="#cddfec"/></linearGradient><linearGradient id="linear-gradient-24" x1="44.08" y1="61.17" x2="44.08" y2="-9.47" xlink:href="#linear-gradient"/><linearGradient id="linear-gradient-25" x1="39.59" y1="61.17" x2="39.59" y2="-9.47" xlink:href="#linear-gradient"/><linearGradient id="linear-gradient-26" x1="37.11" y1="61.17" x2="37.11" y2="-9.47" xlink:href="#linear-gradient"/><linearGradient id="linear-gradient-27" x1="33.31" y1="61.17" x2="33.31" y2="-9.47" xlink:href="#linear-gradient"/><linearGradient id="linear-gradient-28" x1="31.54" y1="31.34" x2="11.29" y2="12.42" xlink:href="#linear-gradient"/><linearGradient id="linear-gradient-29" x1="57.52" y1="11.48" x2="57.52" y2="0.21" gradientUnits="userSpaceOnUse"><stop offset="0.13" stop-color="#fff"/><stop offset="1" stop-color="#d1d3d4"/></linearGradient><linearGradient id="linear-gradient-30" x1="43.21" y1="18.84" x2="22.96" y2="-0.08" xlink:href="#linear-gradient"/><linearGradient id="linear-gradient-31" x1="42.68" y1="32.56" x2="42.68" y2="23.09" xlink:href="#linear-gradient"/><linearGradient id="linear-gradient-32" x1="38.77" y1="47.1" x2="40.3" y2="30.79" xlink:href="#linear-gradient-14"/><linearGradient id="linear-gradient-33" x1="41.75" y1="34.56" x2="41.75" y2="26.5" xlink:href="#linear-gradient"/><linearGradient id="linear-gradient-34" x1="42.59" y1="36.63" x2="42.59" y2="30.42" xlink:href="#linear-gradient"/><linearGradient id="linear-gradient-35" x1="43.28" y1="30.56" x2="43.28" y2="24.42" xlink:href="#linear-gradient"/><linearGradient id="linear-gradient-36" x1="58.25" y1="34.75" x2="58.25" y2="27.28" xlink:href="#linear-gradient"/><linearGradient id="linear-gradient-37" x1="43.28" y1="41.75" x2="43.28" y2="15.52" xlink:href="#linear-gradient-14"/><linearGradient id="linear-gradient-38" x1="44.17" y1="44.25" x2="44.17" y2="17.41" xlink:href="#linear-gradient-14"/><linearGradient id="linear-gradient-39" x1="43.28" y1="33.19" x2="43.28" y2="24.86" xlink:href="#linear-gradient"/><linearGradient id="linear-gradient-40" x1="59.14" y1="37.69" x2="59.14" y2="33.79" xlink:href="#linear-gradient"/><linearGradient id="linear-gradient-41" x1="39.43" y1="34.38" x2="39.43" y2="31.75" xlink:href="#linear-gradient-23"/><linearGradient id="linear-gradient-42" x1="39.25" y1="26.08" x2="39.25" y2="5.78" xlink:href="#linear-gradient"/><linearGradient id="linear-gradient-43" x1="42.82" y1="32.06" x2="42.82" y2="20.12" xlink:href="#linear-gradient-14"/><linearGradient id="linear-gradient-44" x1="42.83" y1="27.13" x2="42.83" y2="9.2" xlink:href="#linear-gradient-14"/><linearGradient id="linear-gradient-45" x1="44.68" y1="21.44" x2="44.68" y2="8.72" xlink:href="#linear-gradient-14"/><linearGradient id="linear-gradient-46" x1="42.36" y1="21.87" x2="42.36" y2="8.9" xlink:href="#linear-gradient-14"/><linearGradient id="linear-gradient-47" x1="42.71" y1="27.13" x2="42.71" y2="9.2" xlink:href="#linear-gradient-14"/><linearGradient id="linear-gradient-48" x1="30.79" y1="33.85" x2="30.79" y2="1.67" xlink:href="#linear-gradient-14"/><linearGradient id="linear-gradient-50" x1="30.45" y1="33.85" x2="30.45" y2="1.67" xlink:href="#linear-gradient-14"/><linearGradient id="linear-gradient-51" x1="32.08" y1="33.85" x2="32.08" y2="1.67" xlink:href="#linear-gradient-14"/><linearGradient id="linear-gradient-60" x1="51.81" y1="28.13" x2="51.81" y2="11.09" xlink:href="#linear-gradient-14"/><linearGradient id="linear-gradient-61" x1="51.81" y1="24.21" x2="51.81" y2="9.08" xlink:href="#linear-gradient-14"/><linearGradient id="linear-gradient-62" x1="54.68" y1="28.12" x2="54.68" y2="11.09" xlink:href="#linear-gradient-14"/><linearGradient id="linear-gradient-63" x1="54.68" y1="18.72" x2="54.68" y2="12.22" xlink:href="#linear-gradient-14"/><linearGradient id="linear-gradient-67" x1="54.68" y1="24.21" x2="54.68" y2="9.08" xlink:href="#linear-gradient-14"/><linearGradient id="linear-gradient-72" x1="52.3" y1="28.33" x2="52.3" y2="19.39" xlink:href="#linear-gradient-14"/><linearGradient id="linear-gradient-73" x1="12.5" y1="48.07" x2="30.06" y2="33.57" xlink:href="#linear-gradient-14"/><linearGradient id="linear-gradient-74" x1="33.95" y1="31.64" x2="29.12" y2="39.72" xlink:href="#linear-gradient-6"/><linearGradient id="linear-gradient-75" x1="34.89" y1="26.68" x2="30.27" y2="38.43" xlink:href="#linear-gradient-6"/><linearGradient id="linear-gradient-76" x1="36.99" y1="21" x2="4.65" y2="45.41" xlink:href="#linear-gradient-7"/><linearGradient id="linear-gradient-77" x1="34.17" y1="42.39" x2="16.58" y2="28.31" xlink:href="#linear-gradient-7"/><linearGradient id="linear-gradient-78" x1="22.56" y1="21.25" x2="22.56" y2="-6.26" xlink:href="#linear-gradient-7"/><linearGradient id="linear-gradient-79" x1="22.56" y1="20.04" x2="22.56" y2="1.38" xlink:href="#linear-gradient-7"/><linearGradient id="linear-gradient-80" x1="22.56" y1="10.04" x2="22.56" y2="0.46" xlink:href="#linear-gradient-23"/><linearGradient id="linear-gradient-82" x1="22.56" y1="10.04" x2="22.56" y2="0.46" xlink:href="#linear-gradient-23"/></defs><title>man designer</title><g class="cls-1"><g id="Layer_1" data-name="Layer 1"><circle class="cls-2" cx="31.9" cy="32" r="28"/><path class="cls-3" d="M25,38.08H18.4a.88.88,0,1,0,0,1.76H25a2.52,2.52,0,0,1,2.25,3.65l-7,13.93q.8.37,1.62.69l7-13.82A4.28,4.28,0,0,0,25,38.08Z"/><path class="cls-4" d="M25,38.08H18.4a.88.88,0,1,0,0,1.76H25a2.52,2.52,0,0,1,2.25,3.65l-7,13.93q.8.37,1.62.69l7-13.82A4.28,4.28,0,0,0,25,38.08Z"/><path class="cls-3" d="M47,38.08H40.43a.88.88,0,1,0,0,1.76H47a2.52,2.52,0,0,1,2.25,3.65L41.82,58.19q1.3-.49,2.53-1.11l6.46-12.79A4.28,4.28,0,0,0,47,38.08Z"/><path class="cls-5" d="M47,38.08H40.43a.88.88,0,1,0,0,1.76H47a2.52,2.52,0,0,1,2.25,3.65L41.82,58.19q1.3-.49,2.53-1.11l6.46-12.79A4.28,4.28,0,0,0,47,38.08Z"/><path class="cls-6" d="M24.93,35.3H36a.44.44,0,0,1,.44.44v.34a0,0,0,0,1,0,0H24.93a0,0,0,0,1,0,0V35.3A0,0,0,0,1,24.93,35.3Z"/><path class="cls-7" d="M18.5,16.79s.44,2.6.19,3.07a3.07,3.07,0,0,1-.88.88"/><path class="cls-7" d="M18.5,17.08s.45,3.07-.39,4.63-1.36.79-1.75,1.5a1.35,1.35,0,0,0-.14,1.19l-4.63-.24a3.16,3.16,0,0,0,.58-2.28c-.08-1.57-2.07-6.83,1.49-7.45S18.39,15.83,18.5,17.08Z"/><path class="cls-8" d="M15.45,23.5c.16-.75.82-.55,1.57-.7h0a1.4,1.4,0,0,0,.79-.6c-.2.31-.59.55-.89.34s.18-1,.44-1.32a.33.33,0,0,0,0-.36,3.75,3.75,0,0,1-.28-1.18l-5,1.59a5.45,5.45,0,0,1,.09.63,3.16,3.16,0,0,1-.58,2.28l3.13.16A1.48,1.48,0,0,0,15.45,23.5Z"/><path class="cls-9" d="M22.14,32.9s.78-1.23,1.7-.78,1.2.7.84,1a1.91,1.91,0,0,1-.66.32s.41.42-.38.63"/><path class="cls-10" d="M9.12,25.23a5.2,5.2,0,0,0-2.79,6.38c1,3.24,10,10.27,14.93,4.41,0,0,.33-2.2-.87-2.12"/><rect class="cls-11" x="17.68" y="36.09" width="2.29" height="2"/><path class="cls-12" d="M23.52,50.25l-11.92,1A28.16,28.16,0,0,0,14.55,54c1.07.18,2.26.35,3.62.49l-.79,1.49a27.93,27.93,0,0,0,2.91,1.53C22.59,54.37,24.7,51,23.52,50.25Z"/><path class="cls-13" d="M28.87,49.5C25,47.93,13.82,44.36,13.82,44.36l-7,.15a28.1,28.1,0,0,0,6.88,8.79,97.57,97.57,0,0,0,12.95,0,1.22,1.22,0,0,1,1.2.74L30.39,60c.5,0,1,0,1.51,0s1.21,0,1.81-.06C32.84,55.91,31.26,50.47,28.87,49.5Z"/><path class="cls-14" d="M10.15,25.69a14.58,14.58,0,0,0,.47-2.05c0-.53,4.28-1.18,7,.4a.54.54,0,0,1,.23.69,3.93,3.93,0,0,0,0,2.66"/><path class="cls-15" d="M20,27.73c-1.07-2.93-4.36-3.35-8.24-3.15-3.08.16-4.42,1.69-4.73,3.77-.59,4-1,10.71-1.6,12.78A27.83,27.83,0,0,0,6.94,44.7c1.35-.27,3.91-.45,9.78.76,3,.62,1.77-.34,1.2-2.9S21.7,32.36,20,27.73Z"/><path class="cls-16" d="M11.76,24.58c-3.08.16-4.42,1.69-4.73,3.77-.59,4-1,10.71-1.6,12.78A27.82,27.82,0,0,0,7,44.77h.37a14.75,14.75,0,0,1,1.77,0c7.75-.09,10-2.57,6.41-3.2s-5.09-3.13-.39-4.77,4.44-2.26,4.44-2.26L20,33.38a10.61,10.61,0,0,0,0-5.65C18.93,24.8,15.63,24.37,11.76,24.58Z"/><path class="cls-17" d="M19.56,14.59a2.42,2.42,0,0,1-.73,2.17,1.4,1.4,0,0,1-.52.32c-.74.22-.72,1.93-.72,1.93s0-.88-.36-.8-.14,1.71,0,2.37-.54,1.47-1.25,1.86-2.61-.23-3.79,0c0,0-.3,0-.37-.51a27.38,27.38,0,0,0-1.08-4.08c-.41-1.1.11-4.8,3.72-4.61s4.46-.39,4.82.39A3.64,3.64,0,0,1,19.56,14.59Z"/><path class="cls-18" d="M17,13.26h0c-.64,0-1.47,0-2.53,0-3.61-.19-4.14,3.5-3.72,4.61a27.38,27.38,0,0,1,1.08,4.08c.08.5.37.51.37.51,1.17-.23,3.22.31,3.79,0s1.39-1.2,1.25-1.86A9.91,9.91,0,0,1,17,19l-.14-.49s.83-1.53.24-2,.33-1.07,1.14-2.23S17,13.26,17,13.26Z"/><circle class="cls-19" cx="18.41" cy="21.83" r="0.41"/><ellipse class="cls-20" cx="17.51" cy="19.37" rx="1.5" ry="0.78" transform="translate(-3.6 34.74) rotate(-83.96)"/><path class="cls-21" d="M18.26,23l-.16,0c-.94-.17-1-2-1-2.34a.25.25,0,0,1,.25-.25.27.27,0,0,1,.25.25c0,.7.21,1.78.61,1.85h.09a1.06,1.06,0,0,0-.08-.37.25.25,0,1,1,.46-.18c.05.14.21.6,0,.89A.49.49,0,0,1,18.26,23Z"/><path class="cls-22" d="M23.86,53.47l-7-.38c-7.29.24-2.31-27-2.82-27.88s-5.78-1.56-9.24-.36A28,28,0,0,0,19.7,57.21h.84l2.05-.08s2.75.13,2.64-1.8S23.86,53.47,23.86,53.47Z"/><path class="cls-23" d="M23.53,53.45l-6.66-.36a2.44,2.44,0,0,1-1.47-.41h0c3.68,3.48,8.13.77,8.13.77Z"/><path class="cls-24" d="M22.31,54.49l-7-.38a2.59,2.59,0,0,1-.69-.07,28,28,0,0,0,5.07,3.18h.84l2.05-.08a4.59,4.59,0,0,0,1-.08,1.55,1.55,0,0,0,.12-.71C23.58,54.41,22.31,54.49,22.31,54.49Z"/><path class="cls-25" d="M12.73,52.4c-3.27-5.95.2-25.43-.22-26.18S8,24.85,4.67,25.49A28,28,0,0,0,12.73,52.4Z"/><path class="cls-26" d="M43.7,48.8v8.59A28.11,28.11,0,0,0,56.35,45.63H46.87A3.18,3.18,0,0,0,43.7,48.8Z"/><path class="cls-27" d="M51.27,52.21V48.8a3.18,3.18,0,0,1,3.17-3.17H46.87A3.18,3.18,0,0,0,43.7,48.8v8.59A28,28,0,0,0,51.27,52.21Z"/><circle class="cls-28" cx="45.4" cy="49.88" r="0.44"/><circle class="cls-29" cx="44.08" cy="42.68" r="0.83"/><circle class="cls-30" cx="39.59" cy="49.03" r="0.58"/><circle class="cls-31" cx="37.11" cy="42.68" r="0.87"/><circle class="cls-32" cx="33.31" cy="46.77" r="1.59"/><circle class="cls-33" cx="22.22" cy="22.63" r="0.8"/><circle class="cls-34" cx="57.52" cy="7.94" r="0.8"/><circle class="cls-35" cx="30.04" cy="6.54" r="0.8"/><path class="cls-3" d="M46.66,29.49H40.27a.12.12,0,0,1,.12.12v5a1.81,1.81,0,0,1-1.8,1.8H45a1.81,1.81,0,0,0,1.8-1.8v-5A.12.12,0,0,0,46.66,29.49Z"/><path class="cls-36" d="M46.66,29.49H40.27a.12.12,0,0,1,.12.12v5a1.81,1.81,0,0,1-1.8,1.8H45a1.81,1.81,0,0,0,1.8-1.8v-5A.12.12,0,0,0,46.66,29.49Z"/><path class="cls-37" d="M19.49,36.09H59.28a.82.82,0,0,1,.82.82v.36a.82.82,0,0,1-.82.82H19.49a.12.12,0,0,1-.12-.12V36.2A.12.12,0,0,1,19.49,36.09Z"/><path class="cls-38" d="M45.72,29.25H39.34a.12.12,0,0,1,.12.12v5a1.81,1.81,0,0,1-1.8,1.8H44a1.81,1.81,0,0,0,1.8-1.8v-5A.12.12,0,0,0,45.72,29.25Z"/><path class="cls-39" d="M45.72,29.25H39.34a.12.12,0,0,1,.12.12v1.88l1.69,1.69a3.38,3.38,0,0,1,1,2.39v.81H44a1.81,1.81,0,0,0,1.8-1.8v-5A.12.12,0,0,0,45.72,29.25Z"/><rect class="cls-40" x="26.46" y="10.33" width="33.64" height="20.92" rx="1.77" ry="1.77"/><path class="cls-41" d="M58.33,10.33H56.4a1.77,1.77,0,0,1,1.77,1.77V29.48a1.77,1.77,0,0,1-1.77,1.77h1.93a1.77,1.77,0,0,0,1.77-1.77V12.11A1.77,1.77,0,0,0,58.33,10.33Z"/><path class="cls-42" d="M58.33,10.33H28.23a1.77,1.77,0,0,0-1.77,1.77V27.92H60.1V12.11A1.77,1.77,0,0,0,58.33,10.33Z"/><path class="cls-43" d="M58.33,10.33H56.4a1.77,1.77,0,0,1,1.77,1.77V27.92H60.1V12.11A1.77,1.77,0,0,0,58.33,10.33Z"/><rect class="cls-44" x="26.46" y="27.92" width="33.64" height="1.07"/><rect class="cls-45" x="58.17" y="27.92" width="1.93" height="1.07"/><circle class="cls-11" cx="42.31" cy="29.66" r="0.67"/><path class="cls-46" d="M38.81,35c-1.77.25-1.38,1-1.38,1h4C41.59,36,40.57,34.79,38.81,35Z"/><path class="cls-47" d="M39.12,35l-.31,0c-1.77.25-1.38,1-1.38,1h3.69C41.22,36,40.47,35.08,39.12,35Z"/><rect class="cls-11" x="19.38" y="36.09" width="26.14" height="2" rx="0.12" ry="0.12"/><path class="cls-48" d="M40.87,21.92a2.1,2.1,0,0,1,.4,2.25c-.37.92-3,1.14-3.46,2a6.62,6.62,0,0,0-.66,1.76H48.49s-.26-2.44-2.08-2.87-3.62-.33-2-3.83"/><path class="cls-49" d="M38.95,25.42a6.46,6.46,0,0,0,7.77-.27l-.31-.1c-1.83-.43-3.62-.33-2-3.83l-3.49.69a2.1,2.1,0,0,1,.4,2.25C41,24.75,39.87,25.05,38.95,25.42Z"/><path class="cls-50" d="M48.49,27.92s-.26-2.44-2.08-2.87-3.62-.33-2-3.83l-3.49.69a1.82,1.82,0,0,1,.24.31l1,1.3a1.19,1.19,0,0,1,.25.73v1A1.45,1.45,0,0,0,43,26.49l1.12.7a.87.87,0,0,1,.41.74h3.91Z"/><path class="cls-51" d="M44.83,17.66l-3.42-.89-1.59.89a19.05,19.05,0,0,0,0,2.05c.1,1,1.17,2.94,2.44,3C43.27,22.69,45.48,21.24,44.83,17.66Z"/><path class="cls-52" d="M41.32,17s-.16,1.28,1.91,2,1.35,1.85,1.35,1.85A1.85,1.85,0,0,0,47,19.57c.62-1.86-.29-3.84-2.34-5.49a2.64,2.64,0,0,0-2.86-.15s-.67-.67-1.77.28-3.62,5.68.16,6.73a2.9,2.9,0,0,1-.28-2.19A5.64,5.64,0,0,1,41.32,17Z"/><circle class="cls-53" cx="30.79" cy="13.04" r="0.53"/><path class="cls-53" d="M30.71,25.18h-.39a.13.13,0,0,0-.13.13v.49a.13.13,0,0,0,.13.13h.39l.6.24a.06.06,0,0,0,.08-.05V25a.06.06,0,0,0-.08-.05Z"/><circle class="cls-54" cx="30.45" cy="17.12" r="0.2"/><rect class="cls-55" x="31" y="17.02" width="2.17" height="0.2" rx="0.1" ry="0.1"/><circle class="cls-54" cx="30.45" cy="17.97" r="0.2"/><rect class="cls-55" x="31" y="17.87" width="2.17" height="0.2" rx="0.1" ry="0.1"/><circle class="cls-54" cx="30.45" cy="18.83" r="0.2"/><rect class="cls-55" x="31" y="18.73" width="2.17" height="0.2" rx="0.1" ry="0.1"/><circle class="cls-54" cx="30.45" cy="19.69" r="0.2"/><rect class="cls-55" x="31" y="19.59" width="2.17" height="0.2" rx="0.1" ry="0.1"/><circle class="cls-54" cx="30.45" cy="20.55" r="0.2"/><rect class="cls-55" x="31" y="20.45" width="2.17" height="0.2" rx="0.1" ry="0.1"/><rect class="cls-56" x="50.74" y="12.9" width="2.15" height="2.15" rx="0.14" ry="0.14"/><path class="cls-57" d="M50.91,15.05h1.8a1.06,1.06,0,0,0-.63-.74.46.46,0,1,0-.53,0A1.06,1.06,0,0,0,50.91,15.05Z"/><rect class="cls-58" x="53.61" y="12.9" width="2.15" height="2.15" rx="0.14" ry="0.14"/><path class="cls-59" d="M53.78,15.05h1.8a1.06,1.06,0,0,0-.63-.74.46.46,0,1,0-.53,0A1.06,1.06,0,0,0,53.78,15.05Z"/><rect class="cls-56" x="50.74" y="15.75" width="2.15" height="2.15" rx="0.14" ry="0.14"/><path class="cls-57" d="M50.91,17.9h1.8a1.06,1.06,0,0,0-.63-.74.46.46,0,1,0-.53,0A1.06,1.06,0,0,0,50.91,17.9Z"/><rect class="cls-58" x="53.61" y="15.75" width="2.15" height="2.15" rx="0.14" ry="0.14"/><path class="cls-60" d="M53.78,17.9h1.8a1.06,1.06,0,0,0-.63-.74.46.46,0,1,0-.53,0A1.06,1.06,0,0,0,53.78,17.9Z"/><rect class="cls-56" x="50.74" y="18.6" width="2.15" height="2.15" rx="0.14" ry="0.14"/><path class="cls-57" d="M50.91,20.75h1.8a1.06,1.06,0,0,0-.63-.74.46.46,0,1,0-.53,0A1.06,1.06,0,0,0,50.91,20.75Z"/><rect class="cls-58" x="53.61" y="18.6" width="2.15" height="2.15" rx="0.14" ry="0.14"/><path class="cls-60" d="M53.78,20.75h1.8a1.06,1.06,0,0,0-.63-.74.46.46,0,1,0-.53,0A1.06,1.06,0,0,0,53.78,20.75Z"/><circle class="cls-61" cx="52.3" cy="24.61" r="1.56"/><path class="cls-62" d="M20,36.2v1.48l.12.4H31.53l1.14-2H20.13A.12.12,0,0,0,20,36.2Z"/><path class="cls-63" d="M30,35.69a2.33,2.33,0,0,0,.88-1.3C31,33.64,32,32.73,32.48,33c.19.11.16.35.12.5a.25.25,0,0,0,.06.24c.24.25.8.92.6,1.47a2.87,2.87,0,0,1-2.15,1.66"/><path class="cls-64" d="M32,36c.13-.39-.34-.93-.78-1.26s0-1,0-1.07a1.76,1.76,0,0,0-.33.72,2.34,2.34,0,0,1-.88,1.3l1.08,1.17a3.64,3.64,0,0,0,1.29-.57S31.91,36.39,32,36Z"/><path class="cls-65" d="M17,25s4.29.72,6.48,7c2.24,6.47,6.22,2.81,7.31,3.26s.54,1.54,0,1.9-5.71,4.33-10.88-2.27S15.45,24.48,17,25Z"/><path class="cls-66" d="M23.34,35.8c-.77-3.63.16-3.12.83-2.13h0A10.48,10.48,0,0,1,23.46,32C21.28,25.72,17,25,17,25c-1.54-.52-2.26,3.32,2.91,9.93a13.58,13.58,0,0,0,1.38,1.52l.43.39a9.16,9.16,0,0,0,1.22.88C23.38,37.83,23.7,37.48,23.34,35.8Z"/><path class="cls-67" d="M26.68,8.12a4.12,4.12,0,1,0-7,2.94,4.11,4.11,0,0,1,1.05,2.55.22.22,0,0,0,.22.21h3.21a.22.22,0,0,0,.22-.21,4.1,4.1,0,0,1,1.05-2.55A4.11,4.11,0,0,0,26.68,8.12Z"/><path class="cls-68" d="M18.44,8.12a4.09,4.09,0,0,0,1.24,2.94,4.11,4.11,0,0,1,1.05,2.55.22.22,0,0,0,.22.21h3.21a.22.22,0,0,0,.22-.21,4.1,4.1,0,0,1,1.05-2.55A4.1,4.1,0,0,0,25,4.85,27.82,27.82,0,0,0,18.51,7.4,4.11,4.11,0,0,0,18.44,8.12Z"/><path class="cls-69" d="M24.37,15.82H20.75a1.66,1.66,0,0,0,.12.44h3.39A1.66,1.66,0,0,0,24.37,15.82Z"/><polygon class="cls-69" points="24.38 15.07 20.73 15.07 20.73 15.07 20.73 15.51 20.73 15.51 24.38 15.51 24.38 15.51 24.38 15.07 24.38 15.07"/><path class="cls-70" d="M21,16.57a1.67,1.67,0,0,0,1.37.71h.3a1.67,1.67,0,0,0,1.37-.71Z"/><path class="cls-69" d="M20.73,14.76h3.65v-.52H20.74s0,0,0-.06v.58Z"/><path class="cls-71" d="M21.77,10.76h-.22a.55.55,0,0,1-.55-.55h0a.55.55,0,0,1,.55-.55h0a.55.55,0,0,1,.55.55v.55"/><line class="cls-71" x1="22.1" y1="10.62" x2="22.1" y2="13.81"/><path class="cls-71" d="M23.34,10.76h.22a.55.55,0,0,0,.55-.55h0a.55.55,0,0,0-.55-.55h0a.55.55,0,0,0-.55.55v.55"/><line class="cls-71" x1="23.01" y1="10.62" x2="23.01" y2="13.81"/><line class="cls-71" x1="22.1" y1="10.76" x2="23.01" y2="10.76"/></g></g></svg>