<svg xmlns="http://www.w3.org/2000/svg" xmlns:xlink="http://www.w3.org/1999/xlink" viewBox="0 0 64 64"><defs><style>.cls-1{isolation:isolate;}.cls-2{fill:url(#linear-gradient);}.cls-3{fill:url(#linear-gradient-2);}.cls-4{fill:url(#linear-gradient-3);}.cls-5{fill:url(#linear-gradient-4);}.cls-6{fill:url(#linear-gradient-5);}.cls-7{fill:url(#linear-gradient-6);}.cls-8{fill:url(#linear-gradient-7);}.cls-9{fill:url(#linear-gradient-8);}.cls-10{fill:url(#linear-gradient-9);}.cls-11{fill:url(#linear-gradient-10);}.cls-12{fill:url(#linear-gradient-11);}.cls-13{fill:url(#linear-gradient-12);}.cls-14{fill:url(#linear-gradient-13);}.cls-15{fill:url(#linear-gradient-14);}.cls-16{fill:url(#linear-gradient-15);}.cls-17{fill:url(#linear-gradient-16);}.cls-18{fill:url(#linear-gradient-17);}.cls-19{fill:url(#linear-gradient-18);}.cls-20{fill:url(#linear-gradient-19);}.cls-21{fill:url(#linear-gradient-20);}.cls-22{fill:url(#linear-gradient-21);}.cls-23{fill:url(#linear-gradient-22);}.cls-24{fill:url(#linear-gradient-23);}.cls-25{fill:url(#linear-gradient-24);}.cls-26{fill:url(#linear-gradient-25);}.cls-27{fill:url(#linear-gradient-26);}.cls-28{fill:url(#linear-gradient-27);}.cls-29{fill:url(#linear-gradient-28);}.cls-30{fill:url(#linear-gradient-29);}.cls-31{fill:url(#linear-gradient-30);}.cls-32{fill:url(#linear-gradient-31);}.cls-33{fill:url(#linear-gradient-32);}.cls-34{fill:url(#linear-gradient-33);}.cls-35{fill:url(#linear-gradient-34);}.cls-36{fill:url(#linear-gradient-35);}.cls-37{fill:url(#linear-gradient-36);}.cls-38{fill:url(#linear-gradient-37);}.cls-39{fill:url(#linear-gradient-38);}.cls-40{fill:url(#linear-gradient-39);}.cls-41{fill:url(#linear-gradient-40);}.cls-42{fill:url(#linear-gradient-41);}.cls-43{fill:url(#linear-gradient-42);}.cls-44{fill:url(#linear-gradient-43);}.cls-45{fill:url(#linear-gradient-44);}.cls-46{fill:url(#linear-gradient-45);}.cls-47{fill:url(#linear-gradient-46);}.cls-48{fill:url(#linear-gradient-47);}.cls-49{fill:url(#linear-gradient-48);}.cls-50{fill:url(#linear-gradient-49);}.cls-51{fill:url(#linear-gradient-50);}.cls-52{fill:url(#linear-gradient-51);}.cls-53{fill:url(#linear-gradient-52);}.cls-54{fill:url(#linear-gradient-53);}.cls-55{fill:url(#linear-gradient-54);}.cls-56{fill:url(#linear-gradient-55);}.cls-57{fill:url(#linear-gradient-56);}.cls-58{fill:url(#linear-gradient-57);}.cls-59{fill:url(#linear-gradient-58);}.cls-60{fill:url(#linear-gradient-59);}.cls-61{fill:url(#linear-gradient-60);}.cls-62{fill:url(#linear-gradient-61);}.cls-63{fill:url(#linear-gradient-62);}.cls-64{fill:url(#linear-gradient-63);}.cls-65{fill:url(#linear-gradient-64);}.cls-66{fill:url(#linear-gradient-65);}.cls-67{fill:url(#linear-gradient-66);}.cls-68{fill:url(#linear-gradient-67);}.cls-69{fill:url(#linear-gradient-68);}.cls-70{fill:url(#linear-gradient-69);}.cls-71,.cls-76{opacity:0.16;mix-blend-mode:color-burn;}.cls-71{fill:url(#linear-gradient-70);}.cls-72{fill:url(#linear-gradient-71);}.cls-73{fill:url(#linear-gradient-72);}.cls-74{fill:url(#linear-gradient-73);}.cls-75{fill:url(#linear-gradient-74);}.cls-76{fill:url(#linear-gradient-75);}.cls-77{fill:url(#linear-gradient-76);}.cls-78{fill:url(#linear-gradient-77);}.cls-79{fill:url(#linear-gradient-78);}.cls-80{fill:url(#linear-gradient-79);}.cls-81{fill:url(#linear-gradient-80);}.cls-82{fill:url(#linear-gradient-81);}.cls-83{fill:url(#linear-gradient-82);}.cls-84{fill:url(#linear-gradient-83);}.cls-85{fill:url(#linear-gradient-84);}.cls-86{fill:url(#linear-gradient-85);}.cls-87{fill:url(#linear-gradient-86);}.cls-88{fill:url(#linear-gradient-87);}.cls-89{fill:url(#linear-gradient-88);}.cls-90{fill:url(#linear-gradient-89);}.cls-91{fill:url(#linear-gradient-90);}.cls-92{fill:url(#linear-gradient-91);}.cls-93{fill:url(#linear-gradient-92);}.cls-94{fill:url(#linear-gradient-93);}.cls-95{fill:url(#linear-gradient-94);}.cls-96{fill:url(#linear-gradient-95);}.cls-97{fill:url(#linear-gradient-96);}.cls-98{fill:url(#linear-gradient-97);}.cls-99{fill:url(#linear-gradient-98);}.cls-100{fill:url(#linear-gradient-99);}.cls-101{fill:url(#linear-gradient-100);}.cls-102{fill:url(#linear-gradient-101);}.cls-103{fill:url(#linear-gradient-102);}.cls-104{fill:url(#linear-gradient-103);}.cls-105{fill:url(#linear-gradient-104);}.cls-106{fill:url(#linear-gradient-105);}.cls-107{fill:url(#linear-gradient-106);}.cls-108{fill:url(#linear-gradient-107);}.cls-109{fill:url(#linear-gradient-108);}.cls-110{fill:url(#linear-gradient-109);}.cls-111{fill:url(#linear-gradient-110);}.cls-112{fill:url(#linear-gradient-111);}.cls-113{fill:url(#linear-gradient-112);}.cls-114{fill:url(#linear-gradient-113);}.cls-115{fill:url(#linear-gradient-114);}.cls-116{fill:url(#linear-gradient-115);}.cls-117{fill:url(#linear-gradient-116);}.cls-118{fill:url(#linear-gradient-117);}.cls-119{fill:url(#linear-gradient-118);}.cls-120{fill:url(#linear-gradient-119);}.cls-121{fill:url(#linear-gradient-120);}.cls-122{fill:url(#linear-gradient-121);}.cls-123{fill:url(#linear-gradient-122);}.cls-124{fill:url(#linear-gradient-123);}.cls-125{fill:url(#linear-gradient-124);}.cls-126{fill:url(#linear-gradient-125);}.cls-127{fill:url(#linear-gradient-126);}.cls-128{fill:url(#linear-gradient-127);}.cls-129{fill:url(#linear-gradient-128);}.cls-130{fill:url(#linear-gradient-129);}.cls-131{fill:url(#linear-gradient-130);}.cls-132{fill:url(#linear-gradient-131);}.cls-133{fill:url(#linear-gradient-132);}.cls-134{fill:url(#linear-gradient-133);}.cls-135{fill:url(#linear-gradient-134);}.cls-136{fill:url(#linear-gradient-135);}.cls-137{fill:url(#linear-gradient-136);}.cls-138{fill:url(#linear-gradient-137);}.cls-139{fill:url(#linear-gradient-138);}.cls-140{fill:url(#linear-gradient-139);}.cls-141{fill:url(#linear-gradient-140);}.cls-142{fill:url(#linear-gradient-141);}.cls-143{fill:url(#linear-gradient-142);}.cls-144{fill:url(#linear-gradient-143);}.cls-145{fill:url(#linear-gradient-144);}.cls-146{fill:url(#linear-gradient-145);}.cls-147{fill:url(#linear-gradient-146);}.cls-148{fill:url(#linear-gradient-147);}.cls-149{fill:url(#linear-gradient-148);}.cls-150{fill:url(#linear-gradient-149);}.cls-151{fill:url(#linear-gradient-150);}.cls-152{fill:url(#linear-gradient-151);}.cls-153{fill:url(#linear-gradient-152);}.cls-154{fill:url(#linear-gradient-153);}.cls-155{fill:url(#linear-gradient-154);}.cls-156{fill:url(#linear-gradient-155);}.cls-157{fill:url(#linear-gradient-156);}.cls-158{fill:url(#linear-gradient-157);}.cls-159{fill:url(#linear-gradient-158);}.cls-160{fill:url(#linear-gradient-159);}.cls-161{fill:url(#linear-gradient-160);}.cls-162{fill:url(#linear-gradient-161);}.cls-163{fill:url(#linear-gradient-162);}.cls-164{fill:url(#linear-gradient-163);}.cls-165{fill:url(#linear-gradient-164);}.cls-166{fill:url(#linear-gradient-165);}.cls-167{fill:url(#linear-gradient-166);}.cls-168{fill:url(#linear-gradient-167);}.cls-169{fill:url(#linear-gradient-169);}.cls-170{fill:url(#linear-gradient-170);}.cls-171{fill:url(#linear-gradient-171);}.cls-172{fill:#a8c5dd;}.cls-173{fill:url(#linear-gradient-173);}.cls-174{fill:#3c51a2;}.cls-175{fill:url(#linear-gradient-174);}.cls-176{fill:#f9aa8f;}.cls-177{fill:url(#linear-gradient-175);}.cls-178{fill:url(#linear-gradient-176);}.cls-179{fill:#751d14;}.cls-180{fill:url(#linear-gradient-177);}.cls-181{fill:#1c1651;}.cls-182{fill:url(#linear-gradient-178);}.cls-183{fill:url(#linear-gradient-179);}.cls-184{fill:url(#linear-gradient-180);}.cls-185{fill:#09070c;}.cls-186{fill:#cfcee7;}.cls-187{fill:#d7e8f9;}.cls-188{fill:url(#linear-gradient-181);}.cls-189{fill:#2c318f;}.cls-190{fill:url(#linear-gradient-182);}.cls-191{fill:url(#linear-gradient-183);}.cls-192{fill:url(#linear-gradient-184);}</style><linearGradient id="linear-gradient" x1="32" y1="56.99" x2="32" y2="29.82" gradientUnits="userSpaceOnUse"><stop offset="0" stop-color="#caf1d8"/><stop offset="0.51" stop-color="#7defa4"/><stop offset="1" stop-color="#2fbca4"/></linearGradient><linearGradient id="linear-gradient-2" x1="7407.27" y1="32.28" x2="7407.27" y2="-3.97" gradientTransform="translate(-7366.47)" xlink:href="#linear-gradient"/><linearGradient id="linear-gradient-3" x1="7408.69" y1="32.28" x2="7408.69" y2="-3.97" gradientTransform="translate(-7366.47)" xlink:href="#linear-gradient"/><linearGradient id="linear-gradient-4" x1="7411.92" y1="30.49" x2="7377.56" y2="-20.14" gradientTransform="translate(-7366.47)" xlink:href="#linear-gradient"/><linearGradient id="linear-gradient-5" x1="7405.97" y1="55.59" x2="7371.38" y2="6.41" gradientTransform="translate(-7366.47)" xlink:href="#linear-gradient"/><linearGradient id="linear-gradient-6" x1="7392.17" y1="32.28" x2="7392.17" y2="-3.97" gradientTransform="translate(-7366.47)" xlink:href="#linear-gradient"/><linearGradient id="linear-gradient-7" x1="7406.05" y1="55.54" x2="7371.45" y2="6.36" gradientTransform="translate(-7366.47)" xlink:href="#linear-gradient"/><linearGradient id="linear-gradient-8" x1="7403.31" y1="32.28" x2="7403.31" y2="-3.97" gradientTransform="translate(-7366.47)" xlink:href="#linear-gradient"/><linearGradient id="linear-gradient-9" x1="7403.57" y1="36.15" x2="7369.21" y2="-14.47" gradientTransform="translate(-7366.47)" xlink:href="#linear-gradient"/><linearGradient id="linear-gradient-10" x1="7413.51" y1="50.29" x2="7378.92" y2="1.1" gradientTransform="translate(-7366.47)" xlink:href="#linear-gradient"/><linearGradient id="linear-gradient-11" x1="7425.63" y1="32.28" x2="7425.63" y2="-3.97" gradientTransform="translate(-7366.47)" xlink:href="#linear-gradient"/><linearGradient id="linear-gradient-12" x1="59.16" y1="48.24" x2="59.16" y2="21.73" xlink:href="#linear-gradient"/><linearGradient id="linear-gradient-13" x1="7419.62" y1="32.28" x2="7419.62" y2="-3.97" gradientTransform="translate(-7366.47)" xlink:href="#linear-gradient"/><linearGradient id="linear-gradient-14" x1="7417" y1="27.03" x2="7382.65" y2="-23.59" gradientTransform="translate(-7366.47)" xlink:href="#linear-gradient"/><linearGradient id="linear-gradient-15" x1="53.15" y1="48.24" x2="53.15" y2="21.73" xlink:href="#linear-gradient"/><linearGradient id="linear-gradient-16" x1="7424.76" y1="32.28" x2="7424.76" y2="-3.97" gradientTransform="translate(-7366.47)" xlink:href="#linear-gradient"/><linearGradient id="linear-gradient-17" x1="7428.17" y1="39.97" x2="7393.58" y2="-9.21" gradientTransform="translate(-7366.47)" xlink:href="#linear-gradient"/><linearGradient id="linear-gradient-18" x1="58.3" y1="48.24" x2="58.3" y2="21.73" xlink:href="#linear-gradient"/><linearGradient id="linear-gradient-19" x1="7418.79" y1="32.28" x2="7418.79" y2="-3.97" gradientTransform="translate(-7366.47)" xlink:href="#linear-gradient"/><linearGradient id="linear-gradient-20" x1="7414.89" y1="28.46" x2="7380.54" y2="-22.16" gradientTransform="translate(-7366.47)" xlink:href="#linear-gradient"/><linearGradient id="linear-gradient-21" x1="7424.6" y1="42.48" x2="7390.01" y2="-6.7" gradientTransform="translate(-7366.47)" xlink:href="#linear-gradient"/><linearGradient id="linear-gradient-22" x1="52.32" y1="48.24" x2="52.32" y2="21.73" xlink:href="#linear-gradient"/><linearGradient id="linear-gradient-23" x1="7416.81" y1="32.28" x2="7416.81" y2="-3.97" gradientTransform="translate(-7366.47)" xlink:href="#linear-gradient"/><linearGradient id="linear-gradient-24" x1="7415.63" y1="27.96" x2="7381.27" y2="-22.67" gradientTransform="translate(-7366.47)" xlink:href="#linear-gradient"/><linearGradient id="linear-gradient-25" x1="50.34" y1="34.11" x2="50.34" y2="22.24" xlink:href="#linear-gradient"/><linearGradient id="linear-gradient-26" x1="7417.85" y1="32.28" x2="7417.85" y2="-3.97" gradientTransform="translate(-7366.47)" xlink:href="#linear-gradient"/><linearGradient id="linear-gradient-27" x1="7416.63" y1="27.28" x2="7382.22" y2="-23.44" gradientTransform="translate(-7366.47)" xlink:href="#linear-gradient"/><linearGradient id="linear-gradient-28" x1="51.38" y1="34.11" x2="51.38" y2="22.24" xlink:href="#linear-gradient"/><linearGradient id="linear-gradient-29" x1="7418.5" y1="32.28" x2="7418.5" y2="-3.97" gradientTransform="translate(-7366.47)" xlink:href="#linear-gradient"/><linearGradient id="linear-gradient-30" x1="7416.83" y1="27.15" x2="7382.48" y2="-23.48" gradientTransform="translate(-7366.47)" xlink:href="#linear-gradient"/><linearGradient id="linear-gradient-31" x1="52.04" y1="48.24" x2="52.04" y2="21.73" xlink:href="#linear-gradient"/><linearGradient id="linear-gradient-32" x1="52.04" y1="34.12" x2="52.04" y2="22.23" xlink:href="#linear-gradient"/><linearGradient id="linear-gradient-33" x1="7379.39" y1="32.28" x2="7379.39" y2="-3.97" gradientTransform="translate(-7366.47)" xlink:href="#linear-gradient"/><linearGradient id="linear-gradient-34" x1="7386.69" y1="30.24" x2="7386.69" y2="-0.38" gradientTransform="translate(-7366.47)" xlink:href="#linear-gradient"/><linearGradient id="linear-gradient-35" x1="7378.29" y1="32.26" x2="7378.29" y2="-4.12" gradientTransform="translate(-7366.47)" xlink:href="#linear-gradient"/><linearGradient id="linear-gradient-36" x1="7378.29" y1="30.22" x2="7378.29" y2="-0.52" gradientTransform="translate(-7366.47)" xlink:href="#linear-gradient"/><linearGradient id="linear-gradient-37" x1="7384.74" y1="32.28" x2="7384.74" y2="-3.97" gradientTransform="translate(-7366.47)" xlink:href="#linear-gradient"/><linearGradient id="linear-gradient-38" x1="7384.74" y1="30.24" x2="7384.74" y2="-0.38" gradientTransform="translate(-7366.47)" xlink:href="#linear-gradient"/><linearGradient id="linear-gradient-39" x1="7375.46" y1="32.28" x2="7375.46" y2="-3.97" gradientTransform="translate(-7366.47)" xlink:href="#linear-gradient"/><linearGradient id="linear-gradient-40" x1="7375.46" y1="30.24" x2="7375.46" y2="-0.38" gradientTransform="translate(-7366.47)" xlink:href="#linear-gradient"/><linearGradient id="linear-gradient-41" x1="7381.15" y1="32.28" x2="7381.15" y2="-3.97" gradientTransform="translate(-7366.47)" xlink:href="#linear-gradient"/><linearGradient id="linear-gradient-42" x1="7381.15" y1="23.6" x2="7381.15" y2="16.69" gradientTransform="translate(-7366.47)" xlink:href="#linear-gradient"/><linearGradient id="linear-gradient-43" x1="7375.11" y1="32.28" x2="7375.11" y2="-3.97" gradientTransform="translate(-7366.47)" xlink:href="#linear-gradient"/><linearGradient id="linear-gradient-44" x1="7375.11" y1="30.24" x2="7375.11" y2="-0.38" gradientTransform="translate(-7366.47)" xlink:href="#linear-gradient"/><linearGradient id="linear-gradient-45" x1="7375.11" y1="33.7" x2="7375.11" y2="20.77" gradientTransform="translate(-7366.47)" xlink:href="#linear-gradient"/><linearGradient id="linear-gradient-46" x1="7373.03" y1="32.28" x2="7373.03" y2="-3.97" gradientTransform="translate(-7366.47)" xlink:href="#linear-gradient"/><linearGradient id="linear-gradient-47" x1="6.56" y1="13.91" x2="6.56" y2="4.9" xlink:href="#linear-gradient"/><linearGradient id="linear-gradient-48" x1="7374.42" y1="32.28" x2="7374.42" y2="-3.97" gradientTransform="translate(-7366.47)" xlink:href="#linear-gradient"/><linearGradient id="linear-gradient-49" x1="7.95" y1="13.91" x2="7.95" y2="4.9" xlink:href="#linear-gradient"/><linearGradient id="linear-gradient-50" x1="7398.18" y1="32.28" x2="7398.18" y2="-3.97" gradientTransform="translate(-7366.47)" xlink:href="#linear-gradient"/><linearGradient id="linear-gradient-51" x1="31.71" y1="13.91" x2="31.71" y2="4.9" xlink:href="#linear-gradient"/><linearGradient id="linear-gradient-52" x1="7403.97" y1="32.28" x2="7403.97" y2="-3.97" gradientTransform="translate(-7366.47)" xlink:href="#linear-gradient"/><linearGradient id="linear-gradient-53" x1="34.59" y1="18.59" x2="40.41" y2="18.59" xlink:href="#linear-gradient"/><linearGradient id="linear-gradient-54" x1="7381.27" y1="32.28" x2="7381.27" y2="-3.97" gradientTransform="translate(-7366.47)" xlink:href="#linear-gradient"/><linearGradient id="linear-gradient-55" x1="14.8" y1="42.15" x2="14.8" y2="21.46" xlink:href="#linear-gradient"/><linearGradient id="linear-gradient-56" x1="7386.72" y1="30.24" x2="7386.72" y2="-0.38" gradientTransform="translate(-7366.47)" xlink:href="#linear-gradient"/><linearGradient id="linear-gradient-57" x1="20.25" y1="42.15" x2="20.25" y2="21.46" xlink:href="#linear-gradient"/><linearGradient id="linear-gradient-58" x1="7384.95" y1="32.28" x2="7384.95" y2="-3.97" gradientTransform="translate(-7366.47)" xlink:href="#linear-gradient"/><linearGradient id="linear-gradient-59" x1="7384.95" y1="30.24" x2="7384.95" y2="-0.38" gradientTransform="translate(-7366.47)" xlink:href="#linear-gradient"/><linearGradient id="linear-gradient-60" x1="18.49" y1="42.16" x2="18.49" y2="21.46" xlink:href="#linear-gradient"/><linearGradient id="linear-gradient-61" x1="7380.96" y1="32.28" x2="7380.96" y2="-3.97" gradientTransform="translate(-7366.47)" xlink:href="#linear-gradient"/><linearGradient id="linear-gradient-62" x1="7380.96" y1="30.24" x2="7380.96" y2="-0.38" gradientTransform="translate(-7366.47)" xlink:href="#linear-gradient"/><linearGradient id="linear-gradient-63" x1="14.49" y1="42.16" x2="14.49" y2="21.46" xlink:href="#linear-gradient"/><linearGradient id="linear-gradient-64" x1="7377.37" y1="32.28" x2="7377.37" y2="-3.97" gradientTransform="translate(-7366.47)" xlink:href="#linear-gradient"/><linearGradient id="linear-gradient-65" x1="7377.37" y1="30.24" x2="7377.37" y2="-0.38" gradientTransform="translate(-7366.47)" xlink:href="#linear-gradient"/><linearGradient id="linear-gradient-66" x1="7377.37" y1="33.7" x2="7377.37" y2="20.77" gradientTransform="translate(-7366.47)" xlink:href="#linear-gradient"/><linearGradient id="linear-gradient-67" x1="10.9" y1="42.15" x2="10.9" y2="21.46" xlink:href="#linear-gradient"/><linearGradient id="linear-gradient-68" x1="7382.5" y1="32.28" x2="7382.5" y2="-3.97" gradientTransform="translate(-7366.47)" xlink:href="#linear-gradient"/><linearGradient id="linear-gradient-69" x1="7382.5" y1="30.24" x2="7382.5" y2="-0.38" gradientTransform="translate(-7366.47)" xlink:href="#linear-gradient"/><linearGradient id="linear-gradient-70" x1="7384.51" y1="31.24" x2="7381.77" y2="30.7" gradientTransform="translate(-7366.47)" xlink:href="#linear-gradient"/><linearGradient id="linear-gradient-71" x1="16.04" y1="42.16" x2="16.04" y2="21.46" xlink:href="#linear-gradient"/><linearGradient id="linear-gradient-72" x1="7381.97" y1="32.28" x2="7381.97" y2="-3.98" gradientTransform="translate(-7366.47)" xlink:href="#linear-gradient"/><linearGradient id="linear-gradient-73" x1="7381.97" y1="30.24" x2="7381.97" y2="-0.39" gradientTransform="translate(-7366.47)" xlink:href="#linear-gradient"/><linearGradient id="linear-gradient-74" x1="7381.97" y1="33.7" x2="7381.97" y2="20.76" gradientTransform="translate(-7366.47)" xlink:href="#linear-gradient"/><linearGradient id="linear-gradient-75" x1="7384.22" y1="32.72" x2="7381.48" y2="32.18" gradientTransform="translate(-7366.47)" xlink:href="#linear-gradient"/><linearGradient id="linear-gradient-76" x1="15.5" y1="42.16" x2="15.5" y2="21.46" xlink:href="#linear-gradient"/><linearGradient id="linear-gradient-77" x1="7380.59" y1="32.28" x2="7380.59" y2="-3.97" gradientTransform="translate(-7366.47)" xlink:href="#linear-gradient"/><linearGradient id="linear-gradient-78" x1="14.12" y1="42.16" x2="14.12" y2="21.46" xlink:href="#linear-gradient"/><linearGradient id="linear-gradient-79" x1="7380.59" y1="25.08" x2="7380.59" y2="18.69" gradientTransform="translate(-7366.47)" xlink:href="#linear-gradient"/><linearGradient id="linear-gradient-80" x1="7381.58" y1="32.28" x2="7381.58" y2="-3.97" gradientTransform="translate(-7366.47)" xlink:href="#linear-gradient"/><linearGradient id="linear-gradient-81" x1="15.11" y1="42.16" x2="15.11" y2="21.46" xlink:href="#linear-gradient"/><linearGradient id="linear-gradient-82" x1="7381.58" y1="25.08" x2="7381.58" y2="18.69" gradientTransform="translate(-7366.47)" xlink:href="#linear-gradient"/><linearGradient id="linear-gradient-83" x1="7379.3" y1="32.28" x2="7379.3" y2="-3.97" gradientTransform="translate(-7366.47)" xlink:href="#linear-gradient"/><linearGradient id="linear-gradient-84" x1="7379.3" y1="25.08" x2="7379.3" y2="18.69" gradientTransform="translate(-7366.47)" xlink:href="#linear-gradient"/><linearGradient id="linear-gradient-85" x1="7379.69" y1="32.28" x2="7379.69" y2="-3.97" gradientTransform="translate(-7366.47)" xlink:href="#linear-gradient"/><linearGradient id="linear-gradient-86" x1="13.22" y1="42.16" x2="13.22" y2="21.46" xlink:href="#linear-gradient"/><linearGradient id="linear-gradient-87" x1="7379.69" y1="25.08" x2="7379.69" y2="18.69" gradientTransform="translate(-7366.47)" xlink:href="#linear-gradient"/><linearGradient id="linear-gradient-88" x1="7382.48" y1="32.28" x2="7382.48" y2="-3.97" gradientTransform="translate(-7366.47)" xlink:href="#linear-gradient"/><linearGradient id="linear-gradient-89" x1="16.01" y1="42.16" x2="16.01" y2="21.46" xlink:href="#linear-gradient"/><linearGradient id="linear-gradient-90" x1="7382.48" y1="25.08" x2="7382.48" y2="18.69" gradientTransform="translate(-7366.47)" xlink:href="#linear-gradient"/><linearGradient id="linear-gradient-91" x1="7382.15" y1="32.28" x2="7382.15" y2="-3.97" gradientTransform="translate(-7366.47)" xlink:href="#linear-gradient"/><linearGradient id="linear-gradient-92" x1="7382.15" y1="24.61" x2="7382.15" y2="20.44" gradientTransform="translate(-7366.47)" xlink:href="#linear-gradient"/><linearGradient id="linear-gradient-93" x1="7380.08" y1="32.28" x2="7380.08" y2="-3.97" gradientTransform="translate(-7366.47)" xlink:href="#linear-gradient"/><linearGradient id="linear-gradient-94" x1="7380.08" y1="24.61" x2="7380.08" y2="20.44" gradientTransform="translate(-7366.47)" xlink:href="#linear-gradient"/><linearGradient id="linear-gradient-95" x1="7381.15" y1="32.28" x2="7381.15" y2="-3.97" gradientTransform="translate(-7366.47)" xlink:href="#linear-gradient"/><linearGradient id="linear-gradient-96" x1="7381.15" y1="23.6" x2="7381.15" y2="16.69" gradientTransform="translate(-7366.47)" xlink:href="#linear-gradient"/><linearGradient id="linear-gradient-97" x1="7381.15" y1="24.61" x2="7381.15" y2="20.44" gradientTransform="translate(-7366.47)" xlink:href="#linear-gradient"/><linearGradient id="linear-gradient-98" x1="7418.82" y1="32.28" x2="7418.82" y2="-3.97" gradientTransform="translate(-7366.47)" xlink:href="#linear-gradient"/><linearGradient id="linear-gradient-99" x1="29.64" y1="28.85" x2="29.64" y2="15.71" gradientTransform="matrix(-1, 0, 0, 1, 81.99, 0)" xlink:href="#linear-gradient"/><linearGradient id="linear-gradient-100" x1="7420.72" y1="32.28" x2="7420.72" y2="-3.97" gradientTransform="translate(-7366.47)" xlink:href="#linear-gradient"/><linearGradient id="linear-gradient-101" x1="7420.79" y1="24.46" x2="7386.44" y2="-26.16" gradientTransform="translate(-7366.47)" xlink:href="#linear-gradient"/><linearGradient id="linear-gradient-102" x1="27.74" y1="28.85" x2="27.74" y2="15.71" gradientTransform="matrix(-1, 0, 0, 1, 81.99, 0)" xlink:href="#linear-gradient"/><linearGradient id="linear-gradient-103" x1="7419" y1="32.28" x2="7419" y2="-3.97" gradientTransform="translate(-7366.47)" xlink:href="#linear-gradient"/><linearGradient id="linear-gradient-104" x1="7419.88" y1="25.08" x2="7385.53" y2="-25.55" gradientTransform="translate(-7366.47)" xlink:href="#linear-gradient"/><linearGradient id="linear-gradient-105" x1="29.46" y1="28.85" x2="29.46" y2="15.71" gradientTransform="matrix(-1, 0, 0, 1, 81.99, 0)" xlink:href="#linear-gradient"/><linearGradient id="linear-gradient-106" x1="7420.82" y1="32.28" x2="7420.82" y2="-3.97" gradientTransform="translate(-7366.47)" xlink:href="#linear-gradient"/><linearGradient id="linear-gradient-107" x1="7421.2" y1="24.19" x2="7386.85" y2="-26.43" gradientTransform="translate(-7366.47)" xlink:href="#linear-gradient"/><linearGradient id="linear-gradient-108" x1="29.2" y1="24.35" x2="24.41" y2="22.71" gradientTransform="matrix(-1, 0, 0, 1, 81.99, 0)" xlink:href="#linear-gradient"/><linearGradient id="linear-gradient-109" x1="7419.26" y1="25.02" x2="7419.26" y2="23.42" gradientTransform="translate(-7366.47)" xlink:href="#linear-gradient"/><linearGradient id="linear-gradient-110" x1="7419.89" y1="25.15" x2="7417.87" y2="22.17" gradientTransform="translate(-7366.47)" xlink:href="#linear-gradient"/><linearGradient id="linear-gradient-111" x1="29.24" y1="24.23" x2="26.11" y2="23.16" gradientTransform="matrix(-1, 0, 0, 1, 81.99, 0)" xlink:href="#linear-gradient"/><linearGradient id="linear-gradient-112" x1="7419.98" y1="32.28" x2="7419.98" y2="-3.97" gradientTransform="translate(-7366.47)" xlink:href="#linear-gradient"/><linearGradient id="linear-gradient-113" x1="7420.36" y1="24.75" x2="7386.01" y2="-25.87" gradientTransform="translate(-7366.47)" xlink:href="#linear-gradient"/><linearGradient id="linear-gradient-114" x1="28.48" y1="28.85" x2="28.48" y2="15.71" gradientTransform="matrix(-1, 0, 0, 1, 81.99, 0)" xlink:href="#linear-gradient"/><linearGradient id="linear-gradient-115" x1="29.15" y1="24.5" x2="24.35" y2="22.86" gradientTransform="matrix(-1, 0, 0, 1, 81.99, 0)" xlink:href="#linear-gradient"/><linearGradient id="linear-gradient-116" x1="7411.29" y1="32.28" x2="7411.29" y2="-3.97" gradientTransform="translate(-7366.47)" xlink:href="#linear-gradient"/><linearGradient id="linear-gradient-117" x1="37.17" y1="24.17" x2="37.17" y2="11.03" gradientTransform="matrix(-1, 0, 0, 1, 81.99, 0)" xlink:href="#linear-gradient"/><linearGradient id="linear-gradient-118" x1="7413.42" y1="32.28" x2="7413.42" y2="-3.97" gradientTransform="translate(-7366.47)" xlink:href="#linear-gradient"/><linearGradient id="linear-gradient-119" x1="35.04" y1="24.17" x2="35.04" y2="11.03" gradientTransform="matrix(-1, 0, 0, 1, 81.99, 0)" xlink:href="#linear-gradient"/><linearGradient id="linear-gradient-120" x1="7413.04" y1="32.28" x2="7413.04" y2="-3.97" gradientTransform="translate(-7366.47)" xlink:href="#linear-gradient"/><linearGradient id="linear-gradient-121" x1="36.98" y1="19.67" x2="32.18" y2="18.03" gradientTransform="matrix(-1, 0, 0, 1, 81.99, 0)" xlink:href="#linear-gradient"/><linearGradient id="linear-gradient-122" x1="7412.44" y1="32.35" x2="7412.44" y2="-4.1" gradientTransform="translate(-7366.47)" xlink:href="#linear-gradient"/><linearGradient id="linear-gradient-123" x1="36.82" y1="20.14" x2="32.04" y2="18.5" gradientTransform="matrix(-1, 0, 0, 1, 81.99, 0)" xlink:href="#linear-gradient"/><linearGradient id="linear-gradient-124" x1="7412.2" y1="32.28" x2="7412.2" y2="-3.97" gradientTransform="translate(-7366.47)" xlink:href="#linear-gradient"/><linearGradient id="linear-gradient-125" x1="36.26" y1="24.17" x2="36.26" y2="11.03" gradientTransform="matrix(-1, 0, 0, 1, 81.99, 0)" xlink:href="#linear-gradient"/><linearGradient id="linear-gradient-126" x1="36.93" y1="19.82" x2="32.13" y2="18.18" gradientTransform="matrix(-1, 0, 0, 1, 81.99, 0)" xlink:href="#linear-gradient"/><linearGradient id="linear-gradient-127" x1="46.06" y1="49.74" x2="46.06" y2="54.6" gradientUnits="userSpaceOnUse"><stop offset="0" stop-color="#7ff1a4"/><stop offset="0.52" stop-color="#2fbca4"/><stop offset="1" stop-color="#2f7da4"/></linearGradient><linearGradient id="linear-gradient-128" x1="44.5" y1="49.74" x2="44.5" y2="54.6" xlink:href="#linear-gradient-127"/><linearGradient id="linear-gradient-129" x1="42.94" y1="49.74" x2="42.94" y2="54.6" xlink:href="#linear-gradient-127"/><linearGradient id="linear-gradient-130" x1="46.06" y1="49.74" x2="46.06" y2="54.6" xlink:href="#linear-gradient-127"/><linearGradient id="linear-gradient-131" x1="44.5" y1="49.74" x2="44.5" y2="54.6" xlink:href="#linear-gradient-127"/><linearGradient id="linear-gradient-132" x1="42.94" y1="49.74" x2="42.94" y2="54.6" xlink:href="#linear-gradient-127"/><linearGradient id="linear-gradient-133" x1="46.06" y1="49.74" x2="46.06" y2="54.6" xlink:href="#linear-gradient-127"/><linearGradient id="linear-gradient-134" x1="44.5" y1="49.74" x2="44.5" y2="54.6" xlink:href="#linear-gradient-127"/><linearGradient id="linear-gradient-135" x1="42.94" y1="49.74" x2="42.94" y2="54.6" xlink:href="#linear-gradient-127"/><linearGradient id="linear-gradient-136" x1="35.83" y1="56.99" x2="35.83" y2="29.82" xlink:href="#linear-gradient"/><linearGradient id="linear-gradient-137" x1="35.83" y1="9.66" x2="35.83" y2="78.03" xlink:href="#linear-gradient-127"/><linearGradient id="linear-gradient-138" x1="22.84" y1="56.99" x2="22.84" y2="29.82" xlink:href="#linear-gradient"/><linearGradient id="linear-gradient-139" x1="22.84" y1="9.66" x2="22.84" y2="78.03" xlink:href="#linear-gradient-127"/><linearGradient id="linear-gradient-140" x1="34.2" y1="57.01" x2="34.2" y2="29.83" xlink:href="#linear-gradient"/><linearGradient id="linear-gradient-141" x1="34.2" y1="9.65" x2="34.2" y2="78.06" xlink:href="#linear-gradient-127"/><linearGradient id="linear-gradient-142" x1="34.79" y1="56.99" x2="34.79" y2="29.82" xlink:href="#linear-gradient"/><linearGradient id="linear-gradient-143" x1="34.79" y1="9.66" x2="34.79" y2="78.03" xlink:href="#linear-gradient-127"/><linearGradient id="linear-gradient-144" x1="35.62" y1="56.98" x2="35.62" y2="29.82" xlink:href="#linear-gradient"/><linearGradient id="linear-gradient-145" x1="35.62" y1="9.66" x2="35.62" y2="78.02" xlink:href="#linear-gradient-127"/><linearGradient id="linear-gradient-146" x1="35.27" y1="56.98" x2="35.27" y2="29.82" xlink:href="#linear-gradient"/><linearGradient id="linear-gradient-147" x1="35.27" y1="9.66" x2="35.27" y2="78.02" xlink:href="#linear-gradient-127"/><linearGradient id="linear-gradient-148" x1="23.53" y1="56.99" x2="23.53" y2="29.82" xlink:href="#linear-gradient"/><linearGradient id="linear-gradient-149" x1="23.53" y1="9.66" x2="23.53" y2="78.03" xlink:href="#linear-gradient-127"/><linearGradient id="linear-gradient-150" x1="23.53" y1="81.82" x2="23.53" y2="39.21" xlink:href="#linear-gradient-127"/><linearGradient id="linear-gradient-151" x1="41.25" y1="56.99" x2="41.25" y2="29.82" xlink:href="#linear-gradient"/><linearGradient id="linear-gradient-152" x1="41.25" y1="-32.84" x2="41.25" y2="52.76" xlink:href="#linear-gradient-127"/><linearGradient id="linear-gradient-153" x1="31.87" y1="57.16" x2="31.87" y2="29.9" xlink:href="#linear-gradient"/><linearGradient id="linear-gradient-154" x1="31.87" y1="9.66" x2="31.87" y2="78.28" xlink:href="#linear-gradient-127"/><linearGradient id="linear-gradient-155" x1="31.87" y1="-32.99" x2="31.87" y2="52.92" xlink:href="#linear-gradient-127"/><linearGradient id="linear-gradient-156" x1="35.02" y1="56.99" x2="35.02" y2="29.82" xlink:href="#linear-gradient"/><linearGradient id="linear-gradient-157" x1="35.02" y1="9.66" x2="35.02" y2="78.02" xlink:href="#linear-gradient-127"/><linearGradient id="linear-gradient-158" x1="34.48" y1="56.99" x2="34.48" y2="29.82" xlink:href="#linear-gradient"/><linearGradient id="linear-gradient-159" x1="34.48" y1="9.66" x2="34.48" y2="78.03" xlink:href="#linear-gradient-127"/><linearGradient id="linear-gradient-160" x1="35.45" y1="57" x2="35.45" y2="29.83" xlink:href="#linear-gradient"/><linearGradient id="linear-gradient-161" x1="35.45" y1="9.65" x2="35.45" y2="78.04" xlink:href="#linear-gradient-127"/><linearGradient id="linear-gradient-162" x1="35.74" y1="56.99" x2="35.74" y2="29.82" xlink:href="#linear-gradient"/><linearGradient id="linear-gradient-163" x1="35.74" y1="9.65" x2="35.74" y2="78.03" xlink:href="#linear-gradient-127"/><linearGradient id="linear-gradient-164" x1="33.09" y1="56.99" x2="33.09" y2="29.82" xlink:href="#linear-gradient"/><linearGradient id="linear-gradient-165" x1="33.09" y1="9.66" x2="33.09" y2="78.03" xlink:href="#linear-gradient-127"/><linearGradient id="linear-gradient-166" x1="34.57" y1="56.99" x2="34.57" y2="29.82" xlink:href="#linear-gradient"/><linearGradient id="linear-gradient-167" x1="34.57" y1="9.66" x2="34.57" y2="78.03" xlink:href="#linear-gradient-127"/><linearGradient id="linear-gradient-169" x1="34.84" y1="56.99" x2="34.84" y2="29.82" xlink:href="#linear-gradient"/><linearGradient id="linear-gradient-170" x1="34.84" y1="9.66" x2="34.84" y2="78.03" xlink:href="#linear-gradient-127"/><linearGradient id="linear-gradient-171" x1="34.84" y1="-32.84" x2="34.84" y2="52.76" xlink:href="#linear-gradient-127"/><linearGradient id="linear-gradient-173" x1="12.67" y1="31.93" x2="41.84" y2="31.93" gradientUnits="userSpaceOnUse"><stop offset="0" stop-color="#fff"/><stop offset="0.79" stop-color="#d1d3d4"/></linearGradient><linearGradient id="linear-gradient-174" x1="7.93" y1="23.09" x2="46.25" y2="13.49" gradientUnits="userSpaceOnUse"><stop offset="0" stop-color="#3c51a2"/><stop offset="1" stop-color="#1d3075"/></linearGradient><linearGradient id="linear-gradient-175" x1="22.5" y1="20.9" x2="37.9" y2="6.34" gradientUnits="userSpaceOnUse"><stop offset="0" stop-color="#f9aa8f"/><stop offset="1" stop-color="#f78e6b"/></linearGradient><linearGradient id="linear-gradient-176" x1="23" y1="22.25" x2="24.66" y2="15.09" xlink:href="#linear-gradient-174"/><linearGradient id="linear-gradient-177" x1="4598.89" y1="10.45" x2="4604.5" y2="10.45" gradientTransform="matrix(-1, 0, 0, 1, 4632.73, 0)" gradientUnits="userSpaceOnUse"><stop offset="0" stop-color="#2b2d80"/><stop offset="0.1" stop-color="#2f3688"/><stop offset="0.33" stop-color="#364597"/><stop offset="0.61" stop-color="#3b4e9f"/><stop offset="1" stop-color="#3c51a2"/></linearGradient><linearGradient id="linear-gradient-178" x1="15.27" y1="51.22" x2="27.84" y2="51.22" gradientUnits="userSpaceOnUse"><stop offset="0" stop-color="#1c1651"/><stop offset="1" stop-color="#130f38"/></linearGradient><linearGradient id="linear-gradient-179" x1="18.79" y1="51.42" x2="32.5" y2="51.42" xlink:href="#linear-gradient-178"/><linearGradient id="linear-gradient-180" x1="20.9" y1="35.37" x2="54.04" y2="27.06" xlink:href="#linear-gradient-174"/><linearGradient id="linear-gradient-181" x1="25.76" y1="22.26" x2="27.3" y2="15.61" xlink:href="#linear-gradient-174"/><linearGradient id="linear-gradient-182" x1="26.96" y1="39.17" x2="52.9" y2="32.67" xlink:href="#linear-gradient-174"/><linearGradient id="linear-gradient-183" x1="30.14" y1="2.1" x2="34.02" y2="15.66" gradientUnits="userSpaceOnUse"><stop offset="0" stop-color="#e8bd00"/><stop offset="0.51" stop-color="#e88300"/><stop offset="1" stop-color="#d0471e"/></linearGradient><linearGradient id="linear-gradient-184" x1="30.67" y1="15.9" x2="36.17" y2="3.08" xlink:href="#linear-gradient-183"/></defs><title>passport check</title><g class="cls-1"><g id="Layer_1" data-name="Layer 1"><circle class="cls-2" cx="32" cy="31.66" r="28"/><path class="cls-3" d="M24.75,25.2a7.62,7.62,0,0,1,2.86,1.06,7.67,7.67,0,0,1,13.2.46,7.7,7.7,0,0,1,4,.09,7.66,7.66,0,0,1,6.38-3.41c.15,0,.29,0,.43,0h.68a.9.9,0,0,1,.38.08l.35.15c.19,0,.38.08.56.14a7.66,7.66,0,0,1,3.23-5,28,28,0,0,0-2.43-3.88H24.75Zm19.12-6.45h.67a.9.9,0,0,1,.38.08l.88.39L47,18.67a.35.35,0,0,1,.25,0,.08.08,0,0,1,0,.13l-.85.69.82.36a.22.22,0,0,0,.19,0l.19-.1a.19.19,0,0,1,.17,0l.06,0a.08.08,0,0,1,0,.13l-.4.39a.21.21,0,0,1-.22,0l-.84-.3L46,19.87h0l-.89-.3-1.25-.45a.18.18,0,0,1,.06-.36Zm-8.39-.12h0a.3.3,0,0,0,.25-.13,1.86,1.86,0,0,1,2.62-.5.65.65,0,0,0,.45.11H39a1.42,1.42,0,0,1,1.42,1.42H34.59A.89.89,0,0,1,35.48,18.63Zm-5.79,1.87h0a.3.3,0,0,0,.25-.13,1.86,1.86,0,0,1,2.62-.5A.65.65,0,0,0,33,20h.17a1.42,1.42,0,0,1,1.42,1.42H28.8A.89.89,0,0,1,29.69,20.51Z"/><path class="cls-4" d="M53.62,23.78c-.18-.06-.37-.09-.56-.14l.53.23,1.23-.53a.35.35,0,0,1,.25,0,.08.08,0,0,1,0,.13l-.85.69.82.36a.22.22,0,0,0,.19,0l.19-.1a.19.19,0,0,1,.17,0l.06,0a.08.08,0,0,1,0,.13l-.4.39a.21.21,0,0,1-.22,0l-.84-.3-1.39-.47-.05,0h0l-1.19-.43a.18.18,0,0,1,.05-.35c-.15,0-.29,0-.43,0a7.66,7.66,0,0,0-6.38,3.41,7.7,7.7,0,0,0-4-.09,7.67,7.67,0,0,0-13.2-.46,7.62,7.62,0,0,0-2.86-1.06v2.55h1.72v3.31h1.21v.66h6.65V33H37V29.28a.91.91,0,0,1,.91-.91,3.57,3.57,0,0,1,3.57,3.57v1.87H46.3a2.64,2.64,0,0,1,.23-1.09A4.62,4.62,0,0,1,49,30.34l.55-.23.31-.14a7.72,7.72,0,0,0,1-.53l1.1-.72h0l.61-.4a5,5,0,0,1,2.75-.82h4.4a27.79,27.79,0,0,0-2.85-8.76A7.66,7.66,0,0,0,53.62,23.78Z"/><path class="cls-5" d="M53.62,23.78c-.18-.06-.37-.09-.56-.14l.53.23,1.23-.53a.35.35,0,0,1,.25,0,.08.08,0,0,1,0,.13l-.85.69.82.36a.22.22,0,0,0,.19,0l.19-.1a.19.19,0,0,1,.17,0l.06,0a.08.08,0,0,1,0,.13l-.4.39a.21.21,0,0,1-.22,0l-.84-.3-1.39-.47-.05,0h0l-1.19-.43a.18.18,0,0,1,.05-.35c-.15,0-.29,0-.43,0a7.66,7.66,0,0,0-6.38,3.41,7.7,7.7,0,0,0-4-.09,7.67,7.67,0,0,0-13.2-.46,7.62,7.62,0,0,0-2.86-1.06v2.55h1.72v3.31h1.21v.66h6.65V33H37V29.28a.91.91,0,0,1,.91-.91,3.57,3.57,0,0,1,3.57,3.57v1.87H46.3a2.64,2.64,0,0,1,.23-1.09A4.62,4.62,0,0,1,49,30.34l.55-.23.31-.14a7.72,7.72,0,0,0,1-.53l1.1-.72h0l.61-.4a5,5,0,0,1,2.75-.82h4.4a27.79,27.79,0,0,0-2.85-8.76A7.66,7.66,0,0,0,53.62,23.78Z"/><path class="cls-6" d="M24.75,34.62v.28a1.54,1.54,0,0,0,1.54,1.54h.28A1.82,1.82,0,0,1,24.75,34.62Z"/><path class="cls-7" d="M24.75,34.53v.09a1.82,1.82,0,0,0,1.82,1.82h.09A1.91,1.91,0,0,1,24.75,34.53Z"/><path class="cls-8" d="M24.75,34.53v.09a1.82,1.82,0,0,0,1.82,1.82h.09A1.91,1.91,0,0,1,24.75,34.53Z"/><path class="cls-9" d="M46.54,34.9a2.64,2.64,0,0,1-.24-1.09H41.44V31.94a3.57,3.57,0,0,0-3.57-3.57.91.91,0,0,0-.91.91V33H34.34V31.72H27.68v-.66H26.48V27.75H24.75v6.77a1.91,1.91,0,0,0,1.91,1.91H48.93A2.64,2.64,0,0,1,46.54,34.9Z"/><path class="cls-10" d="M46.54,34.9a2.64,2.64,0,0,1-.24-1.09H41.44V31.94a3.57,3.57,0,0,0-3.57-3.57.91.91,0,0,0-.91.91V33H34.34V31.72H27.68v-.66H26.48V27.75H24.75v6.77a1.91,1.91,0,0,0,1.91,1.91H48.93A2.64,2.64,0,0,1,46.54,34.9Z"/><path class="cls-11" d="M46.54,34.9a2.64,2.64,0,0,1-.24-1.09H41.44V31.94a3.57,3.57,0,0,0-3.57-3.57.91.91,0,0,0-.91.91V33H34.34V31.72H27.68v-.66H26.48V27.75H24.75v6.77a1.91,1.91,0,0,0,1.91,1.91H48.93A2.64,2.64,0,0,1,46.54,34.9Z"/><path class="cls-12" d="M58.35,33.81h1.56q0-.58.07-1.18a7.61,7.61,0,0,1-1.2-.29A7.56,7.56,0,0,1,58.35,33.81Z"/><path class="cls-13" d="M58.35,33.81h1.56q0-.58.07-1.18a7.61,7.61,0,0,1-1.2-.29A7.56,7.56,0,0,1,58.35,33.81Z"/><path class="cls-14" d="M52.54,28.32l-.61.4h1.68a.71.71,0,0,1,0,1.41h-3.5a.7.7,0,0,1-.37-.1l.1-.05-.31.14-.55.23a4.62,4.62,0,0,0-2.46,2.38,2.64,2.64,0,0,0-.23,1.09H58.35a7.56,7.56,0,0,0,.42-1.46,7.61,7.61,0,0,0,1.2.29c0-.33,0-.65,0-1a28.21,28.21,0,0,0-.31-4.15h-4.4A5,5,0,0,0,52.54,28.32Z"/><path class="cls-15" d="M52.54,28.32l-.61.4h1.68a.71.71,0,0,1,0,1.41h-3.5a.7.7,0,0,1-.37-.1l.1-.05-.31.14-.55.23a4.62,4.62,0,0,0-2.46,2.38,2.64,2.64,0,0,0-.23,1.09H58.35a7.56,7.56,0,0,0,.42-1.46,7.61,7.61,0,0,0,1.2.29c0-.33,0-.65,0-1a28.21,28.21,0,0,0-.31-4.15h-4.4A5,5,0,0,0,52.54,28.32Z"/><path class="cls-16" d="M52.54,28.32l-.61.4h1.68a.71.71,0,0,1,0,1.41h-3.5a.7.7,0,0,1-.37-.1l.1-.05-.31.14-.55.23a4.62,4.62,0,0,0-2.46,2.38,2.64,2.64,0,0,0-.23,1.09H58.35a7.56,7.56,0,0,0,.42-1.46,7.61,7.61,0,0,0,1.2.29c0-.33,0-.65,0-1a28.21,28.21,0,0,0-.31-4.15h-4.4A5,5,0,0,0,52.54,28.32Z"/><path class="cls-17" d="M56.68,36.44h2.9q.22-1.29.32-2.62H58.35A7.67,7.67,0,0,1,56.68,36.44Z"/><path class="cls-18" d="M56.68,36.44h2.9q.22-1.29.32-2.62H58.35A7.67,7.67,0,0,1,56.68,36.44Z"/><path class="cls-19" d="M56.68,36.44h2.9q.22-1.29.32-2.62H58.35A7.67,7.67,0,0,1,56.68,36.44Z"/><path class="cls-20" d="M46.3,33.81a2.64,2.64,0,0,0,2.64,2.62h7.75a7.67,7.67,0,0,0,1.67-2.62Z"/><path class="cls-21" d="M46.3,33.81a2.64,2.64,0,0,0,2.64,2.62h7.75a7.67,7.67,0,0,0,1.67-2.62Z"/><path class="cls-22" d="M46.3,33.81a2.64,2.64,0,0,0,2.64,2.62h7.75a7.67,7.67,0,0,0,1.67-2.62Z"/><path class="cls-23" d="M46.3,33.81a2.64,2.64,0,0,0,2.64,2.62h7.75a7.67,7.67,0,0,0,1.67-2.62Z"/><path class="cls-24" d="M49.85,30a7.7,7.7,0,0,0,1-.53A7.72,7.72,0,0,1,49.85,30Z"/><path class="cls-25" d="M49.85,30a7.7,7.7,0,0,0,1-.53A7.72,7.72,0,0,1,49.85,30Z"/><path class="cls-26" d="M49.85,30a7.7,7.7,0,0,0,1-.53A7.72,7.72,0,0,1,49.85,30Z"/><polygon class="cls-27" points="51.93 28.72 50.83 29.44 51.93 28.72 51.93 28.72"/><polygon class="cls-28" points="51.93 28.72 50.83 29.44 51.93 28.72 51.93 28.72"/><polygon class="cls-29" points="51.93 28.72 50.83 29.44 51.93 28.72 51.93 28.72"/><path class="cls-30" d="M50.12,30.13h3.5a.71.71,0,0,0,0-1.41H51.93l-1.1.72a7.7,7.7,0,0,1-1,.53l-.1.05A.7.7,0,0,0,50.12,30.13Z"/><path class="cls-31" d="M50.12,30.13h3.5a.71.71,0,0,0,0-1.41H51.93l-1.1.72a7.7,7.7,0,0,1-1,.53l-.1.05A.7.7,0,0,0,50.12,30.13Z"/><path class="cls-32" d="M50.12,30.13h3.5a.71.71,0,0,0,0-1.41H51.93l-1.1.72a7.7,7.7,0,0,1-1,.53l-.1.05A.7.7,0,0,0,50.12,30.13Z"/><path class="cls-33" d="M50.12,30.13h3.5a.71.71,0,0,0,0-1.41H51.93l-1.1.72a7.7,7.7,0,0,1-1,.53l-.1.05A.7.7,0,0,0,50.12,30.13Z"/><path class="cls-34" d="M6.21,28.14h.38a7.66,7.66,0,0,1,6.62-4.41.63.63,0,0,1-.06-.12L13,23.11h0l-.37-1.29h0a.08.08,0,0,1-.08-.08v-.16a.33.33,0,0,1,.33-.33h1.41l.34-3.94a0,0,0,0,1,.09,0l.34,3.94h1.29a.33.33,0,0,1,.33.33v.16a.08.08,0,0,1-.08.08h0l-.51,1.8a.64.64,0,0,1-.37.41,7.64,7.64,0,0,1,2.71,1.43,7.66,7.66,0,0,1,2.3-.35l.57,0V17a2.13,2.13,0,0,0-2.13-2.13H9.58A28,28,0,0,0,6.52,20a.48.48,0,0,1,.26.42H6.33a27.78,27.78,0,0,0-1.78,5.66A7.69,7.69,0,0,1,6.21,28.14Zm1-7h.08a.31.31,0,0,0,.22-.05.89.89,0,0,1,1.26.24.14.14,0,0,0,.12.06h0a.43.43,0,0,1,.43.43H6.55A.68.68,0,0,1,7.24,21.14Z"/><path class="cls-35" d="M21.27,36.44h0V34.32c0,.07,0,.13,0,.2Z"/><path class="cls-36" d="M19.23,36.44h0Z"/><path class="cls-37" d="M19.23,36.44h0Z"/><path class="cls-38" d="M18.42,25.46A7.64,7.64,0,0,0,15.7,24a.63.63,0,0,1-.25.05.2.2,0,0,0-.2.22l.51,5.14h1.91v2.2H19v.68H20V27.75h1.29v6.76c0-.07,0-.13,0-.2V25.13l-.57,0A7.66,7.66,0,0,0,18.42,25.46Z"/><path class="cls-39" d="M18.42,25.46A7.64,7.64,0,0,0,15.7,24a.63.63,0,0,1-.25.05.2.2,0,0,0-.2.22l.51,5.14h1.91v2.2H19v.68H20V27.75h1.29v6.76c0-.07,0-.13,0-.2V25.13l-.57,0A7.66,7.66,0,0,0,18.42,25.46Z"/><path class="cls-40" d="M5.35,31.83h0A1.49,1.49,0,0,1,7,31.6l1.71.85a1.13,1.13,0,0,0,1.16-.1l1.67-1.21A1.15,1.15,0,0,1,12.69,31l.59.26.69-7a.2.2,0,0,0-.2-.22.63.63,0,0,1-.56-.34,7.66,7.66,0,0,0-6.62,4.41H6.21a7.69,7.69,0,0,0-1.67-2A28.12,28.12,0,0,0,4,31.66c0,.07,0,.13,0,.2l.16.09A1,1,0,0,0,5.35,31.83Z"/><path class="cls-41" d="M5.35,31.83h0A1.49,1.49,0,0,1,7,31.6l1.71.85a1.13,1.13,0,0,0,1.16-.1l1.67-1.21A1.15,1.15,0,0,1,12.69,31l.59.26.69-7a.2.2,0,0,0-.2-.22.63.63,0,0,1-.56-.34,7.66,7.66,0,0,0-6.62,4.41H6.21a7.69,7.69,0,0,0-1.67-2A28.12,28.12,0,0,0,4,31.66c0,.07,0,.13,0,.2l.16.09A1,1,0,0,0,5.35,31.83Z"/><path class="cls-42" d="M14.72,17.32a0,0,0,0,0-.09,0l-.34,3.94h.78Z"/><path class="cls-43" d="M14.72,17.32a0,0,0,0,0-.09,0l-.34,3.94h.78Z"/><path class="cls-44" d="M10.41,33.25a2.69,2.69,0,0,1,1.9-.79h.86l.12-1.19L12.69,31a1.15,1.15,0,0,0-1.13.12L9.9,32.36a1.13,1.13,0,0,1-1.16.1L7,31.6a1.49,1.49,0,0,0-1.66.23h0A1,1,0,0,1,4.16,32L4,31.86c0,.67,0,1.34.09,2H9.8Z"/><path class="cls-45" d="M10.41,33.25a2.69,2.69,0,0,1,1.9-.79h.86l.12-1.19L12.69,31a1.15,1.15,0,0,0-1.13.12L9.9,32.36a1.13,1.13,0,0,1-1.16.1L7,31.6a1.49,1.49,0,0,0-1.66.23h0A1,1,0,0,1,4.16,32L4,31.86c0,.67,0,1.34.09,2H9.8Z"/><path class="cls-46" d="M10.41,33.25a2.69,2.69,0,0,1,1.9-.79h.86l.12-1.19L12.69,31a1.15,1.15,0,0,0-1.13.12L9.9,32.36a1.13,1.13,0,0,1-1.16.1L7,31.6a1.49,1.49,0,0,0-1.66.23h0A1,1,0,0,1,4.16,32L4,31.86c0,.67,0,1.34.09,2H9.8Z"/><path class="cls-47" d="M6.78,20.47A.48.48,0,0,0,6.52,20l-.19.42h.45Z"/><path class="cls-48" d="M6.78,20.47A.48.48,0,0,0,6.52,20l-.19.42h.45Z"/><path class="cls-49" d="M7.92,21.82H9.34a.43.43,0,0,0-.43-.43h0a.14.14,0,0,1-.12-.06.89.89,0,0,0-1.26-.24.31.31,0,0,1-.22.05H7.24a.68.68,0,0,0-.68.68H7.92Z"/><path class="cls-50" d="M7.92,21.82H9.34a.43.43,0,0,0-.43-.43h0a.14.14,0,0,1-.12-.06.89.89,0,0,0-1.26-.24.31.31,0,0,1-.22.05H7.24a.68.68,0,0,0-.68.68H7.92Z"/><path class="cls-51" d="M30.58,21.4h4A1.42,1.42,0,0,0,33.2,20H33a.65.65,0,0,1-.45-.11,1.86,1.86,0,0,0-2.62.5.3.3,0,0,1-.25.13h0a.89.89,0,0,0-.89.89h1.78Z"/><path class="cls-52" d="M30.58,21.4h4A1.42,1.42,0,0,0,33.2,20H33a.65.65,0,0,1-.45-.11,1.86,1.86,0,0,0-2.62.5.3.3,0,0,1-.25.13h0a.89.89,0,0,0-.89.89h1.78Z"/><path class="cls-53" d="M36.37,19.52h4A1.42,1.42,0,0,0,39,18.1h-.17a.65.65,0,0,1-.45-.11,1.86,1.86,0,0,0-2.62.5.3.3,0,0,1-.25.13h0a.89.89,0,0,0-.89.89h1.78Z"/><path class="cls-54" d="M36.37,19.52h4A1.42,1.42,0,0,0,39,18.1h-.17a.65.65,0,0,1-.45-.11,1.86,1.86,0,0,0-2.62.5.3.3,0,0,1-.25.13h0a.89.89,0,0,0-.89.89h1.78Z"/><path class="cls-55" d="M15.7,24a.64.64,0,0,0,.37-.41l.51-1.8-.37,1.29h-.79l.24-1.29h-.12l-.24,1.29h-.63V21.82h-.12v1.29h-.63l-.24-1.29h-.12l.24,1.29H13l.15.51a.63.63,0,0,0,.06.12l.33,0A7.65,7.65,0,0,1,15.7,24Z"/><path class="cls-56" d="M15.7,24a.64.64,0,0,0,.37-.41l.51-1.8-.37,1.29h-.79l.24-1.29h-.12l-.24,1.29h-.63V21.82h-.12v1.29h-.63l-.24-1.29h-.12l.24,1.29H13l.15.51a.63.63,0,0,0,.06.12l.33,0A7.65,7.65,0,0,1,15.7,24Z"/><path class="cls-57" d="M21.27,34.52a2.12,2.12,0,0,1-2,1.92h2Z"/><path class="cls-58" d="M21.27,34.52a2.12,2.12,0,0,1-2,1.92h2Z"/><path class="cls-59" d="M21.27,34.52V27.75H20v4.58H19v-.68H17.68v-2.2h-.91l-.68,2.87H15.7l2,.87-.43,3.25h1.94A2.12,2.12,0,0,0,21.27,34.52Z"/><path class="cls-60" d="M21.27,34.52V27.75H20v4.58H19v-.68H17.68v-2.2h-.91l-.68,2.87H15.7l2,.87-.43,3.25h1.94A2.12,2.12,0,0,0,21.27,34.52Z"/><path class="cls-61" d="M21.27,34.52V27.75H20v4.58H19v-.68H17.68v-2.2h-.91l-.68,2.87H15.7l2,.87-.43,3.25h1.94A2.12,2.12,0,0,0,21.27,34.52Z"/><path class="cls-62" d="M15.76,29.45l-.51-5.14a.2.2,0,0,1,.2-.22A.63.63,0,0,0,15.7,24a7.65,7.65,0,0,0-2.16-.31l-.33,0a.63.63,0,0,0,.56.34.2.2,0,0,1,.2.22l-.69,7,2,.87v-2.7Z"/><path class="cls-63" d="M15.76,29.45l-.51-5.14a.2.2,0,0,1,.2-.22A.63.63,0,0,0,15.7,24a7.65,7.65,0,0,0-2.16-.31l-.33,0a.63.63,0,0,0,.56.34.2.2,0,0,1,.2.22l-.69,7,2,.87v-2.7Z"/><path class="cls-64" d="M15.76,29.45l-.51-5.14a.2.2,0,0,1,.2-.22A.63.63,0,0,0,15.7,24a7.65,7.65,0,0,0-2.16-.31l-.33,0a.63.63,0,0,0,.56.34.2.2,0,0,1,.2.22l-.69,7,2,.87v-2.7Z"/><path class="cls-65" d="M17.71,33.19l-2-.87h-.4v-.17l-2-.87-.12,1.19h-.86a2.69,2.69,0,0,0-1.9.79l-.6.6H4.09q.1,1.31.32,2.58H17.28Z"/><path class="cls-66" d="M17.71,33.19l-2-.87h-.4v-.17l-2-.87-.12,1.19h-.86a2.69,2.69,0,0,0-1.9.79l-.6.6H4.09q.1,1.31.32,2.58H17.28Z"/><path class="cls-67" d="M17.71,33.19l-2-.87h-.4v-.17l-2-.87-.12,1.19h-.86a2.69,2.69,0,0,0-1.9.79l-.6.6H4.09q.1,1.31.32,2.58H17.28Z"/><path class="cls-68" d="M17.71,33.19l-2-.87h-.4v-.17l-2-.87-.12,1.19h-.86a2.69,2.69,0,0,0-1.9.79l-.6.6H4.09q.1,1.31.32,2.58H17.28Z"/><polygon class="cls-69" points="16.77 29.45 15.76 29.45 15.3 29.45 15.3 32.15 15.7 32.32 16.08 32.32 16.77 29.45"/><polygon class="cls-70" points="16.77 29.45 15.76 29.45 15.3 29.45 15.3 32.15 15.7 32.32 16.08 32.32 16.77 29.45"/><polygon class="cls-71" points="16.77 29.45 15.76 29.45 15.3 29.45 15.3 32.15 15.7 32.32 16.08 32.32 16.77 29.45"/><polygon class="cls-72" points="16.77 29.45 15.76 29.45 15.3 29.45 15.3 32.15 15.7 32.32 16.08 32.32 16.77 29.45"/><polygon class="cls-73" points="15.3 32.32 15.7 32.32 15.3 32.15 15.3 32.32"/><polygon class="cls-74" points="15.3 32.32 15.7 32.32 15.3 32.15 15.3 32.32"/><polygon class="cls-75" points="15.3 32.32 15.7 32.32 15.3 32.15 15.3 32.32"/><polygon class="cls-76" points="15.3 32.32 15.7 32.32 15.3 32.15 15.3 32.32"/><polygon class="cls-77" points="15.3 32.32 15.7 32.32 15.3 32.15 15.3 32.32"/><polygon class="cls-78" points="13.93 23.11 14.55 23.11 14.55 21.82 13.69 21.82 13.93 23.11"/><polygon class="cls-79" points="13.93 23.11 14.55 23.11 14.55 21.82 13.69 21.82 13.93 23.11"/><polygon class="cls-80" points="13.93 23.11 14.55 23.11 14.55 21.82 13.69 21.82 13.93 23.11"/><polygon class="cls-81" points="14.68 23.11 15.3 23.11 15.54 21.82 14.68 21.82 14.68 23.11"/><polygon class="cls-82" points="14.68 23.11 15.3 23.11 15.54 21.82 14.68 21.82 14.68 23.11"/><polygon class="cls-83" points="14.68 23.11 15.3 23.11 15.54 21.82 14.68 21.82 14.68 23.11"/><polygon class="cls-84" points="13.01 23.11 13.01 23.11 12.64 21.82 13.01 23.11"/><polygon class="cls-85" points="13.01 23.11 13.01 23.11 12.64 21.82 13.01 23.11"/><polygon class="cls-86" points="13.56 21.82 12.64 21.82 13.01 23.11 13.8 23.11 13.56 21.82"/><polygon class="cls-87" points="13.56 21.82 12.64 21.82 13.01 23.11 13.8 23.11 13.56 21.82"/><polygon class="cls-88" points="13.56 21.82 12.64 21.82 13.01 23.11 13.8 23.11 13.56 21.82"/><polygon class="cls-89" points="15.43 23.11 16.22 23.11 16.59 21.82 15.67 21.82 15.43 23.11"/><polygon class="cls-90" points="15.43 23.11 16.22 23.11 16.59 21.82 15.67 21.82 15.43 23.11"/><polygon class="cls-91" points="15.43 23.11 16.22 23.11 16.59 21.82 15.67 21.82 15.43 23.11"/><path class="cls-92" d="M14.68,21.82h1.93a.08.08,0,0,0,.08-.08v-.16a.33.33,0,0,0-.33-.33H15.07v.16Z"/><path class="cls-93" d="M14.68,21.82h1.93a.08.08,0,0,0,.08-.08v-.16a.33.33,0,0,0-.33-.33H15.07v.16Z"/><path class="cls-94" d="M13.69,21.82h1l-.4-.4v-.16H12.87a.33.33,0,0,0-.33.33v.16a.08.08,0,0,0,.08.08h1.07Z"/><path class="cls-95" d="M13.69,21.82h1l-.4-.4v-.16H12.87a.33.33,0,0,0-.33.33v.16a.08.08,0,0,0,.08.08h1.07Z"/><polygon class="cls-96" points="14.68 21.82 15.08 21.42 15.06 21.26 14.29 21.26 14.28 21.42 14.68 21.82"/><polygon class="cls-97" points="14.68 21.82 15.08 21.42 15.06 21.26 14.29 21.26 14.28 21.42 14.68 21.82"/><polygon class="cls-98" points="14.68 21.82 15.08 21.42 15.06 21.26 14.29 21.26 14.28 21.42 14.68 21.82"/><path class="cls-99" d="M52.71,23.49a.9.9,0,0,0-.38-.08h-.68a7.63,7.63,0,0,1,1.41.21Z"/><path class="cls-100" d="M52.71,23.49a.9.9,0,0,0-.38-.08h-.68a7.63,7.63,0,0,1,1.41.21Z"/><path class="cls-101" d="M52.79,24.22l.05,0,1.39.47.84.3a.21.21,0,0,0,.22,0l.4-.39a.08.08,0,0,0,0-.13l-.06,0a.19.19,0,0,0-.17,0l-.19.1a.22.22,0,0,1-.19,0l-.82-.36-.48.38Z"/><path class="cls-102" d="M52.79,24.22l.05,0,1.39.47.84.3a.21.21,0,0,0,.22,0l.4-.39a.08.08,0,0,0,0-.13l-.06,0a.19.19,0,0,0-.17,0l-.19.1a.22.22,0,0,1-.19,0l-.82-.36-.48.38Z"/><path class="cls-103" d="M52.79,24.22l.05,0,1.39.47.84.3a.21.21,0,0,0,.22,0l.4-.39a.08.08,0,0,0,0-.13l-.06,0a.19.19,0,0,0-.17,0l-.19.1a.22.22,0,0,1-.19,0l-.82-.36-.48.38Z"/><path class="cls-104" d="M51.49,23.55a.18.18,0,0,0,.11.24l1.19.43.79-.34-.53-.23a7.63,7.63,0,0,0-1.41-.21A.18.18,0,0,0,51.49,23.55Z"/><path class="cls-105" d="M51.49,23.55a.18.18,0,0,0,.11.24l1.19.43.79-.34-.53-.23a7.63,7.63,0,0,0-1.41-.21A.18.18,0,0,0,51.49,23.55Z"/><path class="cls-106" d="M51.49,23.55a.18.18,0,0,0,.11.24l1.19.43.79-.34-.53-.23a7.63,7.63,0,0,0-1.41-.21A.18.18,0,0,0,51.49,23.55Z"/><path class="cls-107" d="M55.09,23.47a.08.08,0,0,0,0-.13.35.35,0,0,0-.25,0l-1.23.53.65.29Z"/><path class="cls-108" d="M55.09,23.47a.08.08,0,0,0,0-.13.35.35,0,0,0-.25,0l-1.23.53.65.29Z"/><path class="cls-109" d="M55.09,23.47a.08.08,0,0,0,0-.13.35.35,0,0,0-.25,0l-1.23.53.65.29Z"/><polygon class="cls-110" points="52.79 24.22 52.79 24.22 52.79 24.22 52.79 24.22"/><polygon class="cls-111" points="52.79 24.22 52.79 24.22 52.79 24.22 52.79 24.22"/><polygon class="cls-112" points="52.79 24.22 52.79 24.22 52.79 24.22 52.79 24.22"/><polygon class="cls-113" points="52.79 24.22 53.76 24.55 54.23 24.16 53.58 23.88 52.79 24.22 52.79 24.22"/><polygon class="cls-114" points="52.79 24.22 53.76 24.55 54.23 24.16 53.58 23.88 52.79 24.22 52.79 24.22"/><polygon class="cls-115" points="52.79 24.22 53.76 24.55 54.23 24.16 53.58 23.88 52.79 24.22 52.79 24.22"/><polygon class="cls-116" points="52.79 24.22 53.76 24.55 54.23 24.16 53.58 23.88 52.79 24.22 52.79 24.22"/><path class="cls-117" d="M43.82,19.11l1.25.45.89.3L45,19.54l.79-.34-.88-.39a.9.9,0,0,0-.38-.08h-.67a.18.18,0,0,0-.06.36Z"/><path class="cls-118" d="M43.82,19.11l1.25.45.89.3L45,19.54l.79-.34-.88-.39a.9.9,0,0,0-.38-.08h-.67a.18.18,0,0,0-.06.36Z"/><path class="cls-119" d="M46.45,20l.84.3a.21.21,0,0,0,.22,0l.4-.39a.08.08,0,0,0,0-.13l-.06,0a.19.19,0,0,0-.17,0l-.19.1a.22.22,0,0,1-.19,0l-.82-.36-.48.38Z"/><path class="cls-120" d="M46.45,20l.84.3a.21.21,0,0,0,.22,0l.4-.39a.08.08,0,0,0,0-.13l-.06,0a.19.19,0,0,0-.17,0l-.19.1a.22.22,0,0,1-.19,0l-.82-.36-.48.38Z"/><path class="cls-121" d="M47.31,18.79a.08.08,0,0,0,0-.13.35.35,0,0,0-.25,0l-1.23.53.65.29Z"/><path class="cls-122" d="M47.31,18.79a.08.08,0,0,0,0-.13.35.35,0,0,0-.25,0l-1.23.53.65.29Z"/><polygon class="cls-123" points="45.98 19.87 45.98 19.87 45.95 19.86 45.98 19.87"/><polygon class="cls-124" points="45.98 19.87 45.98 19.87 45.95 19.86 45.98 19.87"/><polygon class="cls-125" points="45.95 19.86 45.98 19.87 46.45 19.48 45.8 19.2 45.01 19.54 45.95 19.86"/><polygon class="cls-126" points="45.95 19.86 45.98 19.87 46.45 19.48 45.8 19.2 45.01 19.54 45.95 19.86"/><polygon class="cls-127" points="45.95 19.86 45.98 19.87 46.45 19.48 45.8 19.2 45.01 19.54 45.95 19.86"/><circle class="cls-128" cx="46.06" cy="46.55" r="0.24"/><circle class="cls-129" cx="44.5" cy="46.55" r="0.24"/><circle class="cls-130" cx="42.94" cy="46.55" r="0.24"/><circle class="cls-131" cx="46.06" cy="44.23" r="0.24"/><circle class="cls-132" cx="44.5" cy="44.23" r="0.24"/><circle class="cls-133" cx="42.94" cy="44.23" r="0.24"/><circle class="cls-134" cx="46.06" cy="41.9" r="0.24"/><circle class="cls-135" cx="44.5" cy="41.9" r="0.24"/><circle class="cls-136" cx="42.94" cy="41.9" r="0.24"/><path class="cls-137" d="M35.79,13.3a4.64,4.64,0,0,1,.08.86A4.6,4.6,0,0,0,35.79,13.3Z"/><path class="cls-138" d="M35.79,13.3a4.64,4.64,0,0,1,.08.86A4.6,4.6,0,0,0,35.79,13.3Z"/><path class="cls-139" d="M15.49,51.76V14.16a4.68,4.68,0,0,1,4.66-4.66H31.21l.37,0a2.37,2.37,0,0,0-.38,0,2.37,2.37,0,0,1,.42,0c.13,0,.25,0,.38.07V7.85l-.27,0H19.17a5.51,5.51,0,0,0-5.49,5.49V52.82q.88.76,1.82,1.45C15.49,52.75,15.49,51.77,15.49,51.76Z"/><path class="cls-140" d="M15.49,51.76V14.16a4.68,4.68,0,0,1,4.66-4.66H31.21l.37,0a2.37,2.37,0,0,0-.38,0,2.37,2.37,0,0,1,.42,0c.13,0,.25,0,.38.07V7.85l-.27,0H19.17a5.51,5.51,0,0,0-5.49,5.49V52.82q.88.76,1.82,1.45C15.49,52.75,15.49,51.77,15.49,51.76Z"/><path class="cls-141" d="M34.17,10.58l.05,0Z"/><path class="cls-142" d="M34.17,10.58l.05,0Z"/><path class="cls-143" d="M34.73,11.13l.11.14Z"/><path class="cls-144" d="M34.73,11.13l.11.14Z"/><path class="cls-145" d="M35.56,12.5a4.66,4.66,0,0,1,.13.45A4.62,4.62,0,0,0,35.56,12.5Z"/><path class="cls-146" d="M35.56,12.5a4.66,4.66,0,0,1,.13.45A4.62,4.62,0,0,0,35.56,12.5Z"/><path class="cls-147" d="M35.2,11.77c.05.09.09.18.14.27C35.29,12,35.25,11.86,35.2,11.77Z"/><path class="cls-148" d="M35.2,11.77c.05.09.09.18.14.27C35.29,12,35.25,11.86,35.2,11.77Z"/><path class="cls-149" d="M27,14.16A4.68,4.68,0,0,1,31.2,9.51a2.37,2.37,0,0,1,.38,0l-.37,0H20.15a4.68,4.68,0,0,0-4.66,4.66v37.6s0,1,0,2.51A27.85,27.85,0,0,0,27,59.2c0-4,0-7.42,0-7.44Z"/><path class="cls-150" d="M27,14.16A4.68,4.68,0,0,1,31.2,9.51a2.37,2.37,0,0,1,.38,0l-.37,0H20.15a4.68,4.68,0,0,0-4.66,4.66v37.6s0,1,0,2.51A27.85,27.85,0,0,0,27,59.2c0-4,0-7.42,0-7.44Z"/><path class="cls-151" d="M27,14.16A4.68,4.68,0,0,1,31.2,9.51a2.37,2.37,0,0,1,.38,0l-.37,0H20.15a4.68,4.68,0,0,0-4.66,4.66v37.6s0,1,0,2.51A27.85,27.85,0,0,0,27,59.2c0-4,0-7.42,0-7.44Z"/><path class="cls-152" d="M44.83,7.83H32.19a5.51,5.51,0,0,1,5.49,5.49V59.08a27.9,27.9,0,0,0,12.64-6.26V13.32A5.51,5.51,0,0,0,44.83,7.83Z"/><path class="cls-153" d="M44.83,7.83H32.19a5.51,5.51,0,0,1,5.49,5.49V59.08a27.9,27.9,0,0,0,12.64-6.26V13.32A5.51,5.51,0,0,0,44.83,7.83Z"/><path class="cls-154" d="M32,7.85v0h-.27Z"/><path class="cls-155" d="M32,7.85v0h-.27Z"/><path class="cls-156" d="M32,7.85v0h-.27Z"/><path class="cls-157" d="M34.84,11.27a4.64,4.64,0,0,1,.36.5A4.65,4.65,0,0,0,34.84,11.27Z"/><path class="cls-158" d="M34.84,11.27a4.64,4.64,0,0,1,.36.5A4.65,4.65,0,0,0,34.84,11.27Z"/><path class="cls-159" d="M34.22,10.63a4.71,4.71,0,0,1,.51.5A4.69,4.69,0,0,0,34.22,10.63Z"/><path class="cls-160" d="M34.22,10.63a4.71,4.71,0,0,1,.51.5A4.69,4.69,0,0,0,34.22,10.63Z"/><path class="cls-161" d="M35.34,12a4.56,4.56,0,0,1,.22.45A4.62,4.62,0,0,0,35.34,12Z"/><path class="cls-162" d="M35.34,12a4.56,4.56,0,0,1,.22.45A4.62,4.62,0,0,0,35.34,12Z"/><path class="cls-163" d="M35.69,12.95c0,.12.07.23.1.35C35.77,13.18,35.72,13.06,35.69,12.95Z"/><path class="cls-164" d="M35.69,12.95c0,.12.07.23.1.35C35.77,13.18,35.72,13.06,35.69,12.95Z"/><path class="cls-165" d="M34.17,10.58a4.63,4.63,0,0,0-2.17-1h0A4.69,4.69,0,0,1,34.17,10.58Z"/><path class="cls-166" d="M34.17,10.58a4.63,4.63,0,0,0-2.17-1h0A4.69,4.69,0,0,1,34.17,10.58Z"/><path class="cls-167" d="M37.14,13.32A5.5,5.5,0,0,0,32,7.85V9.58a4.63,4.63,0,0,1,2.17,1l.05,0a4.69,4.69,0,0,1,.51.5l.11.14a4.65,4.65,0,0,1,.36.5c.05.09.09.18.14.27a4.62,4.62,0,0,1,.22.45,4.62,4.62,0,0,1,.13.45c0,.12.07.23.1.35a4.6,4.6,0,0,1,.08.86v37.6s0,3.53,0,7.63q.65-.09,1.3-.21Z"/><path class="cls-168" d="M37.14,13.32A5.5,5.5,0,0,0,32,7.85V9.58a4.63,4.63,0,0,1,2.17,1l.05,0a4.69,4.69,0,0,1,.51.5l.11.14a4.65,4.65,0,0,1,.36.5c.05.09.09.18.14.27a4.62,4.62,0,0,1,.22.45,4.62,4.62,0,0,1,.13.45c0,.12.07.23.1.35a4.6,4.6,0,0,1,.08.86v37.6s0,3.53,0,7.63q.65-.09,1.3-.21Z"/><path class="cls-168" d="M37.14,13.32A5.5,5.5,0,0,0,32,7.85V9.58a4.63,4.63,0,0,1,2.17,1l.05,0a4.69,4.69,0,0,1,.51.5l.11.14a4.65,4.65,0,0,1,.36.5c.05.09.09.18.14.27a4.62,4.62,0,0,1,.22.45,4.62,4.62,0,0,1,.13.45c0,.12.07.23.1.35a4.6,4.6,0,0,1,.08.86v37.6s0,3.53,0,7.63q.65-.09,1.3-.21Z"/><path class="cls-169" d="M37.14,13.32V59.18l.54-.1V13.32a5.51,5.51,0,0,0-5.49-5.49H32v0A5.5,5.5,0,0,1,37.14,13.32Z"/><path class="cls-170" d="M37.14,13.32V59.18l.54-.1V13.32a5.51,5.51,0,0,0-5.49-5.49H32v0A5.5,5.5,0,0,1,37.14,13.32Z"/><path class="cls-171" d="M37.14,13.32V59.18l.54-.1V13.32a5.51,5.51,0,0,0-5.49-5.49H32v0A5.5,5.5,0,0,1,37.14,13.32Z"/><path class="cls-170" d="M37.14,13.32V59.18l.54-.1V13.32a5.51,5.51,0,0,0-5.49-5.49H32v0A5.5,5.5,0,0,1,37.14,13.32Z"/><path class="cls-172" d="M7.68,13.89A2.52,2.52,0,0,1,5,14.55s.8-3.76-1-6a3.19,3.19,0,0,1,3.51.16,6.77,6.77,0,0,1,.53,4A1.36,1.36,0,0,0,7.68,13.89Z"/><path class="cls-173" d="M33,31.93h0a2.29,2.29,0,0,0-2.29-2.29H26.3l-3.4,2.22a19.23,19.23,0,0,1-3.21,1.69l-1.37.56-.27.12H30.74A2.29,2.29,0,0,0,33,31.93Z"/><path class="cls-172" d="M9.13,8.52s.8-1.34,2.88-.59a12.22,12.22,0,0,1,.66,6s-3.17-1.44-4.55-.28"/><path class="cls-174" d="M20.95,28.94S7.48,27.76,7.48,14.09H9.14s5.66,11.21,17.08,5.2Z"/><path class="cls-175" d="M7.48,14.09c0,13.67,13.47,14.85,13.47,14.85l4.13-7.88,0-.33a7.74,7.74,0,0,0-2-.16,12.58,12.58,0,0,1-2.33.45h0c-2.24.82-4.76,7.49-8.87,3.71S9.13,14.09,9.13,14.09Z"/><path class="cls-174" d="M25.65,18.06l-2,.75a1.28,1.28,0,0,0-.46.3A5.94,5.94,0,0,0,22,22.32l1.84-.9a.79.79,0,0,0,.52.18Z"/><path class="cls-176" d="M33.14,13s-.52-2.49-5-2.49c-1,0-3.4,1.76-4.07,3a.43.43,0,0,0,0,.54,1.37,1.37,0,0,1,.27,1.31l-.09.31c-.2.62-.34,1.19-.07,1.4a4.7,4.7,0,0,0,1.21.58.3.3,0,0,1,.18.38L24.34,21.6l6.52-1.72-.82-1Z"/><path class="cls-177" d="M30,18.89l2.32-4.39-1.08-3.39a7.61,7.61,0,0,0-3.18-.58,2.58,2.58,0,0,0-1.05.34s.51.14.38.55-1.82,1-2.5,2.12-.92.38-1,.3a.41.41,0,0,0,.11.25,1.37,1.37,0,0,1,.27,1.31l0,.07h0S26.2,12,28,12.54s.44,4.31-.82,4.59a11.19,11.19,0,0,1-2.55.23h0l1,.39.14,0h0a5.63,5.63,0,0,1,.53.24c.22.14.52,1.18.52,1.18h3.6Z"/><path class="cls-178" d="M24,20.57s.16-1-.16-1.22-1.12.67-1.5,2.83,1.24.81,1.24.81"/><path class="cls-179" d="M29.24,11s-.8.47-.47,1.17a2.53,2.53,0,0,1,.22,1.1.39.39,0,0,0,.3.38h0a.4.4,0,0,0,.44-.19.46.46,0,0,1,.75-.12c.55.4.16,1.65-.49,2a.38.38,0,0,0-.12.54c.27.42.76,1,1.35.85,0,0,1.81-2.49,1.92-3.53"/><path class="cls-180" d="M28.23,9.88l.58-1.44a.74.74,0,0,1,1.1-.33c1.25.86,3.61,2.6,3.91,3.66.09.31-.57,1.16-.57,1.16"/><path class="cls-181" d="M15.51,54.28a27.85,27.85,0,0,0,11.15,4.86C28.84,47.52,30,43.51,30,43.51l-14.36-.2A46,46,0,0,0,15.51,54.28Z"/><path class="cls-182" d="M15.68,43.31a45.93,45.93,0,0,0-.17,11,27.85,27.85,0,0,0,11.15,4.86c.43-2.29.82-4.29,1.17-6l-3.1-9.69Z"/><path class="cls-181" d="M19.69,56.81a27.86,27.86,0,0,0,11.6,2.83,85.38,85.38,0,0,1,1.2-16.43l-15.92.54A102.72,102.72,0,0,0,19.69,56.81Z"/><path class="cls-183" d="M32.5,43.21l-13.71.46v.83s5.77-.27,7.83,8.94c.52,2.33,1.06,4.33,1.57,5.94a28.19,28.19,0,0,0,3.11.25A85.34,85.34,0,0,1,32.5,43.21Z"/><path class="cls-174" d="M32.45,43.51S38.27,19.1,28.13,19.1c-11,0-12.45,24.21-12.45,24.21Z"/><path class="cls-184" d="M32.36,21.46l-6.21,1.67s2,11.63-1.65,13.87-.4,2.34,1,3.83-1.2,2.23-1.2,2.23l1.44.37,6.66.08S36.24,27.59,32.36,21.46Z"/><path d="M34,60.34h.12a.7.7,0,0,0,.58-.69.73.73,0,0,0,0-.12L30.91,37.88a.7.7,0,0,0-1.39.12.78.78,0,0,0,0,.12l3.78,21.64A.7.7,0,0,0,34,60.34Z"/><path class="cls-185" d="M32.45,43.06H15.73a7.69,7.69,0,0,0-.19,1.17H32.22"/><path d="M31.22,44.45h.14L38.22,43a.7.7,0,0,0,.56-.69.71.71,0,0,0,0-.14.7.7,0,0,0-.83-.55l-6.86,1.39a.7.7,0,0,0,.14,1.39Z"/><path class="cls-174" d="M32.45,21.13c3.25,4.54,10.22,17.24-2.91,23.21L28.75,43s7.47-6.87,0-15.55c-4.51-5.24-2.41-6.53,0-6.73C30.63,20.51,31.33,19.57,32.45,21.13Z"/><path class="cls-176" d="M28.72,43h0a1.75,1.75,0,0,0-1.38-.69s-1.18,0-1.18.77l-.17.29a1.29,1.29,0,0,0,.21,1.37l.38.46a.71.71,0,0,0,.86.18l2.23-1.08Z"/><path class="cls-186" d="M18.79,44.51h2.3c.22,0,.4-.25.4-.56v-.61c0-.31-.18-.56-.4-.56h-2.3c-.22,0-.4.25-.4.56V44C18.39,44.26,18.57,44.51,18.79,44.51Z"/><path class="cls-187" d="M8.27,7.71s.8-1.34,2.88-.59a12.22,12.22,0,0,1,.66,6,2.39,2.39,0,0,0-2.58.52"/><path class="cls-176" d="M9.13,14.09V11.64s-.87,0-.87,1.23c0,0-1.05,1.23-2.2-.52,0,0,0,1.75,1.42,1.75Z"/><path class="cls-186" d="M18.31,44.57a2,2,0,0,0-.13-.23h0a2.13,2.13,0,0,1-.29-1.28H16l-.53,1.44a2.15,2.15,0,0,0,0,1.92,1.51,1.51,0,0,0,2.22.72A2.06,2.06,0,0,0,18.31,44.57Zm-.91,2A1,1,0,0,1,16,46.09a1.3,1.3,0,0,1,.39-1.62,1,1,0,0,1,1.39.45A1.29,1.29,0,0,1,17.4,46.53Z"/><path class="cls-186" d="M18,44.57a2,2,0,0,0-.13-.23h0a2.13,2.13,0,0,1-.29-1.28H15.73l-.53,1.44a2.15,2.15,0,0,0,0,1.92,1.51,1.51,0,0,0,2.22.72A2.06,2.06,0,0,0,18,44.57Zm-.91,2a1,1,0,0,1-1.39-.45,1.3,1.3,0,0,1,.39-1.62,1,1,0,0,1,1.39.45A1.29,1.29,0,0,1,17.08,46.53Z"/><path class="cls-174" d="M33.11,23l-2.31-5.56s-7,.7-7,4.18Z"/><path class="cls-188" d="M24.22,21s1.38-2,2.12-1.39,1.23,2.86,1.23,2.86l-1.67,1"/><path class="cls-189" d="M24.89,20.93s-2.52,2.23-2.59,12.29A1.26,1.26,0,0,1,22,34l-1.14,1.49a.82.82,0,0,1-1.33,0L19,34.68a2.08,2.08,0,0,1-.34-1.53c.38-2.29,1.74-8.68,5.39-12.28Z"/><path d="M33.11,13.17l-6.26-3.05a.22.22,0,0,1,.06-.42,4.31,4.31,0,0,1,1.64.15c1,.26,4.7,3.08,4.7,3.08Z"/><circle class="cls-189" cx="19.95" cy="37.55" r="0.3"/><circle class="cls-189" cx="19.66" cy="41.36" r="0.3"/><circle class="cls-189" cx="19.79" cy="39.47" r="0.3"/><path class="cls-187" d="M8.43,12.87a2.52,2.52,0,0,1-2.67.65s.8-3.76-1-6a3.19,3.19,0,0,1,3.51.16,6.77,6.77,0,0,1,.53,4A1.36,1.36,0,0,0,8.43,12.87Z"/><path class="cls-189" d="M23.3,21.74s.08-1.06.55-1.22,1.38-.09,1.27.21a2.68,2.68,0,0,1-.91,1.2"/><path class="cls-190" d="M28.75,43l.78,1.37c7.23-3.29,8.36-8.61,7.39-13.49C38.18,38.33,29.38,42.67,28.75,43Z"/><path class="cls-191" d="M39,7.83H24.54l1.6-3.42a1.32,1.32,0,0,1,1.2-.76h8.91a1.32,1.32,0,0,1,1.2.76Z"/><path class="cls-192" d="M36.24,3.66H32a1.32,1.32,0,0,0-1.2.76l-1.6,3.42H39l-1.6-3.42A1.32,1.32,0,0,0,36.24,3.66Z"/></g></g></svg>