<svg xmlns="http://www.w3.org/2000/svg" xmlns:xlink="http://www.w3.org/1999/xlink" viewBox="0 0 64 64"><defs><style>.cls-1{isolation:isolate;}.cls-2{fill:url(#linear-gradient);}.cls-3{fill:none;}.cls-4{fill:url(#linear-gradient-2);}.cls-5{fill:url(#linear-gradient-3);}.cls-6{fill:url(#linear-gradient-4);}.cls-7{fill:url(#linear-gradient-5);}.cls-8{fill:url(#linear-gradient-6);}.cls-9{fill:url(#linear-gradient-7);}.cls-10{fill:url(#linear-gradient-8);}.cls-11{fill:url(#linear-gradient-9);}.cls-12{fill:url(#linear-gradient-10);}.cls-13{fill:url(#linear-gradient-11);}.cls-14{fill:url(#linear-gradient-12);}.cls-15{fill:url(#linear-gradient-13);}.cls-16{fill:url(#linear-gradient-14);}.cls-17{fill:url(#linear-gradient-15);}.cls-18{fill:url(#linear-gradient-16);}.cls-19{fill:url(#linear-gradient-17);}.cls-20{fill:url(#linear-gradient-18);}.cls-21{fill:url(#linear-gradient-19);}.cls-22{fill:url(#linear-gradient-20);}.cls-23{fill:url(#linear-gradient-21);}.cls-24{fill:url(#linear-gradient-22);}.cls-25{fill:url(#linear-gradient-23);}.cls-26{fill:url(#linear-gradient-24);}.cls-27{fill:url(#linear-gradient-25);}.cls-28{fill:url(#linear-gradient-26);}.cls-29{fill:url(#linear-gradient-27);}.cls-30{fill:url(#linear-gradient-28);}.cls-31{fill:url(#linear-gradient-29);}.cls-32{fill:url(#linear-gradient-30);}.cls-33{fill:url(#linear-gradient-31);}.cls-34{fill:url(#linear-gradient-32);}.cls-35{fill:url(#linear-gradient-33);}.cls-36{fill:url(#linear-gradient-34);}.cls-37{fill:url(#linear-gradient-35);}.cls-38{fill:url(#linear-gradient-36);}.cls-39{fill:url(#linear-gradient-37);}.cls-40{fill:url(#linear-gradient-38);}.cls-41{fill:url(#linear-gradient-39);}.cls-42{fill:url(#linear-gradient-40);}.cls-43{fill:url(#linear-gradient-41);}.cls-44{fill:url(#linear-gradient-42);}.cls-45{fill:url(#linear-gradient-43);}.cls-46{fill:url(#linear-gradient-44);}.cls-47{fill:url(#linear-gradient-45);}.cls-48{fill:url(#linear-gradient-46);}.cls-49{fill:url(#linear-gradient-47);}.cls-50{fill:url(#linear-gradient-48);}.cls-51{fill:url(#linear-gradient-49);}.cls-52{fill:url(#linear-gradient-50);}.cls-53{fill:url(#linear-gradient-51);}.cls-54{fill:url(#linear-gradient-52);}.cls-55{fill:url(#linear-gradient-53);}.cls-56{fill:url(#linear-gradient-54);}.cls-57{fill:url(#linear-gradient-55);}.cls-58{fill:url(#linear-gradient-56);}.cls-59{fill:url(#linear-gradient-57);}.cls-60{fill:url(#linear-gradient-58);}.cls-61{fill:url(#linear-gradient-59);}.cls-62{fill:url(#linear-gradient-60);}.cls-63{fill:url(#linear-gradient-61);}.cls-64{fill:url(#linear-gradient-62);}.cls-65{fill:url(#linear-gradient-63);}.cls-66{fill:url(#linear-gradient-64);}.cls-67{fill:url(#linear-gradient-65);}.cls-68{fill:url(#linear-gradient-66);}.cls-69{fill:url(#linear-gradient-67);}.cls-70{fill:url(#linear-gradient-68);}.cls-71{fill:url(#linear-gradient-69);}.cls-72{fill:url(#linear-gradient-70);}.cls-73{fill:url(#linear-gradient-71);}.cls-74{fill:url(#linear-gradient-72);}.cls-75{fill:url(#linear-gradient-73);}.cls-76{fill:url(#linear-gradient-74);}.cls-77{fill:url(#linear-gradient-75);}.cls-78{fill:url(#linear-gradient-76);}.cls-79{fill:url(#linear-gradient-79);}.cls-80{fill:url(#linear-gradient-82);}.cls-81{fill:url(#linear-gradient-85);}.cls-82{fill:url(#linear-gradient-88);}.cls-83{fill:url(#linear-gradient-91);}.cls-84{fill:url(#linear-gradient-92);}.cls-85{fill:url(#linear-gradient-93);}.cls-86{fill:url(#linear-gradient-95);}.cls-87{fill:url(#linear-gradient-96);}.cls-88{fill:url(#linear-gradient-98);}.cls-89{fill:url(#linear-gradient-99);}.cls-90{fill:url(#linear-gradient-101);}.cls-91{fill:url(#linear-gradient-102);}.cls-92{fill:url(#linear-gradient-104);}.cls-93{fill:url(#linear-gradient-105);}.cls-94{fill:url(#linear-gradient-109);}.cls-95{fill:url(#linear-gradient-112);}.cls-96{fill:url(#linear-gradient-115);}.cls-97{fill:url(#linear-gradient-118);}.cls-98{fill:url(#linear-gradient-121);}.cls-99{fill:url(#linear-gradient-122);}.cls-100{fill:url(#linear-gradient-123);}.cls-101{fill:url(#linear-gradient-125);}.cls-102{fill:url(#linear-gradient-126);}.cls-103{fill:url(#linear-gradient-128);}.cls-104{fill:url(#linear-gradient-129);}.cls-105{fill:url(#linear-gradient-131);}.cls-106{fill:url(#linear-gradient-132);}.cls-107{fill:url(#linear-gradient-134);}.cls-108{fill:url(#linear-gradient-135);}.cls-109{fill:url(#linear-gradient-137);}.cls-110{fill:url(#linear-gradient-138);}.cls-111{fill:url(#linear-gradient-139);}.cls-112{fill:url(#linear-gradient-140);}.cls-113{fill:url(#linear-gradient-141);}.cls-114{fill:url(#linear-gradient-142);}.cls-115{fill:url(#linear-gradient-143);}.cls-116{fill:url(#linear-gradient-144);}.cls-117{fill:url(#linear-gradient-145);}.cls-118{fill:url(#linear-gradient-146);}.cls-119{fill:url(#linear-gradient-147);}.cls-120{fill:url(#linear-gradient-148);}.cls-121{fill:url(#linear-gradient-149);}.cls-122{fill:url(#linear-gradient-150);}.cls-123{fill:url(#linear-gradient-151);}.cls-124{fill:url(#linear-gradient-152);}.cls-125{fill:url(#linear-gradient-153);}.cls-126{fill:url(#linear-gradient-154);}.cls-127{fill:url(#linear-gradient-155);}.cls-128{fill:url(#linear-gradient-156);}.cls-129{fill:url(#linear-gradient-157);}.cls-130{fill:url(#linear-gradient-158);}.cls-131{fill:url(#linear-gradient-159);}.cls-132{fill:url(#linear-gradient-160);}.cls-133{fill:url(#linear-gradient-161);}.cls-134{fill:url(#linear-gradient-162);}.cls-135{fill:url(#linear-gradient-163);}.cls-136{fill:url(#linear-gradient-164);}.cls-137{fill:url(#linear-gradient-165);}.cls-138{fill:url(#linear-gradient-166);}.cls-139{fill:url(#linear-gradient-167);}.cls-140{fill:url(#linear-gradient-168);}.cls-141{fill:url(#linear-gradient-169);}.cls-142{fill:url(#linear-gradient-170);}.cls-143{fill:url(#linear-gradient-171);}.cls-144{fill:url(#linear-gradient-172);}.cls-145{fill:url(#linear-gradient-173);}.cls-146{fill:url(#linear-gradient-174);}.cls-147{fill:url(#linear-gradient-175);}.cls-148{fill:url(#linear-gradient-176);}.cls-149{fill:url(#linear-gradient-177);}.cls-150{fill:url(#linear-gradient-178);}.cls-151{fill:url(#linear-gradient-179);}.cls-152{fill:url(#linear-gradient-180);}.cls-153{fill:url(#linear-gradient-181);}.cls-154{fill:url(#linear-gradient-182);}.cls-155{fill:url(#linear-gradient-183);}.cls-156{fill:url(#linear-gradient-184);}.cls-157{fill:url(#linear-gradient-185);}.cls-158{fill:url(#linear-gradient-186);}.cls-159{fill:url(#linear-gradient-187);}.cls-160{fill:url(#linear-gradient-188);}.cls-161{fill:url(#linear-gradient-189);}.cls-162{fill:url(#linear-gradient-190);}.cls-163{fill:url(#linear-gradient-191);}.cls-164{fill:url(#linear-gradient-192);}.cls-165{fill:url(#linear-gradient-193);}.cls-166{fill:url(#linear-gradient-194);}.cls-167{fill:url(#linear-gradient-195);}.cls-168{fill:url(#linear-gradient-196);}.cls-169{fill:url(#linear-gradient-197);}.cls-170{fill:url(#linear-gradient-198);}.cls-171{fill:url(#linear-gradient-199);}.cls-172{fill:url(#linear-gradient-200);}.cls-173{fill:url(#linear-gradient-201);}.cls-174{fill:url(#linear-gradient-202);}.cls-175{fill:url(#linear-gradient-203);}.cls-176{fill:url(#linear-gradient-204);}.cls-177{fill:#e4e4ea;}.cls-178{opacity:0.49;mix-blend-mode:color-burn;fill:url(#linear-gradient-205);}.cls-179{fill:url(#linear-gradient-206);}.cls-180{fill:url(#linear-gradient-207);}.cls-181{fill:url(#linear-gradient-208);}.cls-182{fill:url(#linear-gradient-209);}.cls-183{fill:url(#linear-gradient-210);}.cls-184{fill:url(#linear-gradient-211);}.cls-185{fill:url(#linear-gradient-212);}.cls-186{fill:url(#linear-gradient-213);}.cls-187{fill:url(#linear-gradient-214);}.cls-188{fill:url(#linear-gradient-215);}.cls-189{fill:url(#linear-gradient-216);}.cls-190{fill:url(#linear-gradient-217);}.cls-191{fill:url(#linear-gradient-218);}.cls-192{fill:url(#linear-gradient-219);}.cls-193{fill:url(#linear-gradient-220);}.cls-194{fill:url(#linear-gradient-221);}.cls-195{fill:url(#linear-gradient-222);}.cls-196{fill:url(#linear-gradient-223);}.cls-197{fill:url(#linear-gradient-224);}.cls-198{fill:url(#linear-gradient-225);}.cls-199{fill:url(#linear-gradient-226);}.cls-200{fill:url(#linear-gradient-227);}.cls-201{fill:url(#linear-gradient-228);}.cls-202{fill:url(#linear-gradient-229);}</style><linearGradient id="linear-gradient" x1="32" y1="75.5" x2="32" y2="2.89" gradientUnits="userSpaceOnUse"><stop offset="0" stop-color="#7ff1a4"/><stop offset="0.52" stop-color="#2fbca4"/><stop offset="1" stop-color="#2f7da4"/></linearGradient><linearGradient id="linear-gradient-2" x1="14.61" y1="41.17" x2="14.61" y2="-36.25" xlink:href="#linear-gradient"/><linearGradient id="linear-gradient-3" x1="15.61" y1="41.17" x2="15.61" y2="-36.24" xlink:href="#linear-gradient"/><linearGradient id="linear-gradient-4" x1="15.61" y1="33.76" x2="15.61" y2="-11.25" xlink:href="#linear-gradient"/><linearGradient id="linear-gradient-5" x1="12.13" y1="41.17" x2="12.13" y2="-36.25" xlink:href="#linear-gradient"/><linearGradient id="linear-gradient-6" x1="12.13" y1="33.76" x2="12.13" y2="-11.25" xlink:href="#linear-gradient"/><linearGradient id="linear-gradient-7" x1="22.09" y1="41.17" x2="22.09" y2="-36.25" xlink:href="#linear-gradient"/><linearGradient id="linear-gradient-8" x1="22.09" y1="33.76" x2="22.09" y2="-11.26" xlink:href="#linear-gradient"/><linearGradient id="linear-gradient-9" x1="11.47" y1="41.17" x2="11.47" y2="-36.24" xlink:href="#linear-gradient"/><linearGradient id="linear-gradient-10" x1="11.47" y1="33.76" x2="11.47" y2="-11.25" xlink:href="#linear-gradient"/><linearGradient id="linear-gradient-11" x1="14.53" y1="41.17" x2="14.53" y2="-36.25" xlink:href="#linear-gradient"/><linearGradient id="linear-gradient-12" x1="14.53" y1="47" x2="14.53" y2="1.52" xlink:href="#linear-gradient"/><linearGradient id="linear-gradient-13" x1="17.89" y1="41.17" x2="17.89" y2="-36.24" xlink:href="#linear-gradient"/><linearGradient id="linear-gradient-14" x1="17.89" y1="33.76" x2="17.89" y2="-11.25" xlink:href="#linear-gradient"/><linearGradient id="linear-gradient-15" x1="17.89" y1="47" x2="17.89" y2="1.52" xlink:href="#linear-gradient"/><linearGradient id="linear-gradient-16" x1="4.37" y1="41.17" x2="4.37" y2="-36.25" xlink:href="#linear-gradient"/><linearGradient id="linear-gradient-17" x1="4.37" y1="38.77" x2="4.37" y2="15.91" xlink:href="#linear-gradient"/><linearGradient id="linear-gradient-18" x1="4.37" y1="47" x2="4.37" y2="1.52" xlink:href="#linear-gradient"/><linearGradient id="linear-gradient-19" x1="10" y1="41.17" x2="10" y2="-36.25" xlink:href="#linear-gradient"/><linearGradient id="linear-gradient-20" x1="10" y1="47" x2="10" y2="1.52" xlink:href="#linear-gradient"/><linearGradient id="linear-gradient-21" x1="10" y1="39.36" x2="10" y2="22.21" xlink:href="#linear-gradient"/><linearGradient id="linear-gradient-22" x1="4324.74" y1="41.17" x2="4324.74" y2="-36.25" gradientTransform="matrix(-1, 0, 0, 1, 4367.83, 0)" xlink:href="#linear-gradient"/><linearGradient id="linear-gradient-23" x1="4338.99" y1="41.17" x2="4338.99" y2="-36.25" gradientTransform="matrix(-1, 0, 0, 1, 4367.83, 0)" xlink:href="#linear-gradient"/><linearGradient id="linear-gradient-24" x1="4315.23" y1="41.17" x2="4315.23" y2="-36.25" gradientTransform="matrix(-1, 0, 0, 1, 4367.83, 0)" xlink:href="#linear-gradient"/><linearGradient id="linear-gradient-25" x1="52.61" y1="40.44" x2="52.61" y2="-14.96" xlink:href="#linear-gradient"/><linearGradient id="linear-gradient-26" x1="4311.95" y1="41.17" x2="4311.95" y2="-36.25" gradientTransform="matrix(-1, 0, 0, 1, 4367.83, 0)" xlink:href="#linear-gradient"/><linearGradient id="linear-gradient-27" x1="55.89" y1="40.44" x2="55.89" y2="-14.96" xlink:href="#linear-gradient"/><linearGradient id="linear-gradient-28" x1="26.45" y1="40.44" x2="26.45" y2="-14.94" xlink:href="#linear-gradient"/><linearGradient id="linear-gradient-29" x1="4327.29" y1="41.17" x2="4327.29" y2="-36.25" gradientTransform="matrix(-1, 0, 0, 1, 4367.83, 0)" xlink:href="#linear-gradient"/><linearGradient id="linear-gradient-30" x1="40.55" y1="40.44" x2="40.55" y2="-14.96" xlink:href="#linear-gradient"/><linearGradient id="linear-gradient-31" x1="4338.99" y1="41.17" x2="4338.99" y2="-36.24" gradientTransform="matrix(-1, 0, 0, 1, 4367.83, 0)" xlink:href="#linear-gradient"/><linearGradient id="linear-gradient-32" x1="28.85" y1="40.44" x2="28.85" y2="-14.95" xlink:href="#linear-gradient"/><linearGradient id="linear-gradient-33" x1="4338.25" y1="41.17" x2="4338.25" y2="-36.25" gradientTransform="matrix(-1, 0, 0, 1, 4367.83, 0)" xlink:href="#linear-gradient"/><linearGradient id="linear-gradient-34" x1="29.58" y1="40.44" x2="29.58" y2="-14.96" xlink:href="#linear-gradient"/><linearGradient id="linear-gradient-35" x1="4330.53" y1="41.17" x2="4330.53" y2="-36.25" gradientTransform="matrix(-1, 0, 0, 1, 4367.83, 0)" xlink:href="#linear-gradient"/><linearGradient id="linear-gradient-36" x1="37.3" y1="40.44" x2="37.3" y2="-14.96" xlink:href="#linear-gradient"/><linearGradient id="linear-gradient-37" x1="4329" y1="41.17" x2="4329" y2="-36.25" gradientTransform="matrix(-1, 0, 0, 1, 4367.83, 0)" xlink:href="#linear-gradient"/><linearGradient id="linear-gradient-38" x1="38.83" y1="40.44" x2="38.83" y2="-14.96" xlink:href="#linear-gradient"/><linearGradient id="linear-gradient-39" x1="4320.89" y1="41.17" x2="4320.89" y2="-36.25" gradientTransform="matrix(-1, 0, 0, 1, 4367.83, 0)" xlink:href="#linear-gradient"/><linearGradient id="linear-gradient-40" x1="46.94" y1="40.44" x2="46.94" y2="-14.96" xlink:href="#linear-gradient"/><linearGradient id="linear-gradient-41" x1="4319.68" y1="41.17" x2="4319.68" y2="-36.25" gradientTransform="matrix(-1, 0, 0, 1, 4367.83, 0)" xlink:href="#linear-gradient"/><linearGradient id="linear-gradient-42" x1="48.15" y1="40.44" x2="48.15" y2="-14.96" xlink:href="#linear-gradient"/><linearGradient id="linear-gradient-43" x1="4337.62" y1="41.17" x2="4337.62" y2="-36.25" gradientTransform="matrix(-1, 0, 0, 1, 4367.83, 0)" xlink:href="#linear-gradient"/><linearGradient id="linear-gradient-44" x1="30.21" y1="40.44" x2="30.21" y2="-14.96" xlink:href="#linear-gradient"/><linearGradient id="linear-gradient-45" x1="4310.09" y1="41.17" x2="4310.09" y2="-36.25" gradientTransform="matrix(-1, 0, 0, 1, 4367.83, 0)" xlink:href="#linear-gradient"/><linearGradient id="linear-gradient-46" x1="4310.09" y1="38.77" x2="4310.09" y2="15.91" gradientTransform="matrix(-1, 0, 0, 1, 4367.83, 0)" xlink:href="#linear-gradient"/><linearGradient id="linear-gradient-47" x1="4326.8" y1="41.17" x2="4326.8" y2="-36.25" gradientTransform="matrix(-1, 0, 0, 1, 4367.83, 0)" xlink:href="#linear-gradient"/><linearGradient id="linear-gradient-48" x1="4326.8" y1="47" x2="4326.8" y2="1.52" gradientTransform="matrix(-1, 0, 0, 1, 4367.83, 0)" xlink:href="#linear-gradient"/><linearGradient id="linear-gradient-49" x1="4333.5" y1="41.17" x2="4333.5" y2="-36.25" gradientTransform="matrix(-1, 0, 0, 1, 4367.83, 0)" xlink:href="#linear-gradient"/><linearGradient id="linear-gradient-50" x1="4333.5" y1="47" x2="4333.5" y2="1.52" gradientTransform="matrix(-1, 0, 0, 1, 4367.83, 0)" xlink:href="#linear-gradient"/><linearGradient id="linear-gradient-51" x1="4333.77" y1="41.17" x2="4333.77" y2="-36.25" gradientTransform="matrix(-1, 0, 0, 1, 4367.83, 0)" xlink:href="#linear-gradient"/><linearGradient id="linear-gradient-52" x1="4333.77" y1="47" x2="4333.77" y2="1.52" gradientTransform="matrix(-1, 0, 0, 1, 4367.83, 0)" xlink:href="#linear-gradient"/><linearGradient id="linear-gradient-53" x1="4333.5" y1="41.17" x2="4333.5" y2="-36.24" gradientTransform="matrix(-1, 0, 0, 1, 4367.83, 0)" xlink:href="#linear-gradient"/><linearGradient id="linear-gradient-54" x1="34.34" y1="40.44" x2="34.34" y2="-14.96" xlink:href="#linear-gradient"/><linearGradient id="linear-gradient-55" x1="4333.5" y1="47" x2="4333.5" y2="1.52" gradientTransform="matrix(-1, 0, 0, 1, 4367.83, 0)" xlink:href="#linear-gradient"/><linearGradient id="linear-gradient-56" x1="4333.75" y1="41.17" x2="4333.75" y2="-36.24" gradientTransform="matrix(-1, 0, 0, 1, 4367.83, 0)" xlink:href="#linear-gradient"/><linearGradient id="linear-gradient-57" x1="34.08" y1="40.44" x2="34.08" y2="-14.96" xlink:href="#linear-gradient"/><linearGradient id="linear-gradient-58" x1="4333.75" y1="47" x2="4333.75" y2="1.52" gradientTransform="matrix(-1, 0, 0, 1, 4367.83, 0)" xlink:href="#linear-gradient"/><linearGradient id="linear-gradient-59" x1="4314.66" y1="41.17" x2="4314.66" y2="-36.25" gradientTransform="matrix(-1, 0, 0, 1, 4367.83, 0)" xlink:href="#linear-gradient"/><linearGradient id="linear-gradient-60" x1="4314.66" y1="38.77" x2="4314.66" y2="15.91" gradientTransform="matrix(-1, 0, 0, 1, 4367.83, 0)" xlink:href="#linear-gradient"/><linearGradient id="linear-gradient-61" x1="4314.66" y1="47" x2="4314.66" y2="1.52" gradientTransform="matrix(-1, 0, 0, 1, 4367.83, 0)" xlink:href="#linear-gradient"/><linearGradient id="linear-gradient-62" x1="4314.08" y1="41.17" x2="4314.08" y2="-36.24" gradientTransform="matrix(-1, 0, 0, 1, 4367.83, 0)" xlink:href="#linear-gradient"/><linearGradient id="linear-gradient-63" x1="4314.08" y1="47" x2="4314.08" y2="1.52" gradientTransform="matrix(-1, 0, 0, 1, 4367.83, 0)" xlink:href="#linear-gradient"/><linearGradient id="linear-gradient-64" x1="4314.08" y1="41.59" x2="4314.08" y2="13.52" gradientTransform="matrix(-1, 0, 0, 1, 4367.83, 0)" xlink:href="#linear-gradient"/><linearGradient id="linear-gradient-65" x1="4315.26" y1="41.17" x2="4315.26" y2="-36.24" gradientTransform="matrix(-1, 0, 0, 1, 4367.83, 0)" xlink:href="#linear-gradient"/><linearGradient id="linear-gradient-66" x1="4315.26" y1="47" x2="4315.26" y2="1.52" gradientTransform="matrix(-1, 0, 0, 1, 4367.83, 0)" xlink:href="#linear-gradient"/><linearGradient id="linear-gradient-67" x1="4315.26" y1="41.59" x2="4315.26" y2="13.52" gradientTransform="matrix(-1, 0, 0, 1, 4367.83, 0)" xlink:href="#linear-gradient"/><linearGradient id="linear-gradient-68" x1="4316.43" y1="41.17" x2="4316.43" y2="-36.24" gradientTransform="matrix(-1, 0, 0, 1, 4367.83, 0)" xlink:href="#linear-gradient"/><linearGradient id="linear-gradient-69" x1="4316.43" y1="47" x2="4316.43" y2="1.52" gradientTransform="matrix(-1, 0, 0, 1, 4367.83, 0)" xlink:href="#linear-gradient"/><linearGradient id="linear-gradient-70" x1="4316.43" y1="41.59" x2="4316.43" y2="13.52" gradientTransform="matrix(-1, 0, 0, 1, 4367.83, 0)" xlink:href="#linear-gradient"/><linearGradient id="linear-gradient-71" x1="4317.61" y1="41.17" x2="4317.61" y2="-36.24" gradientTransform="matrix(-1, 0, 0, 1, 4367.83, 0)" xlink:href="#linear-gradient"/><linearGradient id="linear-gradient-72" x1="4317.61" y1="47" x2="4317.61" y2="1.52" gradientTransform="matrix(-1, 0, 0, 1, 4367.83, 0)" xlink:href="#linear-gradient"/><linearGradient id="linear-gradient-73" x1="4317.61" y1="41.59" x2="4317.61" y2="13.52" gradientTransform="matrix(-1, 0, 0, 1, 4367.83, 0)" xlink:href="#linear-gradient"/><linearGradient id="linear-gradient-74" x1="4318.78" y1="41.17" x2="4318.78" y2="-36.24" gradientTransform="matrix(-1, 0, 0, 1, 4367.83, 0)" xlink:href="#linear-gradient"/><linearGradient id="linear-gradient-75" x1="4318.78" y1="47" x2="4318.78" y2="1.52" gradientTransform="matrix(-1, 0, 0, 1, 4367.83, 0)" xlink:href="#linear-gradient"/><linearGradient id="linear-gradient-76" x1="4318.78" y1="41.59" x2="4318.78" y2="13.52" gradientTransform="matrix(-1, 0, 0, 1, 4367.83, 0)" xlink:href="#linear-gradient"/><linearGradient id="linear-gradient-79" x1="4314.08" y1="41.59" x2="4314.08" y2="13.52" gradientTransform="matrix(-1, 0, 0, 1, 4367.83, 0)" xlink:href="#linear-gradient"/><linearGradient id="linear-gradient-82" x1="4315.26" y1="41.59" x2="4315.26" y2="13.52" gradientTransform="matrix(-1, 0, 0, 1, 4367.83, 0)" xlink:href="#linear-gradient"/><linearGradient id="linear-gradient-85" x1="4316.43" y1="41.59" x2="4316.43" y2="13.52" gradientTransform="matrix(-1, 0, 0, 1, 4367.83, 0)" xlink:href="#linear-gradient"/><linearGradient id="linear-gradient-88" x1="4317.61" y1="41.59" x2="4317.61" y2="13.52" gradientTransform="matrix(-1, 0, 0, 1, 4367.83, 0)" xlink:href="#linear-gradient"/><linearGradient id="linear-gradient-91" x1="4318.78" y1="41.59" x2="4318.78" y2="13.52" gradientTransform="matrix(-1, 0, 0, 1, 4367.83, 0)" xlink:href="#linear-gradient"/><linearGradient id="linear-gradient-92" x1="4314.08" y1="41.17" x2="4314.08" y2="-36.24" gradientTransform="matrix(-1, 0, 0, 1, 4367.83, 0)" xlink:href="#linear-gradient"/><linearGradient id="linear-gradient-93" x1="4314.08" y1="47" x2="4314.08" y2="1.52" gradientTransform="matrix(-1, 0, 0, 1, 4367.83, 0)" xlink:href="#linear-gradient"/><linearGradient id="linear-gradient-95" x1="4315.26" y1="41.17" x2="4315.26" y2="-36.24" gradientTransform="matrix(-1, 0, 0, 1, 4367.83, 0)" xlink:href="#linear-gradient"/><linearGradient id="linear-gradient-96" x1="4315.26" y1="47" x2="4315.26" y2="1.52" gradientTransform="matrix(-1, 0, 0, 1, 4367.83, 0)" xlink:href="#linear-gradient"/><linearGradient id="linear-gradient-98" x1="4316.43" y1="41.17" x2="4316.43" y2="-36.24" gradientTransform="matrix(-1, 0, 0, 1, 4367.83, 0)" xlink:href="#linear-gradient"/><linearGradient id="linear-gradient-99" x1="4316.43" y1="47" x2="4316.43" y2="1.52" gradientTransform="matrix(-1, 0, 0, 1, 4367.83, 0)" xlink:href="#linear-gradient"/><linearGradient id="linear-gradient-101" x1="4317.61" y1="41.17" x2="4317.61" y2="-36.24" gradientTransform="matrix(-1, 0, 0, 1, 4367.83, 0)" xlink:href="#linear-gradient"/><linearGradient id="linear-gradient-102" x1="4317.61" y1="47" x2="4317.61" y2="1.52" gradientTransform="matrix(-1, 0, 0, 1, 4367.83, 0)" xlink:href="#linear-gradient"/><linearGradient id="linear-gradient-104" x1="4318.78" y1="41.17" x2="4318.78" y2="-36.24" gradientTransform="matrix(-1, 0, 0, 1, 4367.83, 0)" xlink:href="#linear-gradient"/><linearGradient id="linear-gradient-105" x1="4318.78" y1="47" x2="4318.78" y2="1.52" gradientTransform="matrix(-1, 0, 0, 1, 4367.83, 0)" xlink:href="#linear-gradient"/><linearGradient id="linear-gradient-109" x1="4314.08" y1="41.59" x2="4314.08" y2="13.52" gradientTransform="matrix(-1, 0, 0, 1, 4367.83, 0)" xlink:href="#linear-gradient"/><linearGradient id="linear-gradient-112" x1="4315.26" y1="41.59" x2="4315.26" y2="13.52" gradientTransform="matrix(-1, 0, 0, 1, 4367.83, 0)" xlink:href="#linear-gradient"/><linearGradient id="linear-gradient-115" x1="4316.43" y1="41.59" x2="4316.43" y2="13.52" gradientTransform="matrix(-1, 0, 0, 1, 4367.83, 0)" xlink:href="#linear-gradient"/><linearGradient id="linear-gradient-118" x1="4317.61" y1="41.59" x2="4317.61" y2="13.52" gradientTransform="matrix(-1, 0, 0, 1, 4367.83, 0)" xlink:href="#linear-gradient"/><linearGradient id="linear-gradient-121" x1="4318.78" y1="41.59" x2="4318.78" y2="13.52" gradientTransform="matrix(-1, 0, 0, 1, 4367.83, 0)" xlink:href="#linear-gradient"/><linearGradient id="linear-gradient-122" x1="4314.08" y1="41.17" x2="4314.08" y2="-36.24" gradientTransform="matrix(-1, 0, 0, 1, 4367.83, 0)" xlink:href="#linear-gradient"/><linearGradient id="linear-gradient-123" x1="4314.08" y1="47" x2="4314.08" y2="1.52" gradientTransform="matrix(-1, 0, 0, 1, 4367.83, 0)" xlink:href="#linear-gradient"/><linearGradient id="linear-gradient-125" x1="4315.26" y1="41.17" x2="4315.26" y2="-36.24" gradientTransform="matrix(-1, 0, 0, 1, 4367.83, 0)" xlink:href="#linear-gradient"/><linearGradient id="linear-gradient-126" x1="4315.26" y1="47" x2="4315.26" y2="1.52" gradientTransform="matrix(-1, 0, 0, 1, 4367.83, 0)" xlink:href="#linear-gradient"/><linearGradient id="linear-gradient-128" x1="4316.43" y1="41.17" x2="4316.43" y2="-36.24" gradientTransform="matrix(-1, 0, 0, 1, 4367.83, 0)" xlink:href="#linear-gradient"/><linearGradient id="linear-gradient-129" x1="4316.43" y1="47" x2="4316.43" y2="1.52" gradientTransform="matrix(-1, 0, 0, 1, 4367.83, 0)" xlink:href="#linear-gradient"/><linearGradient id="linear-gradient-131" x1="4317.61" y1="41.17" x2="4317.61" y2="-36.24" gradientTransform="matrix(-1, 0, 0, 1, 4367.83, 0)" xlink:href="#linear-gradient"/><linearGradient id="linear-gradient-132" x1="4317.61" y1="47" x2="4317.61" y2="1.52" gradientTransform="matrix(-1, 0, 0, 1, 4367.83, 0)" xlink:href="#linear-gradient"/><linearGradient id="linear-gradient-134" x1="4318.78" y1="41.17" x2="4318.78" y2="-36.24" gradientTransform="matrix(-1, 0, 0, 1, 4367.83, 0)" xlink:href="#linear-gradient"/><linearGradient id="linear-gradient-135" x1="4318.78" y1="47" x2="4318.78" y2="1.52" gradientTransform="matrix(-1, 0, 0, 1, 4367.83, 0)" xlink:href="#linear-gradient"/><linearGradient id="linear-gradient-137" x1="4314.08" y1="41.17" x2="4314.08" y2="-36.25" gradientTransform="matrix(-1, 0, 0, 1, 4367.83, 0)" xlink:href="#linear-gradient"/><linearGradient id="linear-gradient-138" x1="4314.08" y1="47" x2="4314.08" y2="1.51" gradientTransform="matrix(-1, 0, 0, 1, 4367.83, 0)" xlink:href="#linear-gradient"/><linearGradient id="linear-gradient-139" x1="4314.08" y1="41.59" x2="4314.08" y2="13.52" gradientTransform="matrix(-1, 0, 0, 1, 4367.83, 0)" xlink:href="#linear-gradient"/><linearGradient id="linear-gradient-140" x1="4315.26" y1="41.17" x2="4315.26" y2="-36.25" gradientTransform="matrix(-1, 0, 0, 1, 4367.83, 0)" xlink:href="#linear-gradient"/><linearGradient id="linear-gradient-141" x1="4315.26" y1="47" x2="4315.26" y2="1.51" gradientTransform="matrix(-1, 0, 0, 1, 4367.83, 0)" xlink:href="#linear-gradient"/><linearGradient id="linear-gradient-142" x1="4315.26" y1="41.59" x2="4315.26" y2="13.52" gradientTransform="matrix(-1, 0, 0, 1, 4367.83, 0)" xlink:href="#linear-gradient"/><linearGradient id="linear-gradient-143" x1="4316.43" y1="41.17" x2="4316.43" y2="-36.25" gradientTransform="matrix(-1, 0, 0, 1, 4367.83, 0)" xlink:href="#linear-gradient"/><linearGradient id="linear-gradient-144" x1="4316.43" y1="47" x2="4316.43" y2="1.51" gradientTransform="matrix(-1, 0, 0, 1, 4367.83, 0)" xlink:href="#linear-gradient"/><linearGradient id="linear-gradient-145" x1="4316.43" y1="41.59" x2="4316.43" y2="13.52" gradientTransform="matrix(-1, 0, 0, 1, 4367.83, 0)" xlink:href="#linear-gradient"/><linearGradient id="linear-gradient-146" x1="4317.61" y1="41.17" x2="4317.61" y2="-36.25" gradientTransform="matrix(-1, 0, 0, 1, 4367.83, 0)" xlink:href="#linear-gradient"/><linearGradient id="linear-gradient-147" x1="4317.61" y1="47" x2="4317.61" y2="1.51" gradientTransform="matrix(-1, 0, 0, 1, 4367.83, 0)" xlink:href="#linear-gradient"/><linearGradient id="linear-gradient-148" x1="4317.61" y1="41.59" x2="4317.61" y2="13.52" gradientTransform="matrix(-1, 0, 0, 1, 4367.83, 0)" xlink:href="#linear-gradient"/><linearGradient id="linear-gradient-149" x1="4318.78" y1="41.17" x2="4318.78" y2="-36.25" gradientTransform="matrix(-1, 0, 0, 1, 4367.83, 0)" xlink:href="#linear-gradient"/><linearGradient id="linear-gradient-150" x1="4318.78" y1="47" x2="4318.78" y2="1.51" gradientTransform="matrix(-1, 0, 0, 1, 4367.83, 0)" xlink:href="#linear-gradient"/><linearGradient id="linear-gradient-151" x1="4318.78" y1="41.59" x2="4318.78" y2="13.52" gradientTransform="matrix(-1, 0, 0, 1, 4367.83, 0)" xlink:href="#linear-gradient"/><linearGradient id="linear-gradient-152" x1="4314.08" y1="41.17" x2="4314.08" y2="-36.24" gradientTransform="matrix(-1, 0, 0, 1, 4367.83, 0)" xlink:href="#linear-gradient"/><linearGradient id="linear-gradient-153" x1="4314.08" y1="47" x2="4314.08" y2="1.52" gradientTransform="matrix(-1, 0, 0, 1, 4367.83, 0)" xlink:href="#linear-gradient"/><linearGradient id="linear-gradient-154" x1="4314.08" y1="41.59" x2="4314.08" y2="13.52" gradientTransform="matrix(-1, 0, 0, 1, 4367.83, 0)" xlink:href="#linear-gradient"/><linearGradient id="linear-gradient-155" x1="4315.26" y1="41.17" x2="4315.26" y2="-36.24" gradientTransform="matrix(-1, 0, 0, 1, 4367.83, 0)" xlink:href="#linear-gradient"/><linearGradient id="linear-gradient-156" x1="4315.26" y1="47" x2="4315.26" y2="1.52" gradientTransform="matrix(-1, 0, 0, 1, 4367.83, 0)" xlink:href="#linear-gradient"/><linearGradient id="linear-gradient-157" x1="4315.26" y1="41.59" x2="4315.26" y2="13.52" gradientTransform="matrix(-1, 0, 0, 1, 4367.83, 0)" xlink:href="#linear-gradient"/><linearGradient id="linear-gradient-158" x1="4316.43" y1="41.17" x2="4316.43" y2="-36.24" gradientTransform="matrix(-1, 0, 0, 1, 4367.83, 0)" xlink:href="#linear-gradient"/><linearGradient id="linear-gradient-159" x1="4316.43" y1="47" x2="4316.43" y2="1.52" gradientTransform="matrix(-1, 0, 0, 1, 4367.83, 0)" xlink:href="#linear-gradient"/><linearGradient id="linear-gradient-160" x1="4316.43" y1="41.59" x2="4316.43" y2="13.52" gradientTransform="matrix(-1, 0, 0, 1, 4367.83, 0)" xlink:href="#linear-gradient"/><linearGradient id="linear-gradient-161" x1="4317.61" y1="41.17" x2="4317.61" y2="-36.24" gradientTransform="matrix(-1, 0, 0, 1, 4367.83, 0)" xlink:href="#linear-gradient"/><linearGradient id="linear-gradient-162" x1="4317.61" y1="47" x2="4317.61" y2="1.52" gradientTransform="matrix(-1, 0, 0, 1, 4367.83, 0)" xlink:href="#linear-gradient"/><linearGradient id="linear-gradient-163" x1="4317.61" y1="41.59" x2="4317.61" y2="13.52" gradientTransform="matrix(-1, 0, 0, 1, 4367.83, 0)" xlink:href="#linear-gradient"/><linearGradient id="linear-gradient-164" x1="4318.78" y1="41.17" x2="4318.78" y2="-36.24" gradientTransform="matrix(-1, 0, 0, 1, 4367.83, 0)" xlink:href="#linear-gradient"/><linearGradient id="linear-gradient-165" x1="4318.78" y1="47" x2="4318.78" y2="1.52" gradientTransform="matrix(-1, 0, 0, 1, 4367.83, 0)" xlink:href="#linear-gradient"/><linearGradient id="linear-gradient-166" x1="4318.78" y1="41.59" x2="4318.78" y2="13.52" gradientTransform="matrix(-1, 0, 0, 1, 4367.83, 0)" xlink:href="#linear-gradient"/><linearGradient id="linear-gradient-167" x1="4314.08" y1="41.17" x2="4314.08" y2="-36.24" gradientTransform="matrix(-1, 0, 0, 1, 4367.83, 0)" xlink:href="#linear-gradient"/><linearGradient id="linear-gradient-168" x1="4314.08" y1="38.77" x2="4314.08" y2="15.91" gradientTransform="matrix(-1, 0, 0, 1, 4367.83, 0)" xlink:href="#linear-gradient"/><linearGradient id="linear-gradient-169" x1="4314.08" y1="47" x2="4314.08" y2="1.52" gradientTransform="matrix(-1, 0, 0, 1, 4367.83, 0)" xlink:href="#linear-gradient"/><linearGradient id="linear-gradient-170" x1="4314.08" y1="41.59" x2="4314.08" y2="13.52" gradientTransform="matrix(-1, 0, 0, 1, 4367.83, 0)" xlink:href="#linear-gradient"/><linearGradient id="linear-gradient-171" x1="4315.26" y1="41.17" x2="4315.26" y2="-36.24" gradientTransform="matrix(-1, 0, 0, 1, 4367.83, 0)" xlink:href="#linear-gradient"/><linearGradient id="linear-gradient-172" x1="4315.26" y1="38.77" x2="4315.26" y2="15.91" gradientTransform="matrix(-1, 0, 0, 1, 4367.83, 0)" xlink:href="#linear-gradient"/><linearGradient id="linear-gradient-173" x1="4315.26" y1="47" x2="4315.26" y2="1.52" gradientTransform="matrix(-1, 0, 0, 1, 4367.83, 0)" xlink:href="#linear-gradient"/><linearGradient id="linear-gradient-174" x1="4315.26" y1="41.59" x2="4315.26" y2="13.52" gradientTransform="matrix(-1, 0, 0, 1, 4367.83, 0)" xlink:href="#linear-gradient"/><linearGradient id="linear-gradient-175" x1="4316.43" y1="41.17" x2="4316.43" y2="-36.24" gradientTransform="matrix(-1, 0, 0, 1, 4367.83, 0)" xlink:href="#linear-gradient"/><linearGradient id="linear-gradient-176" x1="4316.43" y1="38.77" x2="4316.43" y2="15.91" gradientTransform="matrix(-1, 0, 0, 1, 4367.83, 0)" xlink:href="#linear-gradient"/><linearGradient id="linear-gradient-177" x1="4316.43" y1="47" x2="4316.43" y2="1.52" gradientTransform="matrix(-1, 0, 0, 1, 4367.83, 0)" xlink:href="#linear-gradient"/><linearGradient id="linear-gradient-178" x1="4316.43" y1="41.59" x2="4316.43" y2="13.52" gradientTransform="matrix(-1, 0, 0, 1, 4367.83, 0)" xlink:href="#linear-gradient"/><linearGradient id="linear-gradient-179" x1="4317.61" y1="41.17" x2="4317.61" y2="-36.24" gradientTransform="matrix(-1, 0, 0, 1, 4367.83, 0)" xlink:href="#linear-gradient"/><linearGradient id="linear-gradient-180" x1="4317.61" y1="38.77" x2="4317.61" y2="15.91" gradientTransform="matrix(-1, 0, 0, 1, 4367.83, 0)" xlink:href="#linear-gradient"/><linearGradient id="linear-gradient-181" x1="4317.61" y1="47" x2="4317.61" y2="1.52" gradientTransform="matrix(-1, 0, 0, 1, 4367.83, 0)" xlink:href="#linear-gradient"/><linearGradient id="linear-gradient-182" x1="4317.61" y1="41.59" x2="4317.61" y2="13.52" gradientTransform="matrix(-1, 0, 0, 1, 4367.83, 0)" xlink:href="#linear-gradient"/><linearGradient id="linear-gradient-183" x1="4318.78" y1="41.17" x2="4318.78" y2="-36.24" gradientTransform="matrix(-1, 0, 0, 1, 4367.83, 0)" xlink:href="#linear-gradient"/><linearGradient id="linear-gradient-184" x1="4318.78" y1="38.77" x2="4318.78" y2="15.91" gradientTransform="matrix(-1, 0, 0, 1, 4367.83, 0)" xlink:href="#linear-gradient"/><linearGradient id="linear-gradient-185" x1="4318.78" y1="47" x2="4318.78" y2="1.52" gradientTransform="matrix(-1, 0, 0, 1, 4367.83, 0)" xlink:href="#linear-gradient"/><linearGradient id="linear-gradient-186" x1="4318.78" y1="41.59" x2="4318.78" y2="13.52" gradientTransform="matrix(-1, 0, 0, 1, 4367.83, 0)" xlink:href="#linear-gradient"/><linearGradient id="linear-gradient-187" x1="4326.19" y1="41.17" x2="4326.19" y2="-36.25" gradientTransform="matrix(-1, 0, 0, 1, 4367.83, 0)" xlink:href="#linear-gradient"/><linearGradient id="linear-gradient-188" x1="4326.19" y1="47" x2="4326.19" y2="1.52" gradientTransform="matrix(-1, 0, 0, 1, 4367.83, 0)" xlink:href="#linear-gradient"/><linearGradient id="linear-gradient-189" x1="4326.19" y1="39.36" x2="4326.19" y2="22.21" gradientTransform="matrix(-1, 0, 0, 1, 4367.83, 0)" xlink:href="#linear-gradient"/><linearGradient id="linear-gradient-190" x1="36.21" y1="59.38" x2="36.21" y2="52.03" gradientUnits="userSpaceOnUse"><stop offset="0" stop-color="#d1efe7"/><stop offset="0.53" stop-color="#97efe7"/><stop offset="1" stop-color="#3ccbe3"/></linearGradient><linearGradient id="linear-gradient-191" x1="-6.04" y1="-45.19" x2="-0.94" y2="-26.88" gradientTransform="matrix(0.91, 0.41, -0.41, 0.91, 24.34, 88.37)" xlink:href="#linear-gradient"/><linearGradient id="linear-gradient-192" x1="-6.43" y1="-44.87" x2="0.04" y2="-32.14" gradientTransform="matrix(0.91, 0.41, -0.41, 0.91, 24.34, 88.37)" xlink:href="#linear-gradient"/><linearGradient id="linear-gradient-193" x1="-346.31" y1="-44.95" x2="-353.6" y2="-35.59" gradientTransform="matrix(-0.91, -0.41, -0.41, 0.91, -298.8, -57.79)" xlink:href="#linear-gradient"/><linearGradient id="linear-gradient-194" x1="-392.45" y1="50.8" x2="-389.52" y2="61.28" gradientTransform="matrix(-1, 0, 0, 1, -354.04, 0)" xlink:href="#linear-gradient"/><linearGradient id="linear-gradient-195" x1="-392.67" y1="50.98" x2="-388.96" y2="58.27" gradientTransform="matrix(-1, 0, 0, 1, -354.04, 0)" xlink:href="#linear-gradient"/><linearGradient id="linear-gradient-196" x1="39.79" y1="51.43" x2="35.88" y2="56.44" xlink:href="#linear-gradient"/><linearGradient id="linear-gradient-197" x1="39.39" y1="51.64" x2="35.75" y2="56.31" xlink:href="#linear-gradient"/><linearGradient id="linear-gradient-198" x1="63.8" y1="25.2" x2="67.4" y2="38.1" gradientTransform="translate(-26.56 17.61) rotate(5.99)" xlink:href="#linear-gradient"/><linearGradient id="linear-gradient-199" x1="63.53" y1="25.43" x2="68.09" y2="34.4" gradientTransform="translate(-26.56 17.61) rotate(5.99)" xlink:href="#linear-gradient"/><linearGradient id="linear-gradient-200" x1="-415.66" y1="25.61" x2="-420.8" y2="32.21" gradientTransform="matrix(-0.99, -0.1, -0.1, 0.99, -378.09, -19.13)" xlink:href="#linear-gradient"/><linearGradient id="linear-gradient-201" x1="52.08" y1="60.75" x2="52.08" y2="15.65" xlink:href="#linear-gradient"/><linearGradient id="linear-gradient-202" x1="52.22" y1="69.25" x2="52.22" y2="25.74" xlink:href="#linear-gradient"/><linearGradient id="linear-gradient-203" x1="60.61" y1="37.81" x2="51.56" y2="28.57" xlink:href="#linear-gradient"/><linearGradient id="linear-gradient-204" x1="51.13" y1="41.92" x2="51.13" y2="9.4" gradientUnits="userSpaceOnUse"><stop offset="0" stop-color="#ffd600"/><stop offset="0.48" stop-color="#ff9c38"/><stop offset="1" stop-color="#ff5147"/></linearGradient><linearGradient id="linear-gradient-205" x1="44.51" y1="33.02" x2="41.42" y2="39.62" gradientUnits="userSpaceOnUse"><stop offset="0" stop-color="#fff" stop-opacity="0"/><stop offset="1"/></linearGradient><linearGradient id="linear-gradient-206" x1="48.96" y1="19.22" x2="16.09" y2="47.1" gradientUnits="userSpaceOnUse"><stop offset="0" stop-color="#f9d5c5"/><stop offset="1" stop-color="#f78e6b"/></linearGradient><linearGradient id="linear-gradient-207" x1="32.47" y1="33.68" x2="34.67" y2="20.44" gradientUnits="userSpaceOnUse"><stop offset="0.1" stop-color="#fff"/><stop offset="0.79" stop-color="#d1d3d4"/></linearGradient><linearGradient id="linear-gradient-208" x1="48.56" y1="18.75" x2="15.68" y2="46.62" xlink:href="#linear-gradient-206"/><linearGradient id="linear-gradient-209" x1="46.04" y1="32.58" x2="37.42" y2="45.15" xlink:href="#linear-gradient-206"/><linearGradient id="linear-gradient-210" x1="40.59" y1="22.7" x2="19.67" y2="44.03" gradientUnits="userSpaceOnUse"><stop offset="0" stop-color="#3d6fd3"/><stop offset="0.54" stop-color="#2d3a78"/><stop offset="1" stop-color="#27195d"/></linearGradient><linearGradient id="linear-gradient-211" x1="36.05" y1="33.42" x2="27.63" y2="40.5" xlink:href="#linear-gradient-210"/><linearGradient id="linear-gradient-212" x1="21.95" y1="71.57" x2="22.39" y2="65.45" xlink:href="#linear-gradient-210"/><linearGradient id="linear-gradient-213" x1="37.27" y1="65.52" x2="12.69" y2="37.6" xlink:href="#linear-gradient-210"/><linearGradient id="linear-gradient-214" x1="37.56" y1="65.18" x2="13.97" y2="43.01" xlink:href="#linear-gradient-210"/><linearGradient id="linear-gradient-215" x1="42.24" y1="11.3" x2="9.37" y2="39.17" xlink:href="#linear-gradient-206"/><linearGradient id="linear-gradient-216" x1="32.87" y1="40.06" x2="16.37" y2="28.37" xlink:href="#linear-gradient-206"/><linearGradient id="linear-gradient-217" x1="19.54" y1="21.61" x2="25.04" y2="21.61" gradientUnits="userSpaceOnUse"><stop offset="0" stop-color="#a37327"/><stop offset="0.52" stop-color="#7a4127"/><stop offset="1" stop-color="#472727"/></linearGradient><linearGradient id="linear-gradient-218" x1="39.74" y1="8.34" x2="6.86" y2="36.22" xlink:href="#linear-gradient-206"/><linearGradient id="linear-gradient-219" x1="35.73" y1="36.02" x2="19.23" y2="24.34" xlink:href="#linear-gradient-206"/><linearGradient id="linear-gradient-220" x1="42.19" y1="11.24" x2="9.32" y2="39.11" xlink:href="#linear-gradient-206"/><linearGradient id="linear-gradient-221" x1="13.63" y1="12.38" x2="24" y2="29.51" xlink:href="#linear-gradient-217"/><linearGradient id="linear-gradient-222" x1="27.12" y1="36.22" x2="7.75" y2="28.26" xlink:href="#linear-gradient-210"/><linearGradient id="linear-gradient-223" x1="27.36" y1="35.62" x2="8" y2="27.66" xlink:href="#linear-gradient-210"/><linearGradient id="linear-gradient-224" x1="26.97" y1="36.58" x2="7.61" y2="28.62" xlink:href="#linear-gradient-210"/><linearGradient id="linear-gradient-225" x1="31.07" y1="47.55" x2="0.07" y2="31.24" xlink:href="#linear-gradient-210"/><linearGradient id="linear-gradient-226" x1="23.92" y1="50.83" x2="21.1" y2="36.33" xlink:href="#linear-gradient-210"/><linearGradient id="linear-gradient-227" x1="48.22" y1="31.34" x2="9.22" y2="44.68" xlink:href="#linear-gradient-210"/><linearGradient id="linear-gradient-228" x1="33.06" y1="40.34" x2="35.82" y2="26.2" xlink:href="#linear-gradient-207"/><linearGradient id="linear-gradient-229" x1="50.88" y1="48.13" x2="50.88" y2="33.77" xlink:href="#linear-gradient"/></defs><title>teacher</title><g class="cls-1"><g id="Layer_1" data-name="Layer 1"><circle class="cls-2" cx="32" cy="32" r="28"/><path class="cls-3" d="M46.94,39.62H26.58v-12l-.25-.07h.25V17.75A1.78,1.78,0,0,1,28.36,16H55A28,28,0,0,0,9,16H23.29a1.78,1.78,0,0,1,1.78,1.78V39.62h-20A28,28,0,0,0,32,60h.45a5.18,5.18,0,0,1-.15-1.17,10.17,10.17,0,0,1,.11-1.5.69.69,0,0,1,.68-.59h6.23a.69.69,0,0,1,.68.59,10.16,10.16,0,0,1,.11,1.48A28.05,28.05,0,0,0,58.94,39.62Z"/><path class="cls-4" d="M5.36,33.77a.55.55,0,0,1,.55.55v1.15h4.22v-3a.61.61,0,0,1,.61-.61h3.34V30a3.06,3.06,0,0,1,1.16-2.39A51.52,51.52,0,0,1,7,25.78a18,18,0,0,0,5.33.22c2-.41,3,.44,4.32-.14a2.34,2.34,0,0,1,2.84.74c.37.55,1.37,0,2.12.49a6.24,6.24,0,0,0,2.61.45,15.06,15.06,0,0,1-3.69.44v6.91h4.54V17.75A1.78,1.78,0,0,0,23.29,16H9A27.83,27.83,0,0,0,4.16,29v4.72ZM20.84,23a1.61,1.61,0,0,1,1.78,0c.39.38.58-.29,1,.07a4.73,4.73,0,0,0,1.22.63s-3.78.62-5.54-.15A4.43,4.43,0,0,0,20.84,23ZM11,18.49a.81.81,0,0,1,.75.15c.12.16.28,0,.42.12a1.91,1.91,0,0,0,.44.33,6.85,6.85,0,0,1-2.3-.55A2.39,2.39,0,0,0,11,18.49Zm-.69,3.35c1.13-.28,1.65.31,2.43-.09a1.12,1.12,0,0,1,1.55.51c.18.38.77,0,1.16.34a2.83,2.83,0,0,0,1.44.31s-3.29,1.21-9.55-1.23A8.22,8.22,0,0,0,10.33,21.84Z"/><path class="cls-5" d="M21.6,27.09c-.75-.49-1.75.06-2.12-.49a2.34,2.34,0,0,0-2.84-.74c-1.33.58-2.35-.27-4.32.14A18,18,0,0,1,7,25.78a51.52,51.52,0,0,0,8.26,1.87A3,3,0,0,1,17.17,27h3.36v1a15.06,15.06,0,0,0,3.69-.44A6.24,6.24,0,0,1,21.6,27.09Z"/><path class="cls-6" d="M21.6,27.09c-.75-.49-1.75.06-2.12-.49a2.34,2.34,0,0,0-2.84-.74c-1.33.58-2.35-.27-4.32.14A18,18,0,0,1,7,25.78a51.52,51.52,0,0,0,8.26,1.87A3,3,0,0,1,17.17,27h3.36v1a15.06,15.06,0,0,0,3.69-.44A6.24,6.24,0,0,1,21.6,27.09Z"/><path class="cls-7" d="M16.9,22.91a2.83,2.83,0,0,1-1.44-.31c-.39-.34-1,0-1.16-.34a1.12,1.12,0,0,0-1.55-.51c-.78.39-1.3-.19-2.43.09a8.22,8.22,0,0,1-3-.16C13.61,24.13,16.9,22.91,16.9,22.91Z"/><path class="cls-8" d="M16.9,22.91a2.83,2.83,0,0,1-1.44-.31c-.39-.34-1,0-1.16-.34a1.12,1.12,0,0,0-1.55-.51c-.78.39-1.3-.19-2.43.09a8.22,8.22,0,0,1-3-.16C13.61,24.13,16.9,22.91,16.9,22.91Z"/><path class="cls-9" d="M24.86,23.67A4.73,4.73,0,0,1,23.64,23c-.44-.36-.63.31-1-.07a1.61,1.61,0,0,0-1.78,0,4.43,4.43,0,0,1-1.52.51C21.08,24.3,24.86,23.67,24.86,23.67Z"/><path class="cls-10" d="M24.86,23.67A4.73,4.73,0,0,1,23.64,23c-.44-.36-.63.31-1-.07a1.61,1.61,0,0,0-1.78,0,4.43,4.43,0,0,1-1.52.51C21.08,24.3,24.86,23.67,24.86,23.67Z"/><path class="cls-11" d="M12.18,18.75c-.14-.16-.3,0-.42-.12a.81.81,0,0,0-.75-.15,2.39,2.39,0,0,1-.7,0,6.85,6.85,0,0,0,2.3.55A1.91,1.91,0,0,1,12.18,18.75Z"/><path class="cls-12" d="M12.18,18.75c-.14-.16-.3,0-.42-.12a.81.81,0,0,0-.75-.15,2.39,2.39,0,0,1-.7,0,6.85,6.85,0,0,0,2.3.55A1.91,1.91,0,0,1,12.18,18.75Z"/><path class="cls-13" d="M25.07,34.89H20.52V28a33.05,33.05,0,0,1-5.27-.33A3.06,3.06,0,0,0,14.09,30v7.18H10.41v1.12H8.59a2.68,2.68,0,0,1-2.68-2.73v-1.3a.55.55,0,0,0-.55-.55H4.16V29a27.73,27.73,0,0,0,.11,6.74h.09l.12,1.37q.23,1.26.58,2.47h20Z"/><path class="cls-14" d="M25.07,34.89H20.52V28a33.05,33.05,0,0,1-5.27-.33A3.06,3.06,0,0,0,14.09,30v7.18H10.41v1.12H8.59a2.68,2.68,0,0,1-2.68-2.73v-1.3a.55.55,0,0,0-.55-.55H4.16V29a27.73,27.73,0,0,0,.11,6.74h.09l.12,1.37q.23,1.26.58,2.47h20Z"/><path class="cls-15" d="M17.17,27a3,3,0,0,0-1.91.69,33.05,33.05,0,0,0,5.27.33V27Z"/><path class="cls-16" d="M17.17,27a3,3,0,0,0-1.91.69,33.05,33.05,0,0,0,5.27.33V27Z"/><path class="cls-17" d="M17.17,27a3,3,0,0,0-1.91.69,33.05,33.05,0,0,0,5.27.33V27Z"/><path class="cls-18" d="M4.26,35.78q.09.69.22,1.37l-.12-1.37Z"/><path class="cls-19" d="M4.26,35.78q.09.69.22,1.37l-.12-1.37Z"/><path class="cls-20" d="M4.26,35.78q.09.69.22,1.37l-.12-1.37Z"/><path class="cls-21" d="M10.13,32.5v3H5.91v.15a2.68,2.68,0,0,0,2.68,2.73h1.82V37.23h3.68V31.88H10.75A.61.61,0,0,0,10.13,32.5Z"/><path class="cls-22" d="M10.13,32.5v3H5.91v.15a2.68,2.68,0,0,0,2.68,2.73h1.82V37.23h3.68V31.88H10.75A.61.61,0,0,0,10.13,32.5Z"/><path class="cls-23" d="M10.13,32.5v3H5.91v.15a2.68,2.68,0,0,0,2.68,2.73h1.82V37.23h3.68V31.88H10.75A.61.61,0,0,0,10.13,32.5Z"/><path class="cls-24" d="M26.58,17.75v9.79a5.4,5.4,0,0,0,2.36-.45c.75-.49,1.75.06,2.12-.49l.06-.08V24A8.5,8.5,0,0,1,28,23.71a2.83,2.83,0,0,0,1.44-.31c.39-.34,1,0,1.16-.34a1.2,1.2,0,0,1,.47-.5V18.8h.05A6.38,6.38,0,0,1,37,22.6l.6-.12-.56.2a6.36,6.36,0,0,1,.51,2.5v.72a5.37,5.37,0,0,1,.66.1,18,18,0,0,0,5.33-.22,55.25,55.25,0,0,1-6,1.51v4.59H40.9a.61.61,0,0,1,.61.61v3h4.22V34.32a.55.55,0,0,1,.55-.55h1.2V27.06a.53.53,0,0,1,.53-.53H55a.53.53,0,0,1,.53.53v8.72h1.24v-4H58V29.11a1.73,1.73,0,0,1,1.66-1.72,27.82,27.82,0,0,0-.76-3.3,52.79,52.79,0,0,1-5.95,1,9.17,9.17,0,0,0,4.41-1.6,2.68,2.68,0,0,1,1.16-.56A27.82,27.82,0,0,0,57.3,20c-5.32,2.15-9.39,3.31-9.39,3.31,3.8-1.27,7-3.31,7.91-4.66a2.39,2.39,0,0,1,.49-.52Q55.68,17,55,16H28.36A1.78,1.78,0,0,0,26.58,17.75Zm21.86,7.19c.23.14.32-.21.59-.08a2.62,2.62,0,0,0,.72.18,9.37,9.37,0,0,1-3.2.53,3.27,3.27,0,0,0,.86-.42A1.11,1.11,0,0,1,48.44,24.94Zm-2.24-6.2a1.11,1.11,0,0,1,1-.21c.23.14.32-.21.59-.08a2.62,2.62,0,0,0,.72.18,9.37,9.37,0,0,1-3.2.53A3.27,3.27,0,0,0,46.2,18.74Zm-9-.28c.36-.44.67.18,1-.27a1.61,1.61,0,0,1,1.75-.31,4.43,4.43,0,0,0,1.59.21c-1.57,1.1-5.4,1.23-5.4,1.23A4.73,4.73,0,0,0,37.21,18.46Zm-7.69-.89c.17-.13.29.1.43,0a.81.81,0,0,1,.77,0,2.39,2.39,0,0,0,.68.17,6.85,6.85,0,0,1-2.37.11A1.92,1.92,0,0,0,29.52,17.57Z"/><path class="cls-25" d="M31.12,28a18.93,18.93,0,0,1-4.54-.38v7.28h4.54Z"/><path class="cls-26" d="M55.82,18.65C54.9,20,51.71,22,47.92,23.31c0,0,4.07-1.15,9.39-3.31-.3-.64-.64-1.26-1-1.88A2.39,2.39,0,0,0,55.82,18.65Z"/><path class="cls-27" d="M55.82,18.65C54.9,20,51.71,22,47.92,23.31c0,0,4.07-1.15,9.39-3.31-.3-.64-.64-1.26-1-1.88A2.39,2.39,0,0,0,55.82,18.65Z"/><path class="cls-28" d="M52.91,25.07a52.79,52.79,0,0,0,5.95-1q-.18-.6-.38-1.18a2.68,2.68,0,0,0-1.16.56A9.17,9.17,0,0,1,52.91,25.07Z"/><path class="cls-29" d="M52.91,25.07a52.79,52.79,0,0,0,5.95-1q-.18-.6-.38-1.18a2.68,2.68,0,0,0-1.16.56A9.17,9.17,0,0,1,52.91,25.07Z"/><path class="cls-30" d="M26.32,27.54l.25.07v-.07Z"/><path class="cls-31" d="M43.54,25.78a18,18,0,0,1-5.33.22,5.37,5.37,0,0,0-.66-.1v1.39A55.25,55.25,0,0,0,43.54,25.78Z"/><path class="cls-32" d="M43.54,25.78a18,18,0,0,1-5.33.22,5.37,5.37,0,0,0-.66-.1v1.39A55.25,55.25,0,0,0,43.54,25.78Z"/><path class="cls-33" d="M31.12,28V26.52l-.06.08c-.37.55-1.37,0-2.12.49a5.4,5.4,0,0,1-2.36.45v.07A18.93,18.93,0,0,0,31.12,28Z"/><path class="cls-34" d="M31.12,28V26.52l-.06.08c-.37.55-1.37,0-2.12.49a5.4,5.4,0,0,1-2.36.45v.07A18.93,18.93,0,0,0,31.12,28Z"/><path class="cls-35" d="M30.65,23.06c-.18.38-.77,0-1.16.34a2.83,2.83,0,0,1-1.44.31,8.5,8.5,0,0,0,3.07.28V22.57A1.2,1.2,0,0,0,30.65,23.06Z"/><path class="cls-36" d="M30.65,23.06c-.18.38-.77,0-1.16.34a2.83,2.83,0,0,1-1.44.31,8.5,8.5,0,0,0,3.07.28V22.57A1.2,1.2,0,0,0,30.65,23.06Z"/><path class="cls-37" d="M37.6,22.48l-.6.12,0,.09Z"/><path class="cls-38" d="M37.6,22.48l-.6.12,0,.09Z"/><path class="cls-39" d="M39.95,17.88a1.61,1.61,0,0,0-1.75.31c-.31.45-.62-.17-1,.27a4.73,4.73,0,0,1-1.07.86s3.83-.13,5.4-1.23A4.43,4.43,0,0,1,39.95,17.88Z"/><path class="cls-40" d="M39.95,17.88a1.61,1.61,0,0,0-1.75.31c-.31.45-.62-.17-1,.27a4.73,4.73,0,0,1-1.07.86s3.83-.13,5.4-1.23A4.43,4.43,0,0,1,39.95,17.88Z"/><path class="cls-41" d="M48.54,18.63a2.62,2.62,0,0,1-.72-.18c-.26-.13-.35.22-.59.08a1.11,1.11,0,0,0-1,.21,3.27,3.27,0,0,1-.86.42A9.37,9.37,0,0,0,48.54,18.63Z"/><path class="cls-42" d="M48.54,18.63a2.62,2.62,0,0,1-.72-.18c-.26-.13-.35.22-.59.08a1.11,1.11,0,0,0-1,.21,3.27,3.27,0,0,1-.86.42A9.37,9.37,0,0,0,48.54,18.63Z"/><path class="cls-43" d="M46.55,25.57a9.37,9.37,0,0,0,3.2-.53,2.62,2.62,0,0,1-.72-.18c-.26-.13-.35.22-.59.08a1.11,1.11,0,0,0-1,.21A3.27,3.27,0,0,1,46.55,25.57Z"/><path class="cls-44" d="M46.55,25.57a9.37,9.37,0,0,0,3.2-.53,2.62,2.62,0,0,1-.72-.18c-.26-.13-.35.22-.59.08a1.11,1.11,0,0,0-1,.21A3.27,3.27,0,0,1,46.55,25.57Z"/><path class="cls-45" d="M31.39,17.69a2.39,2.39,0,0,1-.68-.17.81.81,0,0,0-.77,0c-.15.14-.26-.1-.43,0a1.92,1.92,0,0,1-.49.24A6.85,6.85,0,0,0,31.39,17.69Z"/><path class="cls-46" d="M31.39,17.69a2.39,2.39,0,0,1-.68-.17.81.81,0,0,0-.77,0c-.15.14-.26-.1-.43,0a1.92,1.92,0,0,1-.49.24A6.85,6.85,0,0,0,31.39,17.69Z"/><path class="cls-47" d="M58,29.11v2.66H56.73v4H55.49v1.94h3.93a28,28,0,0,0,.2-10.33A1.73,1.73,0,0,0,58,29.11Z"/><path class="cls-48" d="M58,29.11v2.66H56.73v4H55.49v1.94h3.93a28,28,0,0,0,.2-10.33A1.73,1.73,0,0,0,58,29.11Z"/><path class="cls-49" d="M55.49,35.78V27.06a.53.53,0,0,0-.53-.53H48a.53.53,0,0,0-.53.53v6.71h-1.2a.55.55,0,0,0-.55.55v1.3a2.68,2.68,0,0,1-2.68,2.73H41.23V37.23H37.55V27.29a37.54,37.54,0,0,1-6.43.7v6.9H26.58v4.73H46.94l.35-3.84Zm-2.08-8.35a.05.05,0,0,1,.05-.05H54a.05.05,0,0,1,.05.05V28a.05.05,0,0,1-.05.05h-.57a.05.05,0,0,1-.05-.05Zm0,1.24a.05.05,0,0,1,.05-.05H54a.05.05,0,0,1,.05.05v.57a.05.05,0,0,1-.05.05h-.57a.05.05,0,0,1-.05-.05Zm0,1.24a.05.05,0,0,1,.05-.05H54a.05.05,0,0,1,.05.05v.57a.05.05,0,0,1-.05.05h-.57a.05.05,0,0,1-.05-.05Zm0,1.24a.05.05,0,0,1,.05-.05H54a.05.05,0,0,1,.05.05v.57a.05.05,0,0,1-.05.05h-.57a.05.05,0,0,1-.05-.05Zm0,1.24a.05.05,0,0,1,.05-.05H54a.05.05,0,0,1,.05.05V33A.05.05,0,0,1,54,33h-.57a.05.05,0,0,1-.05-.05Zm0,1.24a.05.05,0,0,1,.05-.05H54a.05.05,0,0,1,.05.05v.57a.05.05,0,0,1-.05.05h-.57a.05.05,0,0,1-.05-.05Zm0,1.24a.05.05,0,0,1,.05-.05H54a.05.05,0,0,1,.05.05v.57a.05.05,0,0,1-.05.05h-.57a.05.05,0,0,1-.05-.05Zm-1.17-7.42a.05.05,0,0,1,.05-.05h.57a.05.05,0,0,1,.05.05V28a.05.05,0,0,1-.05.05h-.57a.05.05,0,0,1-.05-.05Zm0,1.24a.05.05,0,0,1,.05-.05h.57a.05.05,0,0,1,.05.05v.57a.05.05,0,0,1-.05.05h-.57a.05.05,0,0,1-.05-.05Zm0,1.24a.05.05,0,0,1,.05-.05h.57a.05.05,0,0,1,.05.05v.57a.05.05,0,0,1-.05.05h-.57a.05.05,0,0,1-.05-.05Zm0,1.24a.05.05,0,0,1,.05-.05h.57a.05.05,0,0,1,.05.05v.57a.05.05,0,0,1-.05.05h-.57a.05.05,0,0,1-.05-.05Zm0,1.24a.05.05,0,0,1,.05-.05h.57a.05.05,0,0,1,.05.05V33a.05.05,0,0,1-.05.05h-.57a.05.05,0,0,1-.05-.05Zm0,1.24a.05.05,0,0,1,.05-.05h.57a.05.05,0,0,1,.05.05v.57a.05.05,0,0,1-.05.05h-.57a.05.05,0,0,1-.05-.05Zm0,1.24a.05.05,0,0,1,.05-.05h.57a.05.05,0,0,1,.05.05v.57a.05.05,0,0,1-.05.05h-.57a.05.05,0,0,1-.05-.05Zm-1.17-7.42a.05.05,0,0,1,.05-.05h.57a.05.05,0,0,1,.05.05V28a.05.05,0,0,1-.05.05h-.57a.05.05,0,0,1-.05-.05Zm0,1.24a.05.05,0,0,1,.05-.05h.57a.05.05,0,0,1,.05.05v.57a.05.05,0,0,1-.05.05h-.57a.05.05,0,0,1-.05-.05Zm0,1.24a.05.05,0,0,1,.05-.05h.57a.05.05,0,0,1,.05.05v.57a.05.05,0,0,1-.05.05h-.57a.05.05,0,0,1-.05-.05Zm0,1.24a.05.05,0,0,1,.05-.05h.57a.05.05,0,0,1,.05.05v.57a.05.05,0,0,1-.05.05h-.57a.05.05,0,0,1-.05-.05Zm0,1.24a.05.05,0,0,1,.05-.05h.57a.05.05,0,0,1,.05.05V33a.05.05,0,0,1-.05.05h-.57a.05.05,0,0,1-.05-.05Zm0,1.24a.05.05,0,0,1,.05-.05h.57a.05.05,0,0,1,.05.05v.57a.05.05,0,0,1-.05.05h-.57a.05.05,0,0,1-.05-.05Zm0,1.24a.05.05,0,0,1,.05-.05h.57a.05.05,0,0,1,.05.05v.57a.05.05,0,0,1-.05.05h-.57a.05.05,0,0,1-.05-.05Zm-1.17-7.42a.05.05,0,0,1,.05-.05h.57a.05.05,0,0,1,.05.05V28a.05.05,0,0,1-.05.05h-.57a.05.05,0,0,1-.05-.05Zm0,1.24a.05.05,0,0,1,.05-.05h.57a.05.05,0,0,1,.05.05v.57a.05.05,0,0,1-.05.05h-.57a.05.05,0,0,1-.05-.05Zm0,1.24a.05.05,0,0,1,.05-.05h.57a.05.05,0,0,1,.05.05v.57a.05.05,0,0,1-.05.05h-.57a.05.05,0,0,1-.05-.05Zm0,1.24a.05.05,0,0,1,.05-.05h.57a.05.05,0,0,1,.05.05v.57a.05.05,0,0,1-.05.05h-.57a.05.05,0,0,1-.05-.05Zm0,1.24a.05.05,0,0,1,.05-.05h.57a.05.05,0,0,1,.05.05V33a.05.05,0,0,1-.05.05h-.57a.05.05,0,0,1-.05-.05Zm0,1.24a.05.05,0,0,1,.05-.05h.57a.05.05,0,0,1,.05.05v.57a.05.05,0,0,1-.05.05h-.57a.05.05,0,0,1-.05-.05Zm0,1.24a.05.05,0,0,1,.05-.05h.57a.05.05,0,0,1,.05.05v.57a.05.05,0,0,1-.05.05h-.57a.05.05,0,0,1-.05-.05Zm-1.17-7.42a.05.05,0,0,1,.05-.05h.57a.05.05,0,0,1,.05.05V28a.05.05,0,0,1-.05.05h-.57a.05.05,0,0,1-.05-.05Zm0,1.24a.05.05,0,0,1,.05-.05h.57a.05.05,0,0,1,.05.05v.57a.05.05,0,0,1-.05.05h-.57a.05.05,0,0,1-.05-.05Zm0,1.24a.05.05,0,0,1,.05-.05h.57a.05.05,0,0,1,.05.05v.57a.05.05,0,0,1-.05.05h-.57a.05.05,0,0,1-.05-.05Zm0,1.24a.05.05,0,0,1,.05-.05h.57a.05.05,0,0,1,.05.05v.57a.05.05,0,0,1-.05.05h-.57a.05.05,0,0,1-.05-.05Zm0,1.24a.05.05,0,0,1,.05-.05h.57a.05.05,0,0,1,.05.05V33a.05.05,0,0,1-.05.05h-.57a.05.05,0,0,1-.05-.05Zm0,1.24a.05.05,0,0,1,.05-.05h.57a.05.05,0,0,1,.05.05v.57a.05.05,0,0,1-.05.05h-.57a.05.05,0,0,1-.05-.05Zm0,1.24a.05.05,0,0,1,.05-.05h.57a.05.05,0,0,1,.05.05v.57a.05.05,0,0,1-.05.05h-.57a.05.05,0,0,1-.05-.05Z"/><path class="cls-50" d="M55.49,35.78V27.06a.53.53,0,0,0-.53-.53H48a.53.53,0,0,0-.53.53v6.71h-1.2a.55.55,0,0,0-.55.55v1.3a2.68,2.68,0,0,1-2.68,2.73H41.23V37.23H37.55V27.29a37.54,37.54,0,0,1-6.43.7v6.9H26.58v4.73H46.94l.35-3.84Zm-2.08-8.35a.05.05,0,0,1,.05-.05H54a.05.05,0,0,1,.05.05V28a.05.05,0,0,1-.05.05h-.57a.05.05,0,0,1-.05-.05Zm0,1.24a.05.05,0,0,1,.05-.05H54a.05.05,0,0,1,.05.05v.57a.05.05,0,0,1-.05.05h-.57a.05.05,0,0,1-.05-.05Zm0,1.24a.05.05,0,0,1,.05-.05H54a.05.05,0,0,1,.05.05v.57a.05.05,0,0,1-.05.05h-.57a.05.05,0,0,1-.05-.05Zm0,1.24a.05.05,0,0,1,.05-.05H54a.05.05,0,0,1,.05.05v.57a.05.05,0,0,1-.05.05h-.57a.05.05,0,0,1-.05-.05Zm0,1.24a.05.05,0,0,1,.05-.05H54a.05.05,0,0,1,.05.05V33A.05.05,0,0,1,54,33h-.57a.05.05,0,0,1-.05-.05Zm0,1.24a.05.05,0,0,1,.05-.05H54a.05.05,0,0,1,.05.05v.57a.05.05,0,0,1-.05.05h-.57a.05.05,0,0,1-.05-.05Zm0,1.24a.05.05,0,0,1,.05-.05H54a.05.05,0,0,1,.05.05v.57a.05.05,0,0,1-.05.05h-.57a.05.05,0,0,1-.05-.05Zm-1.17-7.42a.05.05,0,0,1,.05-.05h.57a.05.05,0,0,1,.05.05V28a.05.05,0,0,1-.05.05h-.57a.05.05,0,0,1-.05-.05Zm0,1.24a.05.05,0,0,1,.05-.05h.57a.05.05,0,0,1,.05.05v.57a.05.05,0,0,1-.05.05h-.57a.05.05,0,0,1-.05-.05Zm0,1.24a.05.05,0,0,1,.05-.05h.57a.05.05,0,0,1,.05.05v.57a.05.05,0,0,1-.05.05h-.57a.05.05,0,0,1-.05-.05Zm0,1.24a.05.05,0,0,1,.05-.05h.57a.05.05,0,0,1,.05.05v.57a.05.05,0,0,1-.05.05h-.57a.05.05,0,0,1-.05-.05Zm0,1.24a.05.05,0,0,1,.05-.05h.57a.05.05,0,0,1,.05.05V33a.05.05,0,0,1-.05.05h-.57a.05.05,0,0,1-.05-.05Zm0,1.24a.05.05,0,0,1,.05-.05h.57a.05.05,0,0,1,.05.05v.57a.05.05,0,0,1-.05.05h-.57a.05.05,0,0,1-.05-.05Zm0,1.24a.05.05,0,0,1,.05-.05h.57a.05.05,0,0,1,.05.05v.57a.05.05,0,0,1-.05.05h-.57a.05.05,0,0,1-.05-.05Zm-1.17-7.42a.05.05,0,0,1,.05-.05h.57a.05.05,0,0,1,.05.05V28a.05.05,0,0,1-.05.05h-.57a.05.05,0,0,1-.05-.05Zm0,1.24a.05.05,0,0,1,.05-.05h.57a.05.05,0,0,1,.05.05v.57a.05.05,0,0,1-.05.05h-.57a.05.05,0,0,1-.05-.05Zm0,1.24a.05.05,0,0,1,.05-.05h.57a.05.05,0,0,1,.05.05v.57a.05.05,0,0,1-.05.05h-.57a.05.05,0,0,1-.05-.05Zm0,1.24a.05.05,0,0,1,.05-.05h.57a.05.05,0,0,1,.05.05v.57a.05.05,0,0,1-.05.05h-.57a.05.05,0,0,1-.05-.05Zm0,1.24a.05.05,0,0,1,.05-.05h.57a.05.05,0,0,1,.05.05V33a.05.05,0,0,1-.05.05h-.57a.05.05,0,0,1-.05-.05Zm0,1.24a.05.05,0,0,1,.05-.05h.57a.05.05,0,0,1,.05.05v.57a.05.05,0,0,1-.05.05h-.57a.05.05,0,0,1-.05-.05Zm0,1.24a.05.05,0,0,1,.05-.05h.57a.05.05,0,0,1,.05.05v.57a.05.05,0,0,1-.05.05h-.57a.05.05,0,0,1-.05-.05Zm-1.17-7.42a.05.05,0,0,1,.05-.05h.57a.05.05,0,0,1,.05.05V28a.05.05,0,0,1-.05.05h-.57a.05.05,0,0,1-.05-.05Zm0,1.24a.05.05,0,0,1,.05-.05h.57a.05.05,0,0,1,.05.05v.57a.05.05,0,0,1-.05.05h-.57a.05.05,0,0,1-.05-.05Zm0,1.24a.05.05,0,0,1,.05-.05h.57a.05.05,0,0,1,.05.05v.57a.05.05,0,0,1-.05.05h-.57a.05.05,0,0,1-.05-.05Zm0,1.24a.05.05,0,0,1,.05-.05h.57a.05.05,0,0,1,.05.05v.57a.05.05,0,0,1-.05.05h-.57a.05.05,0,0,1-.05-.05Zm0,1.24a.05.05,0,0,1,.05-.05h.57a.05.05,0,0,1,.05.05V33a.05.05,0,0,1-.05.05h-.57a.05.05,0,0,1-.05-.05Zm0,1.24a.05.05,0,0,1,.05-.05h.57a.05.05,0,0,1,.05.05v.57a.05.05,0,0,1-.05.05h-.57a.05.05,0,0,1-.05-.05Zm0,1.24a.05.05,0,0,1,.05-.05h.57a.05.05,0,0,1,.05.05v.57a.05.05,0,0,1-.05.05h-.57a.05.05,0,0,1-.05-.05Zm-1.17-7.42a.05.05,0,0,1,.05-.05h.57a.05.05,0,0,1,.05.05V28a.05.05,0,0,1-.05.05h-.57a.05.05,0,0,1-.05-.05Zm0,1.24a.05.05,0,0,1,.05-.05h.57a.05.05,0,0,1,.05.05v.57a.05.05,0,0,1-.05.05h-.57a.05.05,0,0,1-.05-.05Zm0,1.24a.05.05,0,0,1,.05-.05h.57a.05.05,0,0,1,.05.05v.57a.05.05,0,0,1-.05.05h-.57a.05.05,0,0,1-.05-.05Zm0,1.24a.05.05,0,0,1,.05-.05h.57a.05.05,0,0,1,.05.05v.57a.05.05,0,0,1-.05.05h-.57a.05.05,0,0,1-.05-.05Zm0,1.24a.05.05,0,0,1,.05-.05h.57a.05.05,0,0,1,.05.05V33a.05.05,0,0,1-.05.05h-.57a.05.05,0,0,1-.05-.05Zm0,1.24a.05.05,0,0,1,.05-.05h.57a.05.05,0,0,1,.05.05v.57a.05.05,0,0,1-.05.05h-.57a.05.05,0,0,1-.05-.05Zm0,1.24a.05.05,0,0,1,.05-.05h.57a.05.05,0,0,1,.05.05v.57a.05.05,0,0,1-.05.05h-.57a.05.05,0,0,1-.05-.05Z"/><path class="cls-51" d="M33.89,25.86c1.17.52,2.11-.09,3.66,0v-.72a6.36,6.36,0,0,0-.51-2.5A20.3,20.3,0,0,1,31.12,24v2.52A2.34,2.34,0,0,1,33.89,25.86Z"/><path class="cls-52" d="M33.89,25.86c1.17.52,2.11-.09,3.66,0v-.72a6.36,6.36,0,0,0-.51-2.5A20.3,20.3,0,0,1,31.12,24v2.52A2.34,2.34,0,0,1,33.89,25.86Z"/><path class="cls-53" d="M32.19,22.55c.78.39,1.3-.19,2.43.09a6.69,6.69,0,0,0,2.38,0,6.38,6.38,0,0,0-5.83-3.79h-.05v3.76A1.07,1.07,0,0,1,32.19,22.55Z"/><path class="cls-54" d="M32.19,22.55c.78.39,1.3-.19,2.43.09a6.69,6.69,0,0,0,2.38,0,6.38,6.38,0,0,0-5.83-3.79h-.05v3.76A1.07,1.07,0,0,1,32.19,22.55Z"/><path class="cls-55" d="M37.55,27.29V25.9c-1.55-.13-2.49.47-3.66,0a2.34,2.34,0,0,0-2.77.66V28A37.54,37.54,0,0,0,37.55,27.29Z"/><path class="cls-56" d="M37.55,27.29V25.9c-1.55-.13-2.49.47-3.66,0a2.34,2.34,0,0,0-2.77.66V28A37.54,37.54,0,0,0,37.55,27.29Z"/><path class="cls-57" d="M37.55,27.29V25.9c-1.55-.13-2.49.47-3.66,0a2.34,2.34,0,0,0-2.77.66V28A37.54,37.54,0,0,0,37.55,27.29Z"/><path class="cls-58" d="M37,22.6a6.69,6.69,0,0,1-2.38,0c-1.13-.28-1.65.31-2.43-.09a1.07,1.07,0,0,0-1.08,0V24A20.3,20.3,0,0,0,37,22.69Z"/><path class="cls-59" d="M37,22.6a6.69,6.69,0,0,1-2.38,0c-1.13-.28-1.65.31-2.43-.09a1.07,1.07,0,0,0-1.08,0V24A20.3,20.3,0,0,0,37,22.69Z"/><path class="cls-60" d="M37,22.6a6.69,6.69,0,0,1-2.38,0c-1.13-.28-1.65.31-2.43-.09a1.07,1.07,0,0,0-1.08,0V24A20.3,20.3,0,0,0,37,22.69Z"/><path class="cls-61" d="M55.49,35.78h-8.2l-.35,3.84h12c.18-.63.34-1.26.47-1.9H55.49Zm-6.1.88a.05.05,0,0,1-.05.05h-.57a.05.05,0,0,1-.05-.05v-.57a.05.05,0,0,1,.05-.05h.57a.05.05,0,0,1,.05.05Zm1.17,0a.05.05,0,0,1-.05.05h-.57a.05.05,0,0,1-.05-.05v-.57a.05.05,0,0,1,.05-.05h.57a.05.05,0,0,1,.05.05Zm1.17,0a.05.05,0,0,1-.05.05h-.57a.05.05,0,0,1-.05-.05v-.57a.05.05,0,0,1,.05-.05h.57a.05.05,0,0,1,.05.05Zm1.17,0a.05.05,0,0,1-.05.05h-.57a.05.05,0,0,1-.05-.05v-.57a.05.05,0,0,1,.05-.05h.57a.05.05,0,0,1,.05.05Zm1.17,0a.05.05,0,0,1-.05.05h-.57a.05.05,0,0,1-.05-.05v-.57a.05.05,0,0,1,.05-.05H54a.05.05,0,0,1,.05.05Z"/><path class="cls-62" d="M55.49,35.78h-8.2l-.35,3.84h12c.18-.63.34-1.26.47-1.9H55.49Zm-6.1.88a.05.05,0,0,1-.05.05h-.57a.05.05,0,0,1-.05-.05v-.57a.05.05,0,0,1,.05-.05h.57a.05.05,0,0,1,.05.05Zm1.17,0a.05.05,0,0,1-.05.05h-.57a.05.05,0,0,1-.05-.05v-.57a.05.05,0,0,1,.05-.05h.57a.05.05,0,0,1,.05.05Zm1.17,0a.05.05,0,0,1-.05.05h-.57a.05.05,0,0,1-.05-.05v-.57a.05.05,0,0,1,.05-.05h.57a.05.05,0,0,1,.05.05Zm1.17,0a.05.05,0,0,1-.05.05h-.57a.05.05,0,0,1-.05-.05v-.57a.05.05,0,0,1,.05-.05h.57a.05.05,0,0,1,.05.05Zm1.17,0a.05.05,0,0,1-.05.05h-.57a.05.05,0,0,1-.05-.05v-.57a.05.05,0,0,1,.05-.05H54a.05.05,0,0,1,.05.05Z"/><path class="cls-63" d="M55.49,35.78h-8.2l-.35,3.84h12c.18-.63.34-1.26.47-1.9H55.49Zm-6.1.88a.05.05,0,0,1-.05.05h-.57a.05.05,0,0,1-.05-.05v-.57a.05.05,0,0,1,.05-.05h.57a.05.05,0,0,1,.05.05Zm1.17,0a.05.05,0,0,1-.05.05h-.57a.05.05,0,0,1-.05-.05v-.57a.05.05,0,0,1,.05-.05h.57a.05.05,0,0,1,.05.05Zm1.17,0a.05.05,0,0,1-.05.05h-.57a.05.05,0,0,1-.05-.05v-.57a.05.05,0,0,1,.05-.05h.57a.05.05,0,0,1,.05.05Zm1.17,0a.05.05,0,0,1-.05.05h-.57a.05.05,0,0,1-.05-.05v-.57a.05.05,0,0,1,.05-.05h.57a.05.05,0,0,1,.05.05Zm1.17,0a.05.05,0,0,1-.05.05h-.57a.05.05,0,0,1-.05-.05v-.57a.05.05,0,0,1,.05-.05H54a.05.05,0,0,1,.05.05Z"/><rect class="cls-64" x="53.41" y="27.38" width="0.68" height="0.68" rx="0.05" ry="0.05"/><rect class="cls-65" x="53.41" y="27.38" width="0.68" height="0.68" rx="0.05" ry="0.05"/><rect class="cls-66" x="53.41" y="27.38" width="0.68" height="0.68" rx="0.05" ry="0.05"/><rect class="cls-67" x="52.24" y="27.38" width="0.68" height="0.68" rx="0.05" ry="0.05"/><rect class="cls-68" x="52.24" y="27.38" width="0.68" height="0.68" rx="0.05" ry="0.05"/><rect class="cls-69" x="52.24" y="27.38" width="0.68" height="0.68" rx="0.05" ry="0.05"/><rect class="cls-70" x="51.06" y="27.38" width="0.68" height="0.68" rx="0.05" ry="0.05"/><rect class="cls-71" x="51.06" y="27.38" width="0.68" height="0.68" rx="0.05" ry="0.05"/><rect class="cls-72" x="51.06" y="27.38" width="0.68" height="0.68" rx="0.05" ry="0.05"/><rect class="cls-73" x="49.89" y="27.38" width="0.68" height="0.68" rx="0.05" ry="0.05"/><rect class="cls-74" x="49.89" y="27.38" width="0.68" height="0.68" rx="0.05" ry="0.05"/><rect class="cls-75" x="49.89" y="27.38" width="0.68" height="0.68" rx="0.05" ry="0.05"/><rect class="cls-76" x="48.71" y="27.38" width="0.68" height="0.68" rx="0.05" ry="0.05"/><rect class="cls-77" x="48.71" y="27.38" width="0.68" height="0.68" rx="0.05" ry="0.05"/><rect class="cls-78" x="48.71" y="27.38" width="0.68" height="0.68" rx="0.05" ry="0.05"/><rect class="cls-64" x="53.41" y="28.62" width="0.68" height="0.68" rx="0.05" ry="0.05"/><rect class="cls-65" x="53.41" y="28.62" width="0.68" height="0.68" rx="0.05" ry="0.05"/><rect class="cls-79" x="53.41" y="28.62" width="0.68" height="0.68" rx="0.05" ry="0.05"/><rect class="cls-67" x="52.24" y="28.62" width="0.68" height="0.68" rx="0.05" ry="0.05"/><rect class="cls-68" x="52.24" y="28.62" width="0.68" height="0.68" rx="0.05" ry="0.05"/><rect class="cls-80" x="52.24" y="28.62" width="0.68" height="0.68" rx="0.05" ry="0.05"/><rect class="cls-70" x="51.06" y="28.62" width="0.68" height="0.68" rx="0.05" ry="0.05"/><rect class="cls-71" x="51.06" y="28.62" width="0.68" height="0.68" rx="0.05" ry="0.05"/><rect class="cls-81" x="51.06" y="28.62" width="0.68" height="0.68" rx="0.05" ry="0.05"/><rect class="cls-73" x="49.89" y="28.62" width="0.68" height="0.68" rx="0.05" ry="0.05"/><rect class="cls-74" x="49.89" y="28.62" width="0.68" height="0.68" rx="0.05" ry="0.05"/><rect class="cls-82" x="49.89" y="28.62" width="0.68" height="0.68" rx="0.05" ry="0.05"/><rect class="cls-76" x="48.71" y="28.62" width="0.68" height="0.68" rx="0.05" ry="0.05"/><rect class="cls-77" x="48.71" y="28.62" width="0.68" height="0.68" rx="0.05" ry="0.05"/><rect class="cls-83" x="48.71" y="28.62" width="0.68" height="0.68" rx="0.05" ry="0.05"/><rect class="cls-84" x="53.41" y="29.86" width="0.68" height="0.68" rx="0.05" ry="0.05"/><rect class="cls-85" x="53.41" y="29.86" width="0.68" height="0.68" rx="0.05" ry="0.05"/><rect class="cls-79" x="53.41" y="29.86" width="0.68" height="0.68" rx="0.05" ry="0.05"/><rect class="cls-86" x="52.24" y="29.86" width="0.68" height="0.68" rx="0.05" ry="0.05"/><rect class="cls-87" x="52.24" y="29.86" width="0.68" height="0.68" rx="0.05" ry="0.05"/><rect class="cls-80" x="52.24" y="29.86" width="0.68" height="0.68" rx="0.05" ry="0.05"/><rect class="cls-88" x="51.06" y="29.86" width="0.68" height="0.68" rx="0.05" ry="0.05"/><rect class="cls-89" x="51.06" y="29.86" width="0.68" height="0.68" rx="0.05" ry="0.05"/><rect class="cls-81" x="51.06" y="29.86" width="0.68" height="0.68" rx="0.05" ry="0.05"/><rect class="cls-90" x="49.89" y="29.86" width="0.68" height="0.68" rx="0.05" ry="0.05"/><rect class="cls-91" x="49.89" y="29.86" width="0.68" height="0.68" rx="0.05" ry="0.05"/><rect class="cls-82" x="49.89" y="29.86" width="0.68" height="0.68" rx="0.05" ry="0.05"/><rect class="cls-92" x="48.71" y="29.86" width="0.68" height="0.68" rx="0.05" ry="0.05"/><rect class="cls-93" x="48.71" y="29.86" width="0.68" height="0.68" rx="0.05" ry="0.05"/><rect class="cls-83" x="48.71" y="29.86" width="0.68" height="0.68" rx="0.05" ry="0.05"/><rect class="cls-84" x="53.41" y="31.09" width="0.68" height="0.68" rx="0.05" ry="0.05"/><rect class="cls-85" x="53.41" y="31.09" width="0.68" height="0.68" rx="0.05" ry="0.05"/><rect class="cls-94" x="53.41" y="31.09" width="0.68" height="0.68" rx="0.05" ry="0.05"/><rect class="cls-86" x="52.24" y="31.09" width="0.68" height="0.68" rx="0.05" ry="0.05"/><rect class="cls-87" x="52.24" y="31.09" width="0.68" height="0.68" rx="0.05" ry="0.05"/><rect class="cls-95" x="52.24" y="31.09" width="0.68" height="0.68" rx="0.05" ry="0.05"/><rect class="cls-88" x="51.06" y="31.09" width="0.68" height="0.68" rx="0.05" ry="0.05"/><rect class="cls-89" x="51.06" y="31.09" width="0.68" height="0.68" rx="0.05" ry="0.05"/><rect class="cls-96" x="51.06" y="31.09" width="0.68" height="0.68" rx="0.05" ry="0.05"/><rect class="cls-90" x="49.89" y="31.09" width="0.68" height="0.68" rx="0.05" ry="0.05"/><rect class="cls-91" x="49.89" y="31.09" width="0.68" height="0.68" rx="0.05" ry="0.05"/><rect class="cls-97" x="49.89" y="31.09" width="0.68" height="0.68" rx="0.05" ry="0.05"/><rect class="cls-92" x="48.71" y="31.09" width="0.68" height="0.68" rx="0.05" ry="0.05"/><rect class="cls-93" x="48.71" y="31.09" width="0.68" height="0.68" rx="0.05" ry="0.05"/><rect class="cls-98" x="48.71" y="31.09" width="0.68" height="0.68" rx="0.05" ry="0.05"/><rect class="cls-99" x="53.41" y="32.33" width="0.68" height="0.68" rx="0.05" ry="0.05"/><rect class="cls-100" x="53.41" y="32.33" width="0.68" height="0.68" rx="0.05" ry="0.05"/><rect class="cls-94" x="53.41" y="32.33" width="0.68" height="0.68" rx="0.05" ry="0.05"/><rect class="cls-101" x="52.24" y="32.33" width="0.68" height="0.68" rx="0.05" ry="0.05"/><rect class="cls-102" x="52.24" y="32.33" width="0.68" height="0.68" rx="0.05" ry="0.05"/><rect class="cls-95" x="52.24" y="32.33" width="0.68" height="0.68" rx="0.05" ry="0.05"/><rect class="cls-103" x="51.06" y="32.33" width="0.68" height="0.68" rx="0.05" ry="0.05"/><rect class="cls-104" x="51.06" y="32.33" width="0.68" height="0.68" rx="0.05" ry="0.05"/><rect class="cls-96" x="51.06" y="32.33" width="0.68" height="0.68" rx="0.05" ry="0.05"/><rect class="cls-105" x="49.89" y="32.33" width="0.68" height="0.68" rx="0.05" ry="0.05"/><rect class="cls-106" x="49.89" y="32.33" width="0.68" height="0.68" rx="0.05" ry="0.05"/><rect class="cls-97" x="49.89" y="32.33" width="0.68" height="0.68" rx="0.05" ry="0.05"/><rect class="cls-107" x="48.71" y="32.33" width="0.68" height="0.68" rx="0.05" ry="0.05"/><rect class="cls-108" x="48.71" y="32.33" width="0.68" height="0.68" rx="0.05" ry="0.05"/><rect class="cls-98" x="48.71" y="32.33" width="0.68" height="0.68" rx="0.05" ry="0.05"/><rect class="cls-109" x="53.41" y="33.57" width="0.68" height="0.68" rx="0.05" ry="0.05"/><rect class="cls-110" x="53.41" y="33.57" width="0.68" height="0.68" rx="0.05" ry="0.05"/><rect class="cls-111" x="53.41" y="33.57" width="0.68" height="0.68" rx="0.05" ry="0.05"/><rect class="cls-112" x="52.24" y="33.57" width="0.68" height="0.68" rx="0.05" ry="0.05"/><rect class="cls-113" x="52.24" y="33.57" width="0.68" height="0.68" rx="0.05" ry="0.05"/><rect class="cls-114" x="52.24" y="33.57" width="0.68" height="0.68" rx="0.05" ry="0.05"/><rect class="cls-115" x="51.06" y="33.57" width="0.68" height="0.68" rx="0.05" ry="0.05"/><rect class="cls-116" x="51.06" y="33.57" width="0.68" height="0.68" rx="0.05" ry="0.05"/><rect class="cls-117" x="51.06" y="33.57" width="0.68" height="0.68" rx="0.05" ry="0.05"/><rect class="cls-118" x="49.89" y="33.57" width="0.68" height="0.68" rx="0.05" ry="0.05"/><rect class="cls-119" x="49.89" y="33.57" width="0.68" height="0.68" rx="0.05" ry="0.05"/><rect class="cls-120" x="49.89" y="33.57" width="0.68" height="0.68" rx="0.05" ry="0.05"/><rect class="cls-121" x="48.71" y="33.57" width="0.68" height="0.68" rx="0.05" ry="0.05"/><rect class="cls-122" x="48.71" y="33.57" width="0.68" height="0.68" rx="0.05" ry="0.05"/><rect class="cls-123" x="48.71" y="33.57" width="0.68" height="0.68" rx="0.05" ry="0.05"/><rect class="cls-124" x="53.41" y="34.8" width="0.68" height="0.68" rx="0.05" ry="0.05"/><rect class="cls-125" x="53.41" y="34.8" width="0.68" height="0.68" rx="0.05" ry="0.05"/><rect class="cls-126" x="53.41" y="34.8" width="0.68" height="0.68" rx="0.05" ry="0.05"/><rect class="cls-127" x="52.24" y="34.8" width="0.68" height="0.68" rx="0.05" ry="0.05"/><rect class="cls-128" x="52.24" y="34.8" width="0.68" height="0.68" rx="0.05" ry="0.05"/><rect class="cls-129" x="52.24" y="34.8" width="0.68" height="0.68" rx="0.05" ry="0.05"/><rect class="cls-130" x="51.06" y="34.8" width="0.68" height="0.68" rx="0.05" ry="0.05"/><rect class="cls-131" x="51.06" y="34.8" width="0.68" height="0.68" rx="0.05" ry="0.05"/><rect class="cls-132" x="51.06" y="34.8" width="0.68" height="0.68" rx="0.05" ry="0.05"/><rect class="cls-133" x="49.89" y="34.8" width="0.68" height="0.68" rx="0.05" ry="0.05"/><rect class="cls-134" x="49.89" y="34.8" width="0.68" height="0.68" rx="0.05" ry="0.05"/><rect class="cls-135" x="49.89" y="34.8" width="0.68" height="0.68" rx="0.05" ry="0.05"/><rect class="cls-136" x="48.71" y="34.8" width="0.68" height="0.68" rx="0.05" ry="0.05"/><rect class="cls-137" x="48.71" y="34.8" width="0.68" height="0.68" rx="0.05" ry="0.05"/><rect class="cls-138" x="48.71" y="34.8" width="0.68" height="0.68" rx="0.05" ry="0.05"/><rect class="cls-139" x="53.41" y="36.04" width="0.68" height="0.68" rx="0.05" ry="0.05"/><rect class="cls-140" x="53.41" y="36.04" width="0.68" height="0.68" rx="0.05" ry="0.05"/><rect class="cls-141" x="53.41" y="36.04" width="0.68" height="0.68" rx="0.05" ry="0.05"/><rect class="cls-142" x="53.41" y="36.04" width="0.68" height="0.68" rx="0.05" ry="0.05"/><rect class="cls-143" x="52.24" y="36.04" width="0.68" height="0.68" rx="0.05" ry="0.05"/><rect class="cls-144" x="52.24" y="36.04" width="0.68" height="0.68" rx="0.05" ry="0.05"/><rect class="cls-145" x="52.24" y="36.04" width="0.68" height="0.68" rx="0.05" ry="0.05"/><rect class="cls-146" x="52.24" y="36.04" width="0.68" height="0.68" rx="0.05" ry="0.05"/><rect class="cls-147" x="51.06" y="36.04" width="0.68" height="0.68" rx="0.05" ry="0.05"/><rect class="cls-148" x="51.06" y="36.04" width="0.68" height="0.68" rx="0.05" ry="0.05"/><rect class="cls-149" x="51.06" y="36.04" width="0.68" height="0.68" rx="0.05" ry="0.05"/><rect class="cls-150" x="51.06" y="36.04" width="0.68" height="0.68" rx="0.05" ry="0.05"/><rect class="cls-151" x="49.89" y="36.04" width="0.68" height="0.68" rx="0.05" ry="0.05"/><rect class="cls-152" x="49.89" y="36.04" width="0.68" height="0.68" rx="0.05" ry="0.05"/><rect class="cls-153" x="49.89" y="36.04" width="0.68" height="0.68" rx="0.05" ry="0.05"/><rect class="cls-154" x="49.89" y="36.04" width="0.68" height="0.68" rx="0.05" ry="0.05"/><rect class="cls-155" x="48.71" y="36.04" width="0.68" height="0.68" rx="0.05" ry="0.05"/><rect class="cls-156" x="48.71" y="36.04" width="0.68" height="0.68" rx="0.05" ry="0.05"/><rect class="cls-157" x="48.71" y="36.04" width="0.68" height="0.68" rx="0.05" ry="0.05"/><rect class="cls-158" x="48.71" y="36.04" width="0.68" height="0.68" rx="0.05" ry="0.05"/><path class="cls-159" d="M41.23,37.23v1.12h1.82a2.68,2.68,0,0,0,2.68-2.73v-.15H41.51v-3a.61.61,0,0,0-.61-.61H37.55v5.35Z"/><path class="cls-160" d="M41.23,37.23v1.12h1.82a2.68,2.68,0,0,0,2.68-2.73v-.15H41.51v-3a.61.61,0,0,0-.61-.61H37.55v5.35Z"/><path class="cls-161" d="M41.23,37.23v1.12h1.82a2.68,2.68,0,0,0,2.68-2.73v-.15H41.51v-3a.61.61,0,0,0-.61-.61H37.55v5.35Z"/><path class="cls-162" d="M39.33,56.74H33.1a.69.69,0,0,0-.68.59,10.17,10.17,0,0,0-.11,1.5A5.18,5.18,0,0,0,32.45,60a28,28,0,0,0,7.67-1.19A10.16,10.16,0,0,0,40,57.32.69.69,0,0,0,39.33,56.74Z"/><path class="cls-163" d="M35.66,47.3l-.21.46a.62.62,0,0,0,0,.53l.13.25a.46.46,0,0,1-.09.53l-.26.25a1.6,1.6,0,0,0-.46,1.35h0a.72.72,0,0,0,.42.56h0a.68.68,0,0,1,.34.9l-.13.28a2.6,2.6,0,0,0-.23.94h0a2.38,2.38,0,0,0,.33,1.34l.48.82.86.39.9-1.63a3,3,0,0,0,0-2.93h0a1.09,1.09,0,0,1,.13-1.3l.13-.14a1.56,1.56,0,0,0,.41-1V48.7a.65.65,0,0,0-.51-.67l-.4-.09a.35.35,0,0,1-.27-.42l.11-.52a1.38,1.38,0,0,0-.59-1.43h0a.73.73,0,0,0-1.07.31h0a1.13,1.13,0,0,0-.06.77l.1.39A.4.4,0,0,1,35.66,47.3Z"/><path class="cls-164" d="M37.71,51.35a1.1,1.1,0,0,1,.13-1.3l.13-.14a1.56,1.56,0,0,0,.41-1V48.7a.65.65,0,0,0-.51-.67l-.4-.09a.35.35,0,0,1-.27-.42l.11-.52a1.38,1.38,0,0,0-.59-1.43h0a.3.3,0,0,0-.45.29l.19,1.33a1.73,1.73,0,0,1,0,.41l-.07.73a.7.7,0,0,0,.2.55h0a.83.83,0,0,1,.12,1h0a2.45,2.45,0,0,0-.25,2h0a1.53,1.53,0,0,1,.05.67l-.22,1.5.07,1.61.5.23.9-1.63A3,3,0,0,0,37.71,51.35Z"/><path class="cls-165" d="M36.46,47.15a3.53,3.53,0,0,1,.05.58,5.61,5.61,0,0,1-.06.58,4.89,4.89,0,0,0-.06.56,2.67,2.67,0,0,0,.08.56l.11.56.1.49.15-.27c.07-.13.14-.26.23-.39a3.06,3.06,0,0,1,.27-.36l.3-.34-.28.36a3,3,0,0,0-.25.37c-.07.13-.14.27-.2.4l-.18.37a3,3,0,0,1,.08.51,2.27,2.27,0,0,1-.05.59l-.13.56,0,.15c.05-.09.1-.19.16-.28a2.26,2.26,0,0,1,.2-.27l.22-.25-.2.26a2.24,2.24,0,0,0-.18.27c-.05.1-.1.2-.15.3l-.1.2,0,.17a5.38,5.38,0,0,0-.11.56,4,4,0,0,0,0,.57c0,.19,0,.38,0,.57,0,.38,0,.77,0,1.15,0-.38-.06-.76-.09-1.15,0-.19,0-.38,0-.58a4.14,4.14,0,0,1,0-.58s0-.1,0-.15L36.22,53c0-.11,0-.22-.07-.32a2.25,2.25,0,0,0-.11-.31L35.91,52l.15.3a2.26,2.26,0,0,1,.12.31c0,.11.06.22.09.32l0,.1c0-.08,0-.17.05-.25l.13-.56.13-.56a2.09,2.09,0,0,0,0-.25l-.3-.3c-.11-.11-.21-.22-.32-.31a3,3,0,0,0-.36-.27l-.38-.25.39.23a3.08,3.08,0,0,1,.37.26l.34.3.25.23c0-.06,0-.12,0-.18a3.39,3.39,0,0,0-.08-.56L36.46,50l-.11-.56c0-.09,0-.19-.05-.28a1.66,1.66,0,0,1,0-.3,4.91,4.91,0,0,1,.08-.58c0-.19.07-.38.08-.56a3.47,3.47,0,0,0,0-.57l0-.57Z"/><path class="cls-166" d="M36.7,56.76l.41-.28a1.36,1.36,0,0,0,.49-.62,1.49,1.49,0,0,0,.1-.54v-.18a.39.39,0,0,1,.39-.39.41.41,0,0,0,.35-.19.91.91,0,0,0,.08-.81l-.07-.19a.26.26,0,0,1,.08-.3l.12-.1a.35.35,0,0,0,.13-.27v-.29a.23.23,0,0,1,.05-.15l.15-.18a.65.65,0,0,0,.15-.41.42.42,0,0,0-.49-.42h0A.79.79,0,0,0,38,52l-.07.3a.2.2,0,0,1-.24.15l-.23,0a.37.37,0,0,0-.42.23l0,.13a.89.89,0,0,0,0,.6l0,.1a.63.63,0,0,1-.24.71A1.69,1.69,0,0,0,36,55.73l.08,1Z"/><path class="cls-167" d="M36.45,56.76l.4-.79.24-.83a.88.88,0,0,1,.19-.34,1.4,1.4,0,0,0,.34-1.11.47.47,0,0,1,.3-.5.4.4,0,0,0,.23-.24l.14-.39a1,1,0,0,1,.1-.21l.41-.65a.17.17,0,0,0-.17-.26h0A.79.79,0,0,0,38,52l-.07.3a.2.2,0,0,1-.24.15l-.23,0a.37.37,0,0,0-.42.23l0,.13a.89.89,0,0,0,0,.6l0,.1a.63.63,0,0,1-.24.71A1.69,1.69,0,0,0,36,55.73l.08,1Z"/><path class="cls-168" d="M36.59,56.5A4,4,0,0,1,37.52,55c-.13.16-.31.29-.44.45a1,1,0,0,1,1.18-1.2c-.28.1-.65.13-.95.2A18,18,0,0,0,38.57,52"/><path class="cls-169" d="M38.39,52.31a5.46,5.46,0,0,1-.9,1.68,9.33,9.33,0,0,1-.17-.93,2.7,2.7,0,0,1-.23,2c0-.19-.09-.37-.11-.55a2.47,2.47,0,0,1-.41,2"/><path class="cls-170" d="M33.54,51.29a.28.28,0,0,1,0,.19l0,.36a.43.43,0,0,0,.13.35l.14.14a.32.32,0,0,1,.06.38l-.11.23a1.13,1.13,0,0,0,0,1,.51.51,0,0,0,.4.28.48.48,0,0,1,.42.52l0,.22a1.84,1.84,0,0,0,.06.68,1.68,1.68,0,0,0,.52.82l.36.31h.85l.2-1.09a2.08,2.08,0,0,0-.68-1.95.77.77,0,0,1-.2-.9l.05-.12a1.1,1.1,0,0,0,.05-.74l0-.16a.46.46,0,0,0-.49-.33l-.29,0a.25.25,0,0,1-.27-.22l0-.37a1,1,0,0,0-.72-.82h0a.52.52,0,0,0-.65.45.8.8,0,0,0,.13.53Z"/><path class="cls-171" d="M34.08,51.22a1.23,1.23,0,0,1,.1.27l.12.5a.49.49,0,0,0,.26.33.58.58,0,0,1,.3.65,1.73,1.73,0,0,0,.28,1.4,1.08,1.08,0,0,1,.19.44l.19,1.05.34.9h.48l.2-1.09a2.08,2.08,0,0,0-.68-1.95.77.77,0,0,1-.2-.9l.05-.12a1.1,1.1,0,0,0,.05-.74l0-.16a.46.46,0,0,0-.49-.33l-.29,0a.25.25,0,0,1-.27-.22l0-.37a1,1,0,0,0-.72-.82h0a.21.21,0,0,0-.24.29Z"/><path class="cls-172" d="M34.21,51.58c0,.13,0,.26.07.4a3.44,3.44,0,0,0,.07.4,1.17,1.17,0,0,0,.08.19l.1.18.2.35.2.35a2.38,2.38,0,0,1,.18.35l0,.12-.22-.1-.29-.12-.31-.09L34,53.56l.31.08.3.1.28.14.26.13a1.47,1.47,0,0,1,0,.18l0,.4,0,.4c0,.06,0,.12,0,.18l0-.06-.13-.2L35,54.74l-.16-.17.15.18.14.19.12.2.09.16,0,.1a2.9,2.9,0,0,0,.12.39l.15.38.25.59h0l-.22-.61-.14-.38a2.85,2.85,0,0,1-.1-.39,3.76,3.76,0,0,1,0-.4v-.12l0-.15c0-.08,0-.16,0-.23a1.58,1.58,0,0,1,.06-.22l.08-.22-.09.22a1.59,1.59,0,0,0-.07.22c0,.07,0,.15,0,.22v-.11l0-.4a1.6,1.6,0,0,0-.09-.41,2.12,2.12,0,0,0-.17-.33l0-.29c0-.1,0-.21,0-.31a2.14,2.14,0,0,1,.08-.3l.11-.3-.12.29a2.16,2.16,0,0,0-.1.3c0,.1,0,.21-.06.31l0,.21-.17-.3-.2-.35a1.88,1.88,0,0,1-.18-.35,3.43,3.43,0,0,1-.08-.39,4,4,0,0,0-.08-.4,2.47,2.47,0,0,0-.16-.37l-.18-.36.16.37A2.44,2.44,0,0,1,34.21,51.58Z"/><path class="cls-173" d="M44.47,13.87V49.29a1.18,1.18,0,0,0,1.18,1.18H58.51a1.18,1.18,0,0,0,1.18-1.18V5.19a1.18,1.18,0,0,0-1.85-1L45,12.88A1.18,1.18,0,0,0,44.47,13.87Z"/><path class="cls-174" d="M51.13,50.47h7.38a1.18,1.18,0,0,0,1.18-1.18V5.19a1.18,1.18,0,0,0-1.85-1L45,12.88a1.18,1.18,0,0,0-.25.23l3.47,3.35a9.56,9.56,0,0,1,2.92,6.88V50.47Z"/><ellipse class="cls-175" cx="51.16" cy="28.16" rx="1.97" ry="7.31"/><path class="cls-176" d="M51.52,28.51,53.06,30c-.22,3.21-1,5.47-1.9,5.47-1.08,0-2-3.3-2-7.31s.89-7.31,2-7.31c.88,0,1.65,2.17,1.89,5.3L51.5,27.79A.51.51,0,0,0,51.52,28.51Z"/><path class="cls-177" d="M41.76,37.74l6.29-12.1a.28.28,0,0,1,.25-.15h0a.28.28,0,0,1,.25.4L42.61,38.2"/><path class="cls-178" d="M42.35,36.61l-.59,1.13.85.45.63-1.29A1.18,1.18,0,0,0,42.35,36.61Z"/><path class="cls-179" d="M33.27,33.67a1.41,1.41,0,0,0,1.06-1.16c.26-1-1.81-.66-1.81-.66L32.45,34"/><path class="cls-180" d="M31.95,31.5l-.31-.28,1.22-3.5a1.24,1.24,0,0,1,1.6,1.51s-.39,2.57-1.36,3.54A2,2,0,0,0,31.95,31.5Z"/><path class="cls-181" d="M31.94,33V31.8a.53.53,0,0,1,.19-.41l1-.85a.12.12,0,0,1,.19.06c0,.17,0,.49-.41.91a1.39,1.39,0,0,1-.07,1.71c-.71.93-1,.83-1,.83"/><path class="cls-182" d="M39.3,40l1.24-1.79a1.31,1.31,0,0,1,.84-.54l.47-.08a1.19,1.19,0,0,1,1.17.47h0a1.11,1.11,0,0,1,0,1.34h0a1.11,1.11,0,0,1-.88.44h-.25s.12,1.09-1.81,1.53"/><path class="cls-183" d="M21.91,32.78s2.39,2,3.09,6.75S31.94,33,31.94,33s1.33.12,1.33.67c0,0-2.23,9.64-5.33,10.44s-10-3.16-10-3.16"/><path class="cls-184" d="M29.56,39.86c-.85-.54.45-3.67.45-3.67h0c-1.9,2.91-4.57,6.34-5,3.34,0-.23-.07-.46-.12-.68l-.54.28-.25,4.14,4.49.54a6,6,0,0,0,1.65-1.92C30.73,41,30.33,40.35,29.56,39.86Z"/><path class="cls-185" d="M19.71,57.16a27.79,27.79,0,0,0,6.4,2.21c0-.34-.07-.65-.11-.92a4.58,4.58,0,0,0-.39-1.38h-5.9Z"/><path class="cls-186" d="M22.21,33.7l-5.59-1.85S12.73,38.12,12.37,52a28,28,0,0,0,11.84,6.93c.58-.09,1.18-.2,1.81-.32a1.84,1.84,0,0,0,.81-2.64C26,54,26,38.63,22.21,33.7Z"/><path class="cls-187" d="M16.29,47.27c.56-6.12,4.8-3.73,4.8-3.73L15.57,34c-1.18,2.9-3,8.75-3.2,17.91A28,28,0,0,0,23,58.53a13.3,13.3,0,0,0,0-1.45C22.92,54.24,15.73,53.39,16.29,47.27Z"/><path class="cls-188" d="M22.09,29.11,17.24,28s.46,2.67-.62,3.85l4.54,1.82S19.93,30.09,22.09,29.11Z"/><path class="cls-189" d="M17.24,28s.46,2.67-.62,3.85l2.58,1c.47-.22.78-.47.61-.72-.48-.69-.18-1,.21-1.69s2.07-1.37,2.07-1.37Z"/><path class="cls-190" d="M23.43,19s3.06,1.18.75,4.18-4.64-1.47-4.64-1.47"/><path class="cls-191" d="M25,25.34a6,6,0,0,0-1.47-3.28,4.4,4.4,0,0,0-.79-.8l-.08-.07h0a4.38,4.38,0,1,0-3.76,7.74h0L19,29l.23.05c3.14.88,4.39-.63,4.88-2.09A1.42,1.42,0,0,0,25,25.34Z"/><path class="cls-192" d="M16.85,21.72a4.37,4.37,0,0,0,2,7.22h0L19,29l.23.05a6.3,6.3,0,0,0,1.76.26c-1.3-.35-1.51-3.38,1-4.38s1.81-2.53,1.81-2.54h0Z"/><path class="cls-193" d="M24.85,26.25a1.34,1.34,0,0,1-1.1.38c-.69-.09.36.3.36.3A1.42,1.42,0,0,0,24.85,26.25Z"/><path class="cls-194" d="M23.76,22.36a2.4,2.4,0,0,1-2.19,1.1c-1.17-.07-1.62,1.18-1.76,1.74a.34.34,0,0,1-.33.25h0a.34.34,0,0,1-.34-.34c0-.54-.14-1.54-1.19-1.54-1.43,0-1.28,2.38-.13,2.66s-.29,2.23-.67,1.91-2.45-3.1-2.64-4.61a4.73,4.73,0,0,1,4.62-5.07C22.86,18.34,26.2,19.14,23.76,22.36Z"/><path class="cls-195" d="M16.29,32.46l.93-1.91,3,1.88a1.29,1.29,0,0,1,.59.88l.28,1.7-.81-1.34-.75,1Z"/><path class="cls-196" d="M21.09,35l-.38-2.28L20.84,31l.71,1a2.75,2.75,0,0,1,.33.68l.33,1-.84-.23Z"/><path class="cls-197" d="M20.14,33.27h0a.58.58,0,0,0-.1.83l.77.95a.39.39,0,0,0,.3.14h0a.39.39,0,0,0,.38-.3l.23-1a.58.58,0,0,0-.17-.57l0,0a.85.85,0,0,0-.64-.22l-.42,0A.58.58,0,0,0,20.14,33.27Z"/><path class="cls-198" d="M20.84,34.93s1.22,7.78.36,13.07a1.94,1.94,0,0,0,.41,1.51l1.25,1.57a.36.36,0,0,0,.61-.07l.83-1.74a2.06,2.06,0,0,0,.19-1.11c-.23-2.22-1.2-10.11-3.32-13.68"/><path class="cls-199" d="M21.46,45.29a19.94,19.94,0,0,0,2.88,1.53,59,59,0,0,0-1.69-8.69C22.08,37.5,21.54,37,21,36.49A56.73,56.73,0,0,1,21.46,45.29Z"/><path class="cls-200" d="M16.29,32.49s2.18-1.28,8.51,6.5c7.18,8.81,14.67.75,14.67.75s1.35.54.87,1.55c0,0-7.51,10.81-19.9,1.81C12.73,37.49,16.29,32.49,16.29,32.49Z"/><path class="cls-201" d="M33.1,32.76s1.18-3.2,1.39-3.62a1.31,1.31,0,0,1,2.09.56l-1.49,3.61A1.44,1.44,0,0,0,33.1,32.76Z"/><path class="cls-202" d="M42.71,48.87H60a0,0,0,0,1,0,0v2.46a1.42,1.42,0,0,1-1.42,1.42H42.71a1,1,0,0,1-1-1v-2A1,1,0,0,1,42.71,48.87Z"/></g></g></svg>