<svg width="2659" height="1042" viewBox="0 0 2659 1042" version="1.1" xmlns="http://www.w3.org/2000/svg" xmlns:xlink="http://www.w3.org/1999/xlink">
<title>Vurb.Foundation logo with text</title>
<desc>Created using Figma</desc>
<g id="Canvas" transform="translate(-11827 -8229)">
<g id="Vurb.Foundation logo with text">
<g id="Foundation Logo">
<g id="Polygon">
<use xlink:href="#path0_fill" transform="translate(11845 8250)" fill="#FFFFFF"/>
<mask id="mask0_outline_out">
<rect id="mask0_outline_inv" fill="white" x="-18" y="-21" width="903" height="1042" transform="translate(11845 8250)"/>
<use xlink:href="#path0_fill" fill="black" transform="translate(11845 8250)"/>
</mask>
<g mask="url(#mask0_outline_out)">
<use xlink:href="#path1_stroke_2x" transform="translate(11845 8250)"/>
</g>
</g>
<g id="Group">
<g id="Polygon">
<use xlink:href="#path2_fill" transform="translate(11845 8500)"/>
<use xlink:href="#path3_fill" transform="translate(11845 8500)"/>
</g>
<g id="Subtract">
<use xlink:href="#path4_fill" transform="translate(12332 8656)"/>
<use xlink:href="#path5_fill" transform="translate(12332 8656)"/>
<use xlink:href="#path6_fill" transform="translate(12332 8656)"/>
</g>
</g>
</g>
<g id="Vurb. Foundation">
<use xlink:href="#path7_fill" transform="translate(12942 8392)"/>
</g>
</g>
</g>
<defs>
<path id="path0_fill" d="M 433.013 0L 866.025 250L 866.025 750L 433.013 1000L 2.84217e-13 750L 0 250L 433.013 0Z"/>
<path id="path1_stroke_2x" d="M 433.013 0L 442.013 -15.5885L 433.013 -20.7846L 424.013 -15.5885L 433.013 0ZM 866.025 250L 884.025 250L 884.025 239.608L 875.025 234.412L 866.025 250ZM 866.025 750L 875.025 765.588L 884.025 760.392L 884.025 750L 866.025 750ZM 433.013 1000L 424.013 1015.59L 433.013 1020.78L 442.013 1015.59L 433.013 1000ZM 2.84217e-13 750L -18 750L -18 760.392L -9 765.588L 2.84217e-13 750ZM 0 250L -9 234.412L -18 239.608L -18 250L 0 250ZM 424.013 15.5885L 857.025 265.588L 875.025 234.412L 442.013 -15.5885L 424.013 15.5885ZM 848.025 250L 848.025 750L 884.025 750L 884.025 250L 848.025 250ZM 857.025 734.412L 424.013 984.412L 442.013 1015.59L 875.025 765.588L 857.025 734.412ZM 442.013 984.412L 9 734.412L -9 765.588L 424.013 1015.59L 442.013 984.412ZM 18 750L 18 250L -18 250L -18 750L 18 750ZM 9 265.588L 442.013 15.5885L 424.013 -15.5885L -9 234.412L 9 265.588Z"/>
<path id="path2_fill" d="M 866.025 62L 866.025 0L 657.59 0L 433.013 250L 433.013 312L 866.025 62Z"/>
<path id="path3_fill" d="M 2.84217e-13 62L 433.013 312L 433.013 250L 0 0L 2.84217e-13 62Z"/>
<path id="path4_fill" d="M 0 187.905L 0 500.021L 72 458.393L 72 146.277L 0 187.905Z"/>
<path id="path5_fill" d="M 198 385.543L 126 427.171L 126 115.056L 198 73.4277L 198 385.543Z"/>
<path id="path6_fill" d="M 252 354.321L 325 312.115L 325 0L 252 42.2061L 252 354.321Z"/>
<path id="path7_fill" d="M 179.7 88.4L 219 88.4L 123.9 302L 92.4 302L -2.7 88.4L 37.5 88.4L 108.6 253.4L 179.7 88.4ZM 359.377 150.5L 359.377 302L 322.777 302L 322.777 278.6C 317.977 287 311.577 293.4 303.577 297.8C 295.577 302.2 286.377 304.4 275.977 304.4C 238.977 304.4 220.477 283.6 220.477 242L 220.477 150.5L 257.677 150.5L 257.677 242.3C 257.677 253.3 259.877 261.4 264.277 266.6C 268.877 271.8 275.877 274.4 285.277 274.4C 296.277 274.4 305.077 270.8 311.677 263.6C 318.277 256.4 321.577 246.8 321.577 234.8L 321.577 150.5L 359.377 150.5ZM 481.688 146.9C 487.488 146.9 492.487 147.7 496.687 149.3L 496.387 183.5C 489.987 180.9 483.388 179.6 476.588 179.6C 463.788 179.6 453.988 183.3 447.187 190.7C 440.587 198.1 437.288 207.9 437.288 220.1L 437.288 302L 400.088 302L 400.088 193.4C 400.088 177.4 399.288 163.1 397.687 150.5L 432.788 150.5L 435.788 177.2C 439.587 167.4 445.587 159.9 453.787 154.7C 461.987 149.5 471.288 146.9 481.688 146.9ZM 603.968 146.6C 617.168 146.6 628.768 149.9 638.768 156.5C 648.968 162.9 656.868 172 662.468 183.8C 668.068 195.6 670.868 209.3 670.868 224.9C 670.868 240.5 667.968 254.4 662.168 266.6C 656.568 278.6 648.668 287.9 638.468 294.5C 628.468 301.1 616.968 304.4 603.968 304.4C 592.768 304.4 582.768 302 573.968 297.2C 565.368 292.4 558.868 285.7 554.468 277.1L 554.468 302L 517.568 302L 517.568 81.2L 554.768 81.2L 554.768 173.3C 559.368 164.9 565.968 158.4 574.568 153.8C 583.168 149 592.968 146.6 603.968 146.6ZM 594.068 275C 606.468 275 616.068 270.6 622.868 261.8C 629.668 253 633.068 240.7 633.068 224.9C 633.068 209.3 629.668 197.3 622.868 188.9C 616.068 180.3 606.368 176 593.768 176C 581.168 176 571.468 180.3 564.668 188.9C 557.868 197.5 554.468 209.7 554.468 225.5C 554.468 241.5 557.868 253.8 564.668 262.4C 571.468 270.8 581.268 275 594.068 275ZM 695.895 260L 737.895 260L 737.895 302L 695.895 302L 695.895 260ZM 27.6 678L 27.6 464.4L 156.3 464.4L 156.3 480.3L 46.2 480.3L 46.2 561.3L 150.3 561.3L 150.3 577.8L 46.2 577.8L 46.2 678L 27.6 678ZM 248.955 680.1C 235.155 680.1 222.955 676.9 212.355 670.5C 201.955 664.1 193.855 655 188.055 643.2C 182.455 631.4 179.655 617.7 179.655 602.1C 179.655 586.5 182.455 572.8 188.055 561C 193.855 549.2 201.955 540.1 212.355 533.7C 222.955 527.3 235.155 524.1 248.955 524.1C 262.555 524.1 274.555 527.3 284.955 533.7C 295.355 540.1 303.355 549.2 308.955 561C 314.755 572.8 317.655 586.5 317.655 602.1C 317.655 617.7 314.755 631.4 308.955 643.2C 303.355 655 295.355 664.1 284.955 670.5C 274.555 676.9 262.555 680.1 248.955 680.1ZM 248.655 663.9C 264.655 663.9 276.955 658.6 285.555 648C 294.355 637.2 298.755 621.9 298.755 602.1C 298.755 582.5 294.355 567.3 285.555 556.5C 276.755 545.5 264.555 540 248.955 540C 233.155 540 220.855 545.5 212.055 556.5C 203.255 567.3 198.855 582.5 198.855 602.1C 198.855 622.1 203.155 637.4 211.755 648C 220.355 658.6 232.655 663.9 248.655 663.9ZM 478.613 527.7L 478.613 678L 460.912 678L 460.912 650.7C 456.113 660.3 449.312 667.6 440.512 672.6C 431.713 677.6 421.613 680.1 410.212 680.1C 392.613 680.1 379.313 675.2 370.312 665.4C 361.312 655.6 356.812 641.1 356.812 621.9L 356.812 527.7L 374.813 527.7L 374.813 620.7C 374.813 635.5 377.813 646.4 383.813 653.4C 389.812 660.4 399.113 663.9 411.713 663.9C 426.513 663.9 438.312 659.3 447.113 650.1C 455.913 640.7 460.313 628.3 460.313 612.9L 460.313 527.7L 478.613 527.7ZM 598.413 524.1C 634.613 524.1 652.713 543.5 652.713 582.3L 652.713 678L 634.413 678L 634.413 583.5C 634.413 568.5 631.313 557.5 625.113 550.5C 619.113 543.5 609.613 540 596.613 540C 581.613 540 569.513 544.6 560.313 553.8C 551.113 563 546.513 575.4 546.513 591L 546.513 678L 528.513 678L 528.513 569.4C 528.513 553.8 527.713 539.9 526.113 527.7L 543.513 527.7L 545.913 555.3C 550.513 545.1 557.413 537.4 566.613 532.2C 575.813 526.8 586.413 524.1 598.413 524.1ZM 829.451 457.2L 829.451 678L 811.151 678L 811.151 649.2C 806.751 659.2 800.051 666.9 791.051 672.3C 782.251 677.5 771.651 680.1 759.251 680.1C 746.051 680.1 734.351 676.9 724.151 670.5C 714.151 663.9 706.351 654.7 700.751 642.9C 695.151 630.9 692.351 617.1 692.351 601.5C 692.351 585.9 695.051 572.3 700.451 560.7C 706.051 548.9 713.851 539.9 723.851 533.7C 734.051 527.3 745.851 524.1 759.251 524.1C 771.451 524.1 781.951 526.7 790.751 531.9C 799.751 537.1 806.551 544.7 811.151 554.7L 811.151 457.2L 829.451 457.2ZM 761.651 663.9C 777.451 663.9 789.651 658.5 798.251 647.7C 806.851 636.9 811.151 621.7 811.151 602.1C 811.151 582.5 806.851 567.3 798.251 556.5C 789.651 545.5 777.551 540 761.951 540C 745.951 540 733.551 545.4 724.751 556.2C 715.951 567 711.551 582.1 711.551 601.5C 711.551 621.1 715.951 636.4 724.751 647.4C 733.551 658.4 745.851 663.9 761.651 663.9ZM 1006.7 527.7L 1006.7 678L 988.397 678L 988.397 649.2C 983.997 659.2 977.297 666.9 968.297 672.3C 959.497 677.5 948.897 680.1 936.497 680.1C 923.097 680.1 911.297 677 901.097 670.8C 891.097 664.4 883.297 655.4 877.697 643.8C 872.297 632 869.597 618.3 869.597 602.7C 869.597 587.1 872.397 573.4 877.997 561.6C 883.597 549.6 891.397 540.4 901.397 534C 911.597 527.4 923.297 524.1 936.497 524.1C 948.697 524.1 959.197 526.7 967.997 531.9C 976.997 537.1 983.797 544.7 988.397 554.7L 988.397 527.7L 1006.7 527.7ZM 939.197 663.9C 954.797 663.9 966.897 658.5 975.497 647.7C 984.097 636.9 988.397 621.7 988.397 602.1C 988.397 582.3 984.097 567 975.497 556.2C 966.897 545.4 954.697 540 938.897 540C 923.097 540 910.797 545.6 901.997 556.8C 893.197 567.8 888.797 583.1 888.797 602.7C 888.797 622.1 893.197 637.2 901.997 648C 910.797 658.6 923.197 663.9 939.197 663.9ZM 1081.94 542.4L 1081.94 631.8C 1081.94 643.8 1084.24 652.1 1088.84 656.7C 1093.44 661.3 1100.24 663.6 1109.24 663.6C 1114.84 663.6 1120.24 662.7 1125.44 660.9L 1125.44 677.4C 1119.04 679 1112.54 679.8 1105.94 679.8C 1092.74 679.8 1082.34 676.1 1074.74 668.7C 1067.34 661.3 1063.64 650.2 1063.64 635.4L 1063.64 542.4L 1033.94 542.4L 1033.94 527.7L 1063.64 527.7L 1063.64 487.8L 1081.94 480.9L 1081.94 527.7L 1126.34 527.7L 1126.34 542.4L 1081.94 542.4ZM 1157.52 678L 1157.52 527.7L 1175.52 527.7L 1175.52 678L 1157.52 678ZM 1154.82 465.6L 1179.12 465.6L 1179.12 489L 1154.82 489L 1154.82 465.6ZM 1285.48 680.1C 1271.68 680.1 1259.48 676.9 1248.88 670.5C 1238.48 664.1 1230.38 655 1224.58 643.2C 1218.98 631.4 1216.18 617.7 1216.18 602.1C 1216.18 586.5 1218.98 572.8 1224.58 561C 1230.38 549.2 1238.48 540.1 1248.88 533.7C 1259.48 527.3 1271.68 524.1 1285.48 524.1C 1299.08 524.1 1311.08 527.3 1321.48 533.7C 1331.88 540.1 1339.88 549.2 1345.48 561C 1351.28 572.8 1354.18 586.5 1354.18 602.1C 1354.18 617.7 1351.28 631.4 1345.48 643.2C 1339.88 655 1331.88 664.1 1321.48 670.5C 1311.08 676.9 1299.08 680.1 1285.48 680.1ZM 1285.18 663.9C 1301.18 663.9 1313.48 658.6 1322.08 648C 1330.88 637.2 1335.28 621.9 1335.28 602.1C 1335.28 582.5 1330.88 567.3 1322.08 556.5C 1313.28 545.5 1301.08 540 1285.48 540C 1269.68 540 1257.38 545.5 1248.58 556.5C 1239.78 567.3 1235.38 582.5 1235.38 602.1C 1235.38 622.1 1239.68 637.4 1248.28 648C 1256.88 658.6 1269.18 663.9 1285.18 663.9ZM 1464.14 524.1C 1500.34 524.1 1518.44 543.5 1518.44 582.3L 1518.44 678L 1500.14 678L 1500.14 583.5C 1500.14 568.5 1497.04 557.5 1490.84 550.5C 1484.84 543.5 1475.34 540 1462.34 540C 1447.34 540 1435.24 544.6 1426.04 553.8C 1416.84 563 1412.24 575.4 1412.24 591L 1412.24 678L 1394.24 678L 1394.24 569.4C 1394.24 553.8 1393.44 539.9 1391.84 527.7L 1409.24 527.7L 1411.64 555.3C 1416.24 545.1 1423.14 537.4 1432.34 532.2C 1441.54 526.8 1452.14 524.1 1464.14 524.1Z"/>
</defs>
</svg>
