<?xml version="1.0" standalone="no"?>
<svg version="1.1" xmlns="http://www.w3.org/2000/svg" viewBox="0 0 50 50">
    <path d="M 12 3 C 10.354545 3 9 4.3545455 9 6 L 9 8.8320312 A 1.0001 1.0001 0 0 0 9 9.1582031 L 9 39.832031 A 1.0001 1.0001 0 0 0 9 40.158203 L 9 44 C 9 45.645455 10.354545 47 12 47 L 32 47 C 33.645455 47 35 45.645455 35 44 L 35 40.167969 A 1.0001 1.0001 0 0 0 35 39.841797 L 35 32 L 44 32 C 45.639855 32 47 30.64562 47 29 L 47 17.099609 C 47 15.401464 45.606029 14 43.908203 14 L 35 14 L 35 9.1679688 A 1.0001 1.0001 0 0 0 35 8.8417969 L 35 6 C 35 4.3545455 33.645455 3 32 3 L 12 3 z M 12 5 L 32 5 C 32.554545 5 33 5.4454545 33 6 L 33 8 L 11 8 L 11 6 C 11 5.4454545 11.445455 5 12 5 z M 11 10 L 33 10 L 33 14 L 25.091797 14 C 23.393971 14 22 15.401464 22 17.099609 L 22 29 C 22 30.64562 23.360145 32 25 32 L 26.869141 32 C 26.826001 32.329268 26.827131 32.789363 26.736328 33.001953 C 26.55493 33.426673 26.286479 33.740644 25.619141 34.142578 A 1.0001 1.0001 0 0 0 26.136719 36 C 28.366493 36 31.130903 34.958544 32.564453 32 L 33 32 L 33 39 L 11 39 L 11 10 z M 25.091797 16 L 33.832031 16 A 1.0001 1.0001 0 0 0 34.158203 16 L 43.908203 16 C 44.510377 16 45 16.487755 45 17.099609 L 45 29 C 45 29.66438 44.660145 30 44 30 L 32 30 A 1.0001 1.0001 0 0 0 31.060547 30.65625 C 30.504759 32.178625 29.617363 32.964222 28.630859 33.429688 C 28.880605 32.683767 29 31.913976 29 31 A 1.0001 1.0001 0 0 0 28 30 L 25 30 C 24.339855 30 24 29.66438 24 29 L 24 17.099609 C 24 16.487755 24.489623 16 25.091797 16 z M 35 18 A 1 1 0 0 0 34 19 A 1 1 0 0 0 34.015625 19.179688 C 32.844886 19.588495 32 20.689723 32 22 L 32 25 C 32 25.552 31.552 26 31 26 L 31 27 L 34 27 A 1 1 0 0 0 35 28 A 1 1 0 0 0 36 27 L 39 27 L 39 26 C 38.448 26 38 25.552 38 25 L 38 22 C 38 20.688864 37.154364 19.585883 35.982422 19.177734 A 1 1 0 0 0 36 19 A 1 1 0 0 0 35 18 z M 11 41 L 33 41 L 33 44 C 33 44.554545 32.554545 45 32 45 L 12 45 C 11.445455 45 11 44.554545 11 44 L 11 41 z M 19 42 A 1.0001 1.0001 0 1 0 19 44 L 25 44 A 1.0001 1.0001 0 1 0 25 42 L 19 42 z" font-weight="400" font-family="sans-serif" white-space="normal" overflow="visible"/>
</svg>